%FSLAX25Y25*%
%MOIN*%
G70*
G01*
G75*
G04 Layer_Color=128*
%ADD10C,0.01000*%
%ADD11C,0.00800*%
%ADD12C,0.06000*%
%ADD13C,0.00600*%
%ADD14C,0.07000*%
%ADD15C,0.00500*%
%ADD16C,0.04000*%
%ADD17C,0.02500*%
%ADD18C,0.06500*%
%ADD19C,0.01772*%
%ADD20C,0.01772*%
%ADD21O,0.01260X0.03543*%
%ADD22R,0.03465X0.03465*%
%ADD23R,0.03937X0.05276*%
%ADD24R,0.05276X0.03937*%
%ADD25R,0.03465X0.03465*%
%ADD26R,0.02284X0.02362*%
%ADD27O,0.01181X0.03937*%
%ADD28O,0.03937X0.01181*%
%ADD29O,0.03937X0.01181*%
%ADD30R,0.02362X0.02284*%
%ADD31R,0.02756X0.03543*%
%ADD32O,0.01181X0.06299*%
%ADD33O,0.05906X0.01260*%
%ADD34O,0.01260X0.05906*%
%ADD35C,0.01024*%
%ADD36O,0.01181X0.06299*%
%ADD37R,0.02362X0.02284*%
%ADD38R,0.04600X0.03200*%
%ADD39C,0.03150*%
%ADD40R,0.02677X0.06299*%
%ADD41O,0.00984X0.02992*%
%ADD42R,0.06299X0.07284*%
%ADD43O,0.00906X0.03937*%
%ADD44O,0.01299X0.03347*%
%ADD45O,0.03622X0.01024*%
%ADD46O,0.01299X0.08661*%
%ADD47R,0.09843X0.12992*%
%ADD48O,0.05315X0.01654*%
%ADD49R,0.03937X0.01772*%
%ADD50O,0.01181X0.02992*%
%ADD51R,0.02165X0.05315*%
%ADD52O,0.01378X0.06500*%
%ADD53R,0.01299X0.02756*%
%ADD54R,0.02756X0.01299*%
%ADD55O,0.03937X0.00906*%
%ADD56R,0.05118X0.05906*%
%ADD57R,0.05394X0.06496*%
%ADD58O,0.07087X0.01575*%
%ADD59O,0.03937X0.01260*%
%ADD60O,0.01260X0.03937*%
%ADD61R,0.07284X0.06299*%
%ADD62R,0.05197X0.02362*%
%ADD63O,0.05000X0.01575*%
%ADD64R,0.07874X0.02835*%
%ADD65O,0.01575X0.05906*%
%ADD66R,0.07008X0.12992*%
%ADD67R,0.02165X0.05315*%
%ADD68R,0.03543X0.02756*%
%ADD69O,0.02992X0.00984*%
%ADD70R,0.05315X0.02165*%
%ADD71C,0.01654*%
%ADD72C,0.01181*%
%ADD73O,0.01575X0.05000*%
%ADD74R,0.05000X0.05079*%
%ADD75R,0.14173X0.10236*%
%ADD76R,0.11811X0.08268*%
%ADD77R,0.03937X0.05276*%
%ADD78O,0.00984X0.03386*%
%ADD79O,0.01181X0.03600*%
%ADD80R,0.07874X0.08268*%
%ADD81R,0.10236X0.14173*%
%ADD82R,0.01575X0.03150*%
%ADD83R,0.03200X0.04600*%
%ADD84R,0.05079X0.05000*%
%ADD85O,0.01575X0.05433*%
%ADD86R,0.02362X0.05197*%
%ADD87O,0.01654X0.06102*%
%ADD88R,0.10236X0.05118*%
%ADD89R,0.08465X0.07874*%
%ADD90R,0.06378X0.02835*%
%ADD91R,0.08465X0.08071*%
%ADD92R,0.07874X0.04724*%
%ADD93O,0.03386X0.00984*%
%ADD94R,0.05906X0.05118*%
%ADD95O,0.01260X0.03937*%
%ADD96O,0.03937X0.01260*%
%ADD97R,0.06181X0.07165*%
%ADD98R,0.01890X0.03937*%
%ADD99R,0.02953X0.03937*%
%ADD100R,0.02284X0.02362*%
%ADD101R,0.03465X0.03465*%
%ADD102O,0.07500X0.02400*%
%ADD103R,0.03150X0.01575*%
%ADD104R,0.05748X0.04409*%
%ADD105O,0.01378X0.06772*%
%ADD106O,0.03937X0.01496*%
%ADD107O,0.08000X0.02400*%
%ADD108R,0.06693X0.02835*%
%ADD109O,0.03600X0.01181*%
%ADD110R,0.14173X0.10236*%
%ADD111R,0.07874X0.07677*%
%ADD112R,0.07284X0.06299*%
%ADD113O,0.07087X0.01575*%
%ADD114O,0.03937X0.01496*%
%ADD115O,0.03347X0.01299*%
%ADD116R,0.07874X0.07677*%
%ADD117R,0.08661X0.09843*%
%ADD118R,0.03465X0.03465*%
%ADD119R,0.17500X0.17500*%
%ADD120R,0.13780X0.09843*%
%ADD121R,0.05276X0.03937*%
%ADD122O,0.01181X0.03740*%
%ADD123O,0.03800X0.01181*%
%ADD124O,0.02677X0.08071*%
%ADD125O,0.01260X0.05700*%
%ADD126O,0.01181X0.10827*%
%ADD127R,0.06496X0.06496*%
%ADD128R,0.07874X0.07874*%
%ADD129R,0.07087X0.07087*%
%ADD130R,0.12205X0.08268*%
%ADD131R,0.12205X0.01693*%
%ADD132R,0.09843X0.06772*%
%ADD133R,0.20472X0.13780*%
%ADD134C,0.01024*%
%ADD135C,0.01200*%
%ADD136R,0.06496X0.06496*%
%ADD137R,0.13780X0.13780*%
%ADD138R,0.13780X0.09843*%
%ADD139R,0.16929X0.08661*%
%ADD140R,0.03937X0.01772*%
G04:AMPARAMS|DCode=141|XSize=39.37mil|YSize=52.76mil|CornerRadius=0mil|HoleSize=0mil|Usage=FLASHONLY|Rotation=90.000|XOffset=0mil|YOffset=0mil|HoleType=Round|Shape=Octagon|*
%AMOCTAGOND141*
4,1,8,-0.02638,-0.00984,-0.02638,0.00984,-0.01654,0.01969,0.01654,0.01969,0.02638,0.00984,0.02638,-0.00984,0.01654,-0.01969,-0.01654,-0.01969,-0.02638,-0.00984,0.0*
%
%ADD141OCTAGOND141*%

%ADD142C,0.04000*%
%ADD143R,0.05512X0.03937*%
%ADD144R,0.11221X0.13976*%
%ADD145C,0.01260*%
%ADD146R,0.04724X0.11024*%
%ADD147C,0.01772*%
%ADD148O,0.02362X0.14567*%
%ADD149C,0.01800*%
%ADD150C,0.01500*%
%ADD151C,0.02000*%
%ADD152C,0.00700*%
%ADD153C,0.01200*%
%ADD154C,0.01969*%
%ADD155C,0.03000*%
%ADD156C,0.01600*%
%ADD157C,0.01300*%
%ADD158C,0.00350*%
%ADD159C,0.00400*%
%ADD160C,0.00300*%
%ADD161C,0.00900*%
%ADD162R,0.05900X0.04550*%
%ADD163R,0.18350X0.18100*%
%ADD164R,0.06850X0.04700*%
%ADD165R,0.16050X0.28800*%
%ADD166R,0.10850X0.06672*%
%ADD167R,0.10700X0.03150*%
%ADD168R,0.11100X0.08100*%
%ADD169R,0.22300X0.22300*%
%ADD170R,0.02500X0.02950*%
%ADD171R,0.03800X0.02950*%
%ADD172R,0.06900X0.06650*%
%ADD173R,0.03100X0.03600*%
%ADD174R,0.19050X0.02650*%
%ADD175R,0.02450X0.09200*%
%ADD176R,0.03550X0.06550*%
%ADD177R,0.02550X0.02600*%
%ADD178R,0.18600X0.02300*%
%ADD179R,0.01971X0.08558*%
%ADD180C,0.03937*%
%ADD181O,0.04528X0.04921*%
%ADD182C,0.04331*%
%ADD183C,0.04134*%
%ADD184C,0.05709*%
%ADD185C,0.07874*%
%ADD186C,0.05315*%
%ADD187O,0.04528X0.04921*%
%ADD188C,0.05906*%
%ADD189R,0.05709X0.05709*%
%ADD190R,0.04134X0.04134*%
%ADD191R,0.05906X0.05906*%
%ADD192C,0.05906*%
%ADD193R,0.05906X0.05906*%
%ADD194R,0.04528X0.04921*%
%ADD195C,0.06102*%
%ADD196R,0.06102X0.06102*%
%ADD197R,0.05315X0.05315*%
%ADD198C,0.05118*%
%ADD199C,0.06102*%
%ADD200O,0.05118X0.05118*%
%ADD201C,0.05512*%
%ADD202C,0.05000*%
%ADD203C,0.06200*%
%ADD204R,0.05906X0.05906*%
%ADD205R,0.04331X0.04528*%
%ADD206C,0.06500*%
%ADD207R,0.06500X0.06500*%
%ADD208R,0.05709X0.05709*%
%ADD209R,0.06200X0.06200*%
%ADD210C,0.06299*%
%ADD211R,0.06299X0.06299*%
%ADD212R,0.05709X0.05709*%
%ADD213C,0.04331*%
%ADD214R,0.05315X0.05315*%
%ADD215R,0.05000X0.05000*%
%ADD216R,0.05315X0.05315*%
%ADD217C,0.05315*%
%ADD218R,0.05315X0.05315*%
%ADD219C,0.07874*%
%ADD220C,0.04134*%
%ADD221O,0.04331X0.03937*%
%ADD222O,0.04331X0.03937*%
%ADD223R,0.05118X0.05118*%
%ADD224C,0.06299*%
%ADD225C,0.05709*%
%ADD226R,0.04134X0.04134*%
%ADD227O,0.14567X0.05000*%
%ADD228C,0.12205*%
%ADD229C,0.12205*%
%ADD230C,0.05118*%
%ADD231C,0.08268*%
%ADD232C,0.08268*%
%ADD233C,0.05512*%
%ADD234O,0.15354X0.05906*%
%ADD235O,0.11811X0.06221*%
%ADD236R,0.04134X0.04134*%
%ADD237C,0.22441*%
%ADD238C,0.02165*%
%ADD239C,0.01969*%
%ADD240C,0.02165*%
%ADD241C,0.02559*%
%ADD242C,0.02047*%
%ADD243C,0.02362*%
%ADD244C,0.02756*%
%ADD245C,0.01890*%
%ADD246C,0.01890*%
%ADD247C,0.03543*%
%ADD248C,0.02559*%
%ADD249C,0.02047*%
%ADD250C,0.03543*%
%ADD251C,0.03150*%
%ADD252C,0.02756*%
%ADD253R,0.24200X0.05950*%
%ADD254R,0.23900X0.06050*%
%ADD255R,0.05911X0.06527*%
%ADD256R,0.06150X0.03200*%
%ADD257R,0.09050X0.02750*%
%ADD258R,0.05216X0.03337*%
%ADD259R,0.06800X0.01900*%
%ADD260R,0.04950X0.07100*%
%ADD261R,0.07750X0.02200*%
%ADD262R,0.03719X0.04789*%
%ADD263R,0.06700X0.02700*%
%ADD264R,0.14425X0.06794*%
%ADD265R,0.11550X0.03200*%
%ADD266R,0.32600X0.02950*%
%ADD267R,0.33585X0.02339*%
%ADD268R,0.05859X0.04781*%
%ADD269R,0.02737X0.07120*%
%ADD270R,0.04000X0.04100*%
%ADD271C,0.02800*%
%ADD272R,0.07309X0.09456*%
%ADD273R,0.24200X0.06150*%
%ADD274R,0.11000X0.05750*%
%ADD275R,0.13400X0.11100*%
%ADD276R,0.03300X0.01150*%
%ADD277R,0.23000X0.05750*%
%ADD278R,0.24600X0.06350*%
%ADD279R,0.24350X0.06500*%
%ADD280R,0.02900X0.09800*%
%ADD281R,0.21100X0.02900*%
%ADD282R,0.03178X0.10400*%
%ADD283R,0.19100X0.03150*%
%ADD284R,0.07500X0.04250*%
%ADD285R,0.11750X0.02150*%
%ADD286R,0.19182X0.02374*%
%ADD287R,0.02300X0.10000*%
%ADD288R,0.03150X0.11085*%
%ADD289R,0.34850X0.02950*%
%ADD290R,0.33337X0.02093*%
%ADD291R,0.03150X0.04921*%
%ADD292R,0.01772X0.03937*%
%ADD293R,0.01260X0.03347*%
%ADD294R,0.01693X0.02598*%
%ADD295R,0.07087X0.12992*%
%ADD296R,0.04921X0.03150*%
%ADD297O,0.06500X0.01378*%
%ADD298O,0.06772X0.01378*%
%ADD299C,0.02598*%
%ADD300O,0.03150X0.02800*%
%ADD301R,0.04921X0.03150*%
%ADD302R,0.03937X0.05118*%
%ADD303R,0.11811X0.08268*%
%ADD304R,0.07087X0.12992*%
%ADD305O,0.01260X0.02992*%
%ADD306R,0.03543X0.03937*%
%ADD307R,0.16929X0.08661*%
%ADD308R,0.01772X0.03937*%
%ADD309C,0.02598*%
%ADD310R,0.03150X0.04921*%
%ADD311R,0.22050X0.22150*%
%ADD312R,0.08800X0.13800*%
%ADD313R,0.06850X0.09350*%
%ADD314R,0.06700X0.06650*%
%ADD315R,0.04883X0.10114*%
%ADD316R,0.04200X0.08450*%
%ADD317R,0.05300X0.06350*%
%ADD318R,0.01850X0.01750*%
%ADD319R,0.08350X0.05850*%
%ADD320R,0.08862X0.08774*%
%ADD321R,1.37250X0.04150*%
%ADD322R,0.05150X0.04000*%
%ADD323R,0.02150X0.01200*%
%ADD324R,0.03900X0.03450*%
%ADD325R,0.06050X0.17150*%
%ADD326R,0.06219X0.12738*%
%ADD327R,0.01550X0.05150*%
%ADD328R,0.05500X0.03350*%
%ADD329R,0.00850X0.01038*%
%ADD330R,0.01550X0.01750*%
%ADD331C,0.00550*%
%ADD332C,0.00450*%
%ADD333C,0.01972*%
%ADD334C,0.01972*%
%ADD335O,0.01460X0.03743*%
%ADD336R,0.03665X0.03665*%
%ADD337R,0.04137X0.05476*%
%ADD338R,0.05476X0.04137*%
%ADD339R,0.03665X0.03665*%
%ADD340R,0.02484X0.02562*%
%ADD341O,0.01381X0.04137*%
%ADD342O,0.04137X0.01381*%
%ADD343O,0.04137X0.01381*%
%ADD344R,0.02562X0.02484*%
%ADD345R,0.02956X0.03743*%
%ADD346O,0.01381X0.06499*%
%ADD347O,0.06106X0.01460*%
%ADD348O,0.01460X0.06106*%
%ADD349C,0.01224*%
%ADD350O,0.01381X0.06499*%
%ADD351R,0.02562X0.02484*%
%ADD352R,0.04800X0.03400*%
%ADD353C,0.03350*%
%ADD354R,0.02877X0.06499*%
%ADD355O,0.01184X0.03192*%
%ADD356R,0.06499X0.07484*%
%ADD357O,0.01106X0.04137*%
%ADD358O,0.01499X0.03547*%
%ADD359O,0.03822X0.01224*%
%ADD360O,0.01499X0.08861*%
%ADD361R,0.10043X0.13192*%
%ADD362O,0.05515X0.01854*%
%ADD363R,0.04137X0.01972*%
%ADD364O,0.01381X0.03192*%
%ADD365R,0.02365X0.05515*%
%ADD366O,0.01578X0.06700*%
%ADD367R,0.01499X0.02956*%
%ADD368R,0.02956X0.01499*%
%ADD369O,0.04137X0.01106*%
%ADD370R,0.05318X0.06106*%
%ADD371R,0.05594X0.06696*%
%ADD372O,0.07287X0.01775*%
%ADD373O,0.04137X0.01460*%
%ADD374O,0.01460X0.04137*%
%ADD375R,0.07484X0.06499*%
%ADD376R,0.05397X0.02562*%
%ADD377O,0.05200X0.01775*%
%ADD378R,0.08074X0.03035*%
%ADD379O,0.01775X0.06106*%
%ADD380R,0.07208X0.13192*%
%ADD381R,0.02365X0.05515*%
%ADD382R,0.03743X0.02956*%
%ADD383O,0.03192X0.01184*%
%ADD384R,0.05515X0.02365*%
%ADD385C,0.01854*%
%ADD386C,0.01381*%
%ADD387O,0.01775X0.05200*%
%ADD388R,0.05200X0.05279*%
%ADD389R,0.14373X0.10436*%
%ADD390R,0.12011X0.08468*%
%ADD391R,0.04137X0.05476*%
%ADD392O,0.01184X0.03586*%
%ADD393O,0.01381X0.03800*%
%ADD394R,0.08074X0.08468*%
%ADD395R,0.10436X0.14373*%
%ADD396R,0.01775X0.03350*%
%ADD397R,0.03400X0.04800*%
%ADD398R,0.05279X0.05200*%
%ADD399O,0.01775X0.05633*%
%ADD400R,0.02562X0.05397*%
%ADD401O,0.01854X0.06302*%
%ADD402R,0.10436X0.05318*%
%ADD403R,0.08665X0.08074*%
%ADD404R,0.06578X0.03035*%
%ADD405R,0.08665X0.08271*%
%ADD406R,0.08074X0.04924*%
%ADD407O,0.03586X0.01184*%
%ADD408R,0.06106X0.05318*%
%ADD409O,0.01460X0.04137*%
%ADD410O,0.04137X0.01460*%
%ADD411R,0.06381X0.07365*%
%ADD412R,0.02090X0.04137*%
%ADD413R,0.03153X0.04137*%
%ADD414R,0.02484X0.02562*%
%ADD415R,0.03665X0.03665*%
%ADD416O,0.08300X0.03200*%
%ADD417R,0.03350X0.01775*%
%ADD418R,0.05948X0.04609*%
%ADD419C,0.01624*%
%ADD420O,0.01578X0.06972*%
%ADD421O,0.04137X0.01696*%
%ADD422O,0.08800X0.03200*%
%ADD423R,0.06893X0.03035*%
%ADD424O,0.03800X0.01381*%
%ADD425R,0.14373X0.10436*%
%ADD426R,0.08074X0.07877*%
%ADD427R,0.07484X0.06499*%
%ADD428O,0.07287X0.01775*%
%ADD429O,0.04137X0.01696*%
%ADD430O,0.03547X0.01499*%
%ADD431R,0.08074X0.07877*%
%ADD432R,0.08861X0.10043*%
%ADD433R,0.03665X0.03665*%
%ADD434R,0.17700X0.17700*%
%ADD435R,0.13979X0.10043*%
%ADD436R,0.05476X0.04137*%
%ADD437O,0.01381X0.03940*%
%ADD438O,0.04000X0.01381*%
%ADD439O,0.02877X0.08271*%
%ADD440O,0.01460X0.05900*%
%ADD441O,0.01381X0.11027*%
%ADD442R,0.06696X0.06696*%
%ADD443R,0.08074X0.08074*%
%ADD444R,0.07287X0.07287*%
%ADD445R,0.12405X0.08468*%
%ADD446R,0.12405X0.01893*%
%ADD447R,0.10043X0.06972*%
%ADD448R,0.20672X0.13979*%
%ADD449C,0.01224*%
%ADD450C,0.01400*%
%ADD451R,0.06696X0.06696*%
%ADD452R,0.13979X0.13979*%
%ADD453R,0.13979X0.10043*%
%ADD454R,0.17129X0.08861*%
%ADD455R,0.04137X0.01972*%
G04:AMPARAMS|DCode=456|XSize=41.37mil|YSize=54.76mil|CornerRadius=0mil|HoleSize=0mil|Usage=FLASHONLY|Rotation=90.000|XOffset=0mil|YOffset=0mil|HoleType=Round|Shape=Octagon|*
%AMOCTAGOND456*
4,1,8,-0.02738,-0.01034,-0.02738,0.01034,-0.01704,0.02069,0.01704,0.02069,0.02738,0.01034,0.02738,-0.01034,0.01704,-0.02069,-0.01704,-0.02069,-0.02738,-0.01034,0.0*
%
%ADD456OCTAGOND456*%

%ADD457C,0.04200*%
%ADD458R,0.05712X0.04137*%
%ADD459R,0.11421X0.14176*%
%ADD460C,0.01460*%
%ADD461R,0.04924X0.11224*%
%ADD462C,0.01972*%
%ADD463O,0.02562X0.14767*%
%ADD464C,0.04137*%
%ADD465O,0.04728X0.05121*%
%ADD466C,0.04531*%
%ADD467C,0.04334*%
%ADD468C,0.05909*%
%ADD469C,0.08674*%
%ADD470C,0.05515*%
%ADD471O,0.04728X0.05121*%
%ADD472C,0.06106*%
%ADD473R,0.05909X0.05909*%
%ADD474R,0.04334X0.04334*%
%ADD475R,0.06106X0.06106*%
%ADD476C,0.06106*%
%ADD477R,0.06106X0.06106*%
%ADD478R,0.04728X0.05121*%
%ADD479C,0.06302*%
%ADD480R,0.06302X0.06302*%
%ADD481R,0.05515X0.05515*%
%ADD482C,0.05318*%
%ADD483C,0.06302*%
%ADD484O,0.05318X0.05318*%
%ADD485C,0.05712*%
%ADD486C,0.05800*%
%ADD487C,0.07000*%
%ADD488R,0.06106X0.06106*%
%ADD489R,0.04531X0.04728*%
%ADD490C,0.07300*%
%ADD491R,0.07300X0.07300*%
%ADD492C,0.06509*%
%ADD493R,0.06509X0.06509*%
%ADD494R,0.07000X0.07000*%
%ADD495C,0.06499*%
%ADD496R,0.06499X0.06499*%
%ADD497R,0.05909X0.05909*%
%ADD498C,0.04531*%
%ADD499R,0.05515X0.05515*%
%ADD500R,0.05800X0.05800*%
%ADD501R,0.05515X0.05515*%
%ADD502C,0.05515*%
%ADD503R,0.05515X0.05515*%
%ADD504R,0.06509X0.06509*%
%ADD505C,0.08074*%
%ADD506C,0.08074*%
%ADD507C,0.04334*%
%ADD508O,0.04531X0.04137*%
%ADD509O,0.04531X0.04137*%
%ADD510R,0.05318X0.05318*%
%ADD511C,0.06499*%
%ADD512C,0.05909*%
%ADD513R,0.04334X0.04334*%
%ADD514O,0.14767X0.05200*%
%ADD515C,0.12405*%
%ADD516C,0.12405*%
%ADD517C,0.05318*%
%ADD518C,0.08468*%
%ADD519C,0.08468*%
%ADD520C,0.05712*%
%ADD521O,0.15554X0.06106*%
%ADD522O,0.12011X0.06421*%
%ADD523R,0.04334X0.04334*%
%ADD524C,0.22641*%
%ADD525R,0.03350X0.05121*%
%ADD526R,0.01972X0.04137*%
%ADD527R,0.01460X0.03547*%
%ADD528R,0.01893X0.02798*%
%ADD529R,0.07287X0.13192*%
%ADD530R,0.05121X0.03350*%
%ADD531O,0.06700X0.01578*%
%ADD532O,0.06972X0.01578*%
%ADD533C,0.02798*%
%ADD534O,0.03350X0.03000*%
%ADD535C,0.02365*%
%ADD536R,0.05121X0.03350*%
%ADD537R,0.04137X0.05318*%
%ADD538R,0.12011X0.08468*%
%ADD539R,0.07287X0.13192*%
%ADD540O,0.01460X0.03192*%
%ADD541R,0.03743X0.04137*%
%ADD542R,0.17129X0.08861*%
%ADD543R,0.01972X0.04137*%
%ADD544C,0.02798*%
%ADD545R,0.03350X0.05121*%
D22*
X4425500Y2269700D02*
D03*
X4139600Y1793600D02*
D03*
X4118700Y1844000D02*
D03*
X4118500Y1837900D02*
D03*
X4394950Y1857000D02*
D03*
X4383150Y1765400D02*
D03*
X4381450Y1771300D02*
D03*
X4039400Y2283100D02*
D03*
X4133900Y1793600D02*
D03*
X4112500Y1802200D02*
D03*
Y1796400D02*
D03*
X4368900Y2373300D02*
D03*
X4419800Y2269700D02*
D03*
X4320200Y2525000D02*
D03*
X4516300Y1774600D02*
D03*
Y1769100D02*
D03*
X4516200Y1762700D02*
D03*
X4442900Y1797000D02*
D03*
X4462600Y1802600D02*
D03*
X4113000Y1844000D02*
D03*
X4115600Y1817900D02*
D03*
X4314500Y2525000D02*
D03*
X4388850Y1765400D02*
D03*
X4344850Y1804400D02*
D03*
X4363200Y2373300D02*
D03*
X3961500Y2135400D02*
D03*
X4045100Y2283100D02*
D03*
X4339150Y1804400D02*
D03*
X4106800Y1802200D02*
D03*
Y1796400D02*
D03*
X4522000Y1774600D02*
D03*
X4387150Y1771300D02*
D03*
X4522000Y1769100D02*
D03*
X4521900Y1762700D02*
D03*
X4437200Y1797000D02*
D03*
X4456900Y1802600D02*
D03*
X4400650Y1857000D02*
D03*
X4112800Y1837900D02*
D03*
X4121300Y1817900D02*
D03*
X3955800Y2135400D02*
D03*
D23*
X3980600Y1942500D02*
D03*
X4064900Y2527600D02*
D03*
X4372600Y2486000D02*
D03*
X4372500Y2478800D02*
D03*
X4407000Y2385900D02*
D03*
X4040400Y2563900D02*
D03*
X4040800Y2556500D02*
D03*
X4040400Y2548600D02*
D03*
Y2541400D02*
D03*
X4040800Y2534000D02*
D03*
X4083200Y1939900D02*
D03*
X4083700Y1932200D02*
D03*
X4181100Y1939800D02*
D03*
X4181300Y1932300D02*
D03*
X4385800Y2380200D02*
D03*
X4392500Y2374000D02*
D03*
X3940800Y2547600D02*
D03*
X3940700Y2540100D02*
D03*
X3940800Y2532600D02*
D03*
Y2525000D02*
D03*
X3971700Y2521600D02*
D03*
X4039900Y2353600D02*
D03*
X4040000Y2313700D02*
D03*
X4064100Y2328900D02*
D03*
X4064200Y2321300D02*
D03*
X4064300Y2313700D02*
D03*
X4040000Y2343800D02*
D03*
X4040400Y2336400D02*
D03*
X4040000Y2328600D02*
D03*
X4040200Y2321400D02*
D03*
X4064200Y2336200D02*
D03*
X4081400Y2343600D02*
D03*
X4081100Y2336500D02*
D03*
X4081600Y2328900D02*
D03*
X4081300Y2321200D02*
D03*
X4081100Y2313400D02*
D03*
X4064200Y2344200D02*
D03*
Y2351200D02*
D03*
X3890100Y1806900D02*
D03*
X4047600Y2306400D02*
D03*
X4047500Y2291300D02*
D03*
Y2298800D02*
D03*
X4064200Y2306000D02*
D03*
Y2298700D02*
D03*
X4064500Y2291300D02*
D03*
X4064400Y2283500D02*
D03*
X4074200Y2306100D02*
D03*
Y2298800D02*
D03*
X4074100Y2291100D02*
D03*
X4052700Y2058700D02*
D03*
X4052900Y2073700D02*
D03*
X4011100D02*
D03*
X4011000Y2058600D02*
D03*
X4093700Y2073400D02*
D03*
X4094000Y2058700D02*
D03*
X4137600Y2073400D02*
D03*
X4178800Y2059100D02*
D03*
X4178500Y2073900D02*
D03*
X3759900Y2008500D02*
D03*
X3703300Y2322200D02*
D03*
Y2329800D02*
D03*
Y2337300D02*
D03*
X3703000Y2344700D02*
D03*
X3877700Y1940700D02*
D03*
X3878100Y1933100D02*
D03*
X4057700Y2527600D02*
D03*
X4220800Y2525100D02*
D03*
Y2532700D02*
D03*
X3814200Y1996000D02*
D03*
X3767100Y2008500D02*
D03*
X3897300Y1806900D02*
D03*
X4040400Y2306400D02*
D03*
X4040300Y2291300D02*
D03*
Y2298800D02*
D03*
X4057000Y2306000D02*
D03*
Y2298700D02*
D03*
X4057300Y2291300D02*
D03*
X4081400Y2306100D02*
D03*
Y2298800D02*
D03*
Y2283600D02*
D03*
X4081300Y2291100D02*
D03*
X4045500Y2058700D02*
D03*
X4003900Y2073700D02*
D03*
X4003800Y2058600D02*
D03*
X4056900Y2328900D02*
D03*
X4057000Y2321300D02*
D03*
X4057100Y2313700D02*
D03*
X4047200Y2343800D02*
D03*
X4047600Y2336400D02*
D03*
X4047200Y2328600D02*
D03*
X4047400Y2321400D02*
D03*
X4057000Y2336200D02*
D03*
X4074200Y2343600D02*
D03*
X4073900Y2336500D02*
D03*
X4074100Y2321200D02*
D03*
X4073900Y2313400D02*
D03*
X4074100Y2351300D02*
D03*
X4057000Y2344200D02*
D03*
Y2351200D02*
D03*
X4086500Y2073400D02*
D03*
X4086800Y2058700D02*
D03*
X4130400Y2073400D02*
D03*
X4171600Y2059100D02*
D03*
X4171300Y2073900D02*
D03*
X4213600Y2525100D02*
D03*
X4047600Y2563900D02*
D03*
X4048000Y2556500D02*
D03*
X4047600Y2548600D02*
D03*
X3933600Y2547600D02*
D03*
X4047600Y2541400D02*
D03*
X3933500Y2540100D02*
D03*
X4048000Y2534000D02*
D03*
X3933600Y2532600D02*
D03*
X4047600Y2526500D02*
D03*
X3933600Y2525000D02*
D03*
X3978900Y2521600D02*
D03*
X4379800Y2486000D02*
D03*
X4379700Y2478800D02*
D03*
X4399800Y2385900D02*
D03*
X4378600Y2380200D02*
D03*
X4399700Y2374000D02*
D03*
X4047100Y2353600D02*
D03*
X3696100Y2322200D02*
D03*
Y2329800D02*
D03*
Y2337300D02*
D03*
X3695800Y2344700D02*
D03*
X4047200Y2313700D02*
D03*
X3910500Y2298000D02*
D03*
X3973400Y1942500D02*
D03*
X3870500Y1940700D02*
D03*
X4076000Y1939900D02*
D03*
X4173900Y1939800D02*
D03*
X3973300Y1935000D02*
D03*
X3870900Y1933100D02*
D03*
X4076500Y1932200D02*
D03*
X4174100Y1932300D02*
D03*
X4213600Y2532700D02*
D03*
X4130100Y2059400D02*
D03*
D24*
X4344800Y2503300D02*
D03*
X3978900Y1904100D02*
D03*
X4413700Y2386700D02*
D03*
X3690900Y2241900D02*
D03*
X3683600Y2242000D02*
D03*
X4022900Y2606600D02*
D03*
X4037900D02*
D03*
X4030300Y2606500D02*
D03*
X3983000Y2586600D02*
D03*
X3975400Y2586400D02*
D03*
X3967900Y2586600D02*
D03*
X4179800Y1901900D02*
D03*
X4082300Y1901300D02*
D03*
X3982100Y2122500D02*
D03*
X4028400Y2122300D02*
D03*
X3974700D02*
D03*
X4021100Y2123100D02*
D03*
X4575100Y1784200D02*
D03*
X3935900Y2315200D02*
D03*
X3928400D02*
D03*
X3920900Y2314900D02*
D03*
X3913700Y2315000D02*
D03*
X3876300Y1902400D02*
D03*
X3869000Y1902200D02*
D03*
X3778200Y1886700D02*
D03*
X3786100D02*
D03*
X3771000Y1886800D02*
D03*
X3763400D02*
D03*
X4405700Y2428400D02*
D03*
X4575100Y1777000D02*
D03*
X3982100Y2115300D02*
D03*
X4028400Y2115100D02*
D03*
X3974700D02*
D03*
X4021100Y2115900D02*
D03*
X3989600Y2115400D02*
D03*
X4022900Y2599400D02*
D03*
X4037900D02*
D03*
X4030300Y2599300D02*
D03*
X3983000Y2579400D02*
D03*
X3975400Y2579200D02*
D03*
X3967900Y2579400D02*
D03*
X4344800Y2510500D02*
D03*
X4405700Y2435600D02*
D03*
X4413700Y2379500D02*
D03*
X3935900Y2308000D02*
D03*
X3928400D02*
D03*
X3920900Y2307700D02*
D03*
X3913700Y2307800D02*
D03*
X3690900Y2234700D02*
D03*
X3683600Y2234800D02*
D03*
X3978900Y1911300D02*
D03*
X3971500Y1911400D02*
D03*
X3876300Y1909600D02*
D03*
X3869000Y1909400D02*
D03*
X4082300Y1908500D02*
D03*
X4074900Y1908700D02*
D03*
X4179800Y1909100D02*
D03*
X4172700D02*
D03*
X3778200Y1893900D02*
D03*
X3786100D02*
D03*
X3771000Y1894000D02*
D03*
X3763400D02*
D03*
D25*
X3855600Y1853400D02*
D03*
X3670400Y2320000D02*
D03*
X4337800Y2503700D02*
D03*
X4370700Y2499000D02*
D03*
X4423100Y2372700D02*
D03*
X4389250Y1869400D02*
D03*
X4398650Y1862900D02*
D03*
X4031400Y2306400D02*
D03*
X4389250Y1875100D02*
D03*
X4495100Y1806100D02*
D03*
X4489200D02*
D03*
X4483300D02*
D03*
X4355350Y1833600D02*
D03*
X4379750Y1760100D02*
D03*
X3855600Y1847700D02*
D03*
X3973300Y2133600D02*
D03*
X4398650Y1868600D02*
D03*
X4379750Y1754400D02*
D03*
X4370700Y2504700D02*
D03*
X4423100Y2367000D02*
D03*
X4337800Y2509400D02*
D03*
X4031400Y2312100D02*
D03*
X4091200Y2289900D02*
D03*
X3973300Y2127900D02*
D03*
X3670400Y2325700D02*
D03*
X4495100Y1800400D02*
D03*
X4489200D02*
D03*
X4483300D02*
D03*
X4355350Y1827900D02*
D03*
D26*
X3846400Y1860000D02*
D03*
X3751513Y1856500D02*
D03*
X3751313Y1821800D02*
D03*
X3748212Y1856500D02*
D03*
X3754813Y1821800D02*
D03*
X3749713Y1786300D02*
D03*
Y1782300D02*
D03*
X3721012Y1761400D02*
D03*
X3718013Y1761500D02*
D03*
X3714513D02*
D03*
X4352150Y1874900D02*
D03*
X4517700Y2650400D02*
D03*
Y2654500D02*
D03*
X4517400Y2624500D02*
D03*
X4517800Y2620600D02*
D03*
X4512700Y2612800D02*
D03*
X4512800Y2608700D02*
D03*
X4463800Y2624300D02*
D03*
X4463700Y2628000D02*
D03*
X4517900Y2590600D02*
D03*
X4517700Y2594700D02*
D03*
X4517900Y2560500D02*
D03*
X4518400Y2564400D02*
D03*
X4372600Y2567900D02*
D03*
X4368800D02*
D03*
X4372600Y2563700D02*
D03*
X3948800Y2574600D02*
D03*
X3952000D02*
D03*
X4014100Y2588250D02*
D03*
X4017300Y2588200D02*
D03*
X4512800Y2508400D02*
D03*
X4512500Y2512600D02*
D03*
X4434100Y2275700D02*
D03*
X4066300Y2615100D02*
D03*
X4511100Y2530000D02*
D03*
X4447000Y2268000D02*
D03*
Y2264300D02*
D03*
X4445500Y2256500D02*
D03*
X3863200Y1859300D02*
D03*
X4079500Y2368600D02*
D03*
Y2364600D02*
D03*
X3944600Y1931200D02*
D03*
X3981200Y1929300D02*
D03*
X3944900Y1921200D02*
D03*
X3944500Y1926700D02*
D03*
X4291700Y2316900D02*
D03*
Y2313000D02*
D03*
X4307500Y2318900D02*
D03*
X4344700Y2313400D02*
D03*
X4064000Y2533900D02*
D03*
X4341950Y1764200D02*
D03*
X4345350Y1780300D02*
D03*
X4341850D02*
D03*
X4493100Y2407400D02*
D03*
X4373600Y2413700D02*
D03*
X4370100D02*
D03*
X4460300Y2624300D02*
D03*
X4513900Y2624500D02*
D03*
X4460200Y2628000D02*
D03*
X4514200Y2650400D02*
D03*
X4514300Y2620600D02*
D03*
X4514200Y2654500D02*
D03*
Y2594700D02*
D03*
X4509200Y2612800D02*
D03*
X4509300Y2608700D02*
D03*
X4514400Y2590600D02*
D03*
Y2560500D02*
D03*
X4514900Y2564400D02*
D03*
X4509300Y2508400D02*
D03*
X4509000Y2512600D02*
D03*
X4507600Y2530000D02*
D03*
X3866700Y1859300D02*
D03*
X3870500D02*
D03*
X4369700Y2554700D02*
D03*
X4187400Y2394100D02*
D03*
Y2390100D02*
D03*
X4431300Y2366600D02*
D03*
X4187700Y2399400D02*
D03*
X4348200Y2313400D02*
D03*
X4484500Y2476100D02*
D03*
X4436300Y2485300D02*
D03*
Y2481100D02*
D03*
X4449000Y2256500D02*
D03*
X4449100Y2252700D02*
D03*
X4475900Y2416400D02*
D03*
X4499100Y2424700D02*
D03*
X4467500Y2432000D02*
D03*
X4447900Y2443500D02*
D03*
X4472900Y2395200D02*
D03*
X4494200Y2386900D02*
D03*
X4482500Y2422200D02*
D03*
X4476200Y2480100D02*
D03*
X4461300Y2429900D02*
D03*
X4493100Y2437700D02*
D03*
X4496300Y2440100D02*
D03*
X4476400Y2475900D02*
D03*
X4507200Y2383200D02*
D03*
X4484400Y2392600D02*
D03*
X4494200Y2383100D02*
D03*
X4479000Y2379400D02*
D03*
X4471500Y2437500D02*
D03*
X4474900Y2437600D02*
D03*
X4478900Y2371600D02*
D03*
X4479100Y2375500D02*
D03*
X3923000Y2092300D02*
D03*
X4320550Y1813300D02*
D03*
X4313650Y1810200D02*
D03*
X4141400Y1826600D02*
D03*
X4141300Y1812400D02*
D03*
X4521600Y2235900D02*
D03*
X4365300Y2567900D02*
D03*
X4364900Y2578400D02*
D03*
X4306650Y1827200D02*
D03*
X4366200Y2558700D02*
D03*
Y2554700D02*
D03*
X4575700Y1802200D02*
D03*
X4387000Y1864800D02*
D03*
X4386850Y1860800D02*
D03*
X4386750Y1856900D02*
D03*
X4458600Y2494300D02*
D03*
X4381650Y1780700D02*
D03*
Y1776600D02*
D03*
X4359950Y1840800D02*
D03*
X4363150Y1778300D02*
D03*
X4405300Y1795000D02*
D03*
X4350850Y1776200D02*
D03*
X4350900Y1772200D02*
D03*
X4351250Y1780300D02*
D03*
X4353650Y1840500D02*
D03*
Y1803300D02*
D03*
X4348650Y1874900D02*
D03*
X4342200Y1783500D02*
D03*
X4345700D02*
D03*
X4301300Y1868400D02*
D03*
X4309750Y1868300D02*
D03*
X4301450Y1864700D02*
D03*
X4310250Y1864400D02*
D03*
X4297900Y1848400D02*
D03*
X4310150Y1827200D02*
D03*
X4317150Y1810200D02*
D03*
X4310150Y1797600D02*
D03*
X4323950Y1793700D02*
D03*
X4310100Y1860500D02*
D03*
X4298150Y1860600D02*
D03*
X4310250Y1856400D02*
D03*
X4301200Y1856500D02*
D03*
X4297900Y1844400D02*
D03*
X4325550Y1826800D02*
D03*
X4316750Y1825200D02*
D03*
X4324050Y1813300D02*
D03*
X4324250Y1797900D02*
D03*
X4326000Y1845000D02*
D03*
X4310300Y1848400D02*
D03*
X4310200Y1844400D02*
D03*
X4310350Y1840400D02*
D03*
X4439800Y2485300D02*
D03*
X4316750Y1831200D02*
D03*
X4087300Y2360200D02*
D03*
X4083000Y2368600D02*
D03*
Y2364600D02*
D03*
X4183900Y2403400D02*
D03*
Y2394100D02*
D03*
X4184200Y2399400D02*
D03*
X3945300Y2574600D02*
D03*
X3980500Y1921200D02*
D03*
X3937800Y1942600D02*
D03*
X3937900Y1938700D02*
D03*
X4040700Y1935900D02*
D03*
X4040900Y1940000D02*
D03*
X4047800Y1928500D02*
D03*
Y1918500D02*
D03*
X4083600Y1918400D02*
D03*
X4181200D02*
D03*
X4138500Y1939900D02*
D03*
Y1936100D02*
D03*
X4145400Y1928500D02*
D03*
X4181700Y1926600D02*
D03*
X4485400Y2437800D02*
D03*
X4020800Y2588200D02*
D03*
X4010600Y2588250D02*
D03*
X4518100Y2235900D02*
D03*
X4514600D02*
D03*
X4511600Y2245400D02*
D03*
X4297800Y1868400D02*
D03*
X4507800Y2280300D02*
D03*
X4322500Y1845000D02*
D03*
X4393750Y1776800D02*
D03*
X4393650Y1780800D02*
D03*
X4400450Y1762700D02*
D03*
X4400250Y1758700D02*
D03*
X4400950Y1767300D02*
D03*
X4400750Y1771300D02*
D03*
X4310050Y1835400D02*
D03*
X4115000Y1823300D02*
D03*
X4114900Y1811800D02*
D03*
X3955500Y2574600D02*
D03*
X4488000Y2476100D02*
D03*
X4298100Y1840300D02*
D03*
X4394850Y1847500D02*
D03*
X4543100Y2183700D02*
D03*
X4297750Y1835300D02*
D03*
X4479200Y2363800D02*
D03*
X4468300Y2365800D02*
D03*
X4493200Y2411400D02*
D03*
X4489900Y2420300D02*
D03*
X4354400Y1772200D02*
D03*
X4502600Y2424700D02*
D03*
X4486000Y2422200D02*
D03*
X4479400Y2416400D02*
D03*
X3760712Y1846200D02*
D03*
X4489600Y2437700D02*
D03*
X4493400Y2420300D02*
D03*
X4496700Y2411400D02*
D03*
X4496600Y2407400D02*
D03*
X4460900Y2441600D02*
D03*
X4371000Y2541200D02*
D03*
Y2545300D02*
D03*
X4507800Y2284600D02*
D03*
X4511300Y2280300D02*
D03*
X4482700Y2363800D02*
D03*
X4471800Y2365800D02*
D03*
X4497300Y2395500D02*
D03*
X4476400Y2395200D02*
D03*
X4125400Y2584100D02*
D03*
X4511300Y2284600D02*
D03*
X4423150Y1769200D02*
D03*
X4187400Y2403400D02*
D03*
X4297700Y1856500D02*
D03*
X4313250Y1831200D02*
D03*
X4322050Y1826800D02*
D03*
X4420200Y2502200D02*
D03*
X4417500Y2498100D02*
D03*
X4297950Y1864700D02*
D03*
X4579200Y1802200D02*
D03*
X4464500Y1856100D02*
D03*
X4373250Y1837700D02*
D03*
X4373350Y1833700D02*
D03*
X4370850Y1821700D02*
D03*
X4370550Y1817900D02*
D03*
X4437600Y2275700D02*
D03*
X4371950Y1829900D02*
D03*
X4344150Y1828000D02*
D03*
X4370750Y1825800D02*
D03*
X4344150Y1823800D02*
D03*
X4365750Y1803400D02*
D03*
X4500800Y2395500D02*
D03*
X4479700Y2480100D02*
D03*
X4479900Y2475900D02*
D03*
X4163100Y1949800D02*
D03*
X4324150Y1801700D02*
D03*
X3930800Y1805900D02*
D03*
X3930700Y1809600D02*
D03*
X4159600Y1949800D02*
D03*
X4098000Y1789000D02*
D03*
Y1792900D02*
D03*
X4145500Y1924500D02*
D03*
X4304000Y2318900D02*
D03*
X3934400Y1938700D02*
D03*
X4037200Y1935900D02*
D03*
X4135000Y1936100D02*
D03*
X3934300Y1942600D02*
D03*
X4037400Y1940000D02*
D03*
X4135000Y1939900D02*
D03*
X4229700Y2129500D02*
D03*
Y2125500D02*
D03*
X4226700Y2123900D02*
D03*
X4326950Y1883700D02*
D03*
X3915900Y2092300D02*
D03*
X3919500D02*
D03*
X3941900Y2046000D02*
D03*
X4301650Y1860600D02*
D03*
X4069800Y2615100D02*
D03*
X4376100Y2567900D02*
D03*
X4503700Y2383200D02*
D03*
X4497700Y2383100D02*
D03*
X4482600Y2375500D02*
D03*
X4482400Y2371600D02*
D03*
X4288200Y2316900D02*
D03*
X3932000Y2046100D02*
D03*
X3912400Y2092300D02*
D03*
X3935500Y2046100D02*
D03*
X3938400Y2046000D02*
D03*
X3738512Y1761800D02*
D03*
X3874600Y1919300D02*
D03*
X4313250Y1825200D02*
D03*
X3849100Y1925400D02*
D03*
X3849000Y1929600D02*
D03*
X4539600Y2183700D02*
D03*
X4536100Y2183900D02*
D03*
X4532600D02*
D03*
X4306250Y1868300D02*
D03*
X4306750Y1864400D02*
D03*
X4306600Y1860500D02*
D03*
X4306750Y1856400D02*
D03*
X4306800Y1848400D02*
D03*
X4301400D02*
D03*
X4306700Y1844400D02*
D03*
X4301400D02*
D03*
X4363450Y1840800D02*
D03*
X4357150Y1840500D02*
D03*
X4306850Y1840400D02*
D03*
X4301600Y1840300D02*
D03*
X4306550Y1835400D02*
D03*
X4301250Y1835300D02*
D03*
X4320650Y1801700D02*
D03*
X4320750Y1797900D02*
D03*
X4306650Y1797600D02*
D03*
X4426650Y1769200D02*
D03*
X4338450Y1764200D02*
D03*
X4515100Y2245400D02*
D03*
X4511100Y2235900D02*
D03*
X3764212Y1846200D02*
D03*
X4376100Y2563700D02*
D03*
X4367500Y2545300D02*
D03*
Y2541200D02*
D03*
X4462100Y2494300D02*
D03*
X4481900Y2437800D02*
D03*
X4471000Y2432000D02*
D03*
X4478400Y2437600D02*
D03*
X4450500Y2268000D02*
D03*
X4445600Y2252700D02*
D03*
X4369700Y2558700D02*
D03*
X4487900Y2392600D02*
D03*
X3753213Y1786300D02*
D03*
Y1782300D02*
D03*
X4416700Y2502200D02*
D03*
X3874000Y1859300D02*
D03*
X4414000Y2498100D02*
D03*
X4370750Y1809700D02*
D03*
X4359300Y1803700D02*
D03*
X4535300Y2173000D02*
D03*
X4344250Y1816400D02*
D03*
X4370750Y1813800D02*
D03*
X4143200Y2541400D02*
D03*
X4439600Y2456900D02*
D03*
X4419300Y2453700D02*
D03*
X4439700Y2389100D02*
D03*
X4274700Y1968500D02*
D03*
X4317900Y1929900D02*
D03*
X3888700Y2021600D02*
D03*
X4060500Y2533900D02*
D03*
X4427800Y2366600D02*
D03*
X4366650Y1778300D02*
D03*
X4408800Y1795000D02*
D03*
X4350150Y1803300D02*
D03*
X4320450Y1793700D02*
D03*
X4390250Y1776800D02*
D03*
X4354350Y1776200D02*
D03*
X4404450Y1767300D02*
D03*
X4396950Y1762700D02*
D03*
X4499800Y2440100D02*
D03*
X4121900Y2584100D02*
D03*
X4439800Y2481100D02*
D03*
X4451400Y2443500D02*
D03*
X4468000Y2437500D02*
D03*
X4497700Y2386900D02*
D03*
X4482500Y2379400D02*
D03*
X4183900Y2390100D02*
D03*
X4066300Y2521300D02*
D03*
X4083800Y2360200D02*
D03*
X4288200Y2313000D02*
D03*
X4450500Y2264300D02*
D03*
X3977000Y1921200D02*
D03*
X3878100Y1919300D02*
D03*
X4080100Y1918400D02*
D03*
X4177700D02*
D03*
X4330450Y1883700D02*
D03*
X3755013Y1856500D02*
D03*
X4367250Y1809700D02*
D03*
X4362800Y1803700D02*
D03*
X4390150Y1780800D02*
D03*
X4385150Y1780700D02*
D03*
X4354750Y1780300D02*
D03*
X4385150Y1776600D02*
D03*
X4404250Y1771300D02*
D03*
X4396750Y1758700D02*
D03*
X4531800Y2173000D02*
D03*
X4390500Y1864800D02*
D03*
X4390350Y1860800D02*
D03*
X4390250Y1856900D02*
D03*
X4461000Y1856100D02*
D03*
X4391350Y1847500D02*
D03*
X4369750Y1837700D02*
D03*
X4369850Y1833700D02*
D03*
X4368450Y1829900D02*
D03*
X4137900Y1826600D02*
D03*
X4347650Y1828000D02*
D03*
X4367250Y1825800D02*
D03*
X4118500Y1823300D02*
D03*
X4347650Y1823800D02*
D03*
X4367350Y1821700D02*
D03*
X4367050Y1817900D02*
D03*
X4347750Y1816400D02*
D03*
X4367250Y1813800D02*
D03*
X4137800Y1812400D02*
D03*
X4118400Y1811800D02*
D03*
X4369250Y1803400D02*
D03*
X4233200Y2129500D02*
D03*
X4139700Y2541400D02*
D03*
X4361400Y2578400D02*
D03*
X4443100Y2456900D02*
D03*
X4422800Y2453700D02*
D03*
X4464400Y2441600D02*
D03*
X4457800Y2429900D02*
D03*
X4443200Y2389100D02*
D03*
X4233200Y2125500D02*
D03*
X4278200Y1968500D02*
D03*
X4321400Y1929900D02*
D03*
X3948100Y1931200D02*
D03*
X3852500Y1929600D02*
D03*
X3977700Y1929300D02*
D03*
X4051300Y1928500D02*
D03*
X4148900D02*
D03*
X3875300Y1927300D02*
D03*
X3948000Y1926700D02*
D03*
X4080700Y1926400D02*
D03*
X4178200Y1926600D02*
D03*
X3852600Y1925400D02*
D03*
X4149000Y1924500D02*
D03*
X3948400Y1921200D02*
D03*
X4051300Y1918500D02*
D03*
X4148700Y1917600D02*
D03*
X3842900Y1860000D02*
D03*
X3927200Y1809600D02*
D03*
X3927300Y1805900D02*
D03*
X4094500Y1792900D02*
D03*
Y1789000D02*
D03*
X4223200Y2123900D02*
D03*
X3744712Y1856500D02*
D03*
X3742013Y1761800D02*
D03*
X3892200Y2021600D02*
D03*
X3724512Y1761400D02*
D03*
X4069800Y2521300D02*
D03*
D30*
X3784000Y1912100D02*
D03*
X3750113Y1769900D02*
D03*
Y1773400D02*
D03*
X3749612Y1765700D02*
D03*
X3908000Y1825200D02*
D03*
X3912000D02*
D03*
X4151700Y1954200D02*
D03*
X4300500Y1967600D02*
D03*
X4302600Y1977100D02*
D03*
X4296600Y1969200D02*
D03*
X4317900Y1980300D02*
D03*
X4534900Y1807500D02*
D03*
Y1810800D02*
D03*
X4219900Y2092200D02*
D03*
X4226700Y2116800D02*
D03*
X3670400Y2315900D02*
D03*
X4512400Y2554100D02*
D03*
X4429600Y2576300D02*
D03*
X4425600Y2576200D02*
D03*
X4077600Y2608600D02*
D03*
X4077700Y2605600D02*
D03*
X4480500Y2407500D02*
D03*
X4146800Y2562200D02*
D03*
X4074400Y2365900D02*
D03*
X4096500Y2373600D02*
D03*
X4092600Y2373800D02*
D03*
X4097000Y2370100D02*
D03*
X4092700Y2366900D02*
D03*
X4064800Y2370100D02*
D03*
X4512400Y2550600D02*
D03*
X4508200Y2550700D02*
D03*
X4438600Y2351200D02*
D03*
X4305000Y2307100D02*
D03*
X4321800Y1980300D02*
D03*
X4101800Y1762800D02*
D03*
X4556500Y1800700D02*
D03*
X4328000Y1938200D02*
D03*
X3859500Y1857100D02*
D03*
Y1853500D02*
D03*
X4332600Y2503400D02*
D03*
X4305000Y2310600D02*
D03*
X4300900D02*
D03*
X4313700Y1976800D02*
D03*
X4302600Y1980600D02*
D03*
X4278900Y1978900D02*
D03*
X4274800D02*
D03*
X4221000Y2099300D02*
D03*
X4219900Y2095700D02*
D03*
X4317900Y1976800D02*
D03*
X4321800D02*
D03*
X4323800Y1934600D02*
D03*
X4328000Y1934800D02*
D03*
X4438600Y2347700D02*
D03*
X4345650Y1774200D02*
D03*
X4341850Y1774300D02*
D03*
X4337950D02*
D03*
X4446900Y2485100D02*
D03*
X3908000Y1828700D02*
D03*
X3912000D02*
D03*
X4371900Y2470400D02*
D03*
X4425600Y2572700D02*
D03*
X4429600Y2572800D02*
D03*
X4464700Y2543900D02*
D03*
X4460400D02*
D03*
X4416800Y2487100D02*
D03*
X4416500Y2484100D02*
D03*
X4408900Y2487400D02*
D03*
X4408600Y2484200D02*
D03*
X4412800Y2487400D02*
D03*
X4412600Y2484100D02*
D03*
X4413600Y2463600D02*
D03*
X4305700Y2509300D02*
D03*
X4286900Y2506400D02*
D03*
X4425400Y2487100D02*
D03*
X4422800Y2400800D02*
D03*
X3740900Y2642100D02*
D03*
X3722000Y2642300D02*
D03*
X4404800Y2575700D02*
D03*
X4404900Y2572700D02*
D03*
X4434500Y2432700D02*
D03*
X4431000Y2453000D02*
D03*
X4437400Y2468600D02*
D03*
X4428700Y2439300D02*
D03*
X4440400Y2419600D02*
D03*
X4483500Y2471800D02*
D03*
X4445700Y2473100D02*
D03*
X4441400Y2468600D02*
D03*
X4447500Y2377400D02*
D03*
X4479600Y2458300D02*
D03*
X4450800Y2485200D02*
D03*
X4449900Y2474300D02*
D03*
X4464500Y2371700D02*
D03*
X4444900Y2437800D02*
D03*
X4458100Y2484400D02*
D03*
X4500400Y2484100D02*
D03*
X4496100D02*
D03*
X4506300Y2401700D02*
D03*
X4502300Y2401500D02*
D03*
X4491700Y2464600D02*
D03*
X4451400Y2384300D02*
D03*
X4453000Y2373400D02*
D03*
X4461600Y2406400D02*
D03*
X4458000Y2435200D02*
D03*
X4487500Y2464400D02*
D03*
X4467400Y2484100D02*
D03*
X4463300Y2484200D02*
D03*
X4479700Y2471800D02*
D03*
X4475500Y2471700D02*
D03*
X4480500Y2404000D02*
D03*
X4521100Y2289100D02*
D03*
X4315000Y2316300D02*
D03*
X3911000Y2079800D02*
D03*
X4418300Y1775500D02*
D03*
X4418550Y1771800D02*
D03*
X4180900Y1957900D02*
D03*
X4294950Y1805100D02*
D03*
X4290950Y1805200D02*
D03*
X4124900Y1828600D02*
D03*
X4457200Y1858500D02*
D03*
X4432250Y1780500D02*
D03*
X4387950Y1850800D02*
D03*
X4383050Y1870100D02*
D03*
X4360650Y1834900D02*
D03*
X4378200Y1857200D02*
D03*
X4377950Y1870500D02*
D03*
X4418300Y1779000D02*
D03*
X4374050Y1857500D02*
D03*
X4369850Y1857200D02*
D03*
X4366050Y1870500D02*
D03*
X4365850Y1857200D02*
D03*
X4361350Y1857300D02*
D03*
X4360950Y1756300D02*
D03*
X4365150Y1756100D02*
D03*
X4361450Y1870300D02*
D03*
X4356650Y1870000D02*
D03*
X4370350Y1756300D02*
D03*
X4374550Y1756100D02*
D03*
X4356450Y1857300D02*
D03*
X4352700Y1870100D02*
D03*
X4368750Y1765000D02*
D03*
Y1774300D02*
D03*
X4364400Y1765000D02*
D03*
X4364450Y1774000D02*
D03*
X4352600Y1857300D02*
D03*
X4348700Y1870100D02*
D03*
X4348600Y1857200D02*
D03*
X4351300Y1755900D02*
D03*
X4355450Y1790100D02*
D03*
X4358800Y1761800D02*
D03*
X4355500Y1755900D02*
D03*
X4358550Y1774500D02*
D03*
X4347300Y1755300D02*
D03*
X4427850Y1780700D02*
D03*
X4344350Y1857200D02*
D03*
X4338650Y1837600D02*
D03*
X4382950Y1857300D02*
D03*
X4342505Y1837805D02*
D03*
X4329800Y1761400D02*
D03*
X4329950Y1773800D02*
D03*
X4325650Y1774000D02*
D03*
X4418550Y1768300D02*
D03*
X4330650Y1860000D02*
D03*
X4337050Y1859800D02*
D03*
X4310750Y1875600D02*
D03*
X4324550Y1822100D02*
D03*
X4314000Y1797000D02*
D03*
X4292150Y1859800D02*
D03*
X4306050Y1805200D02*
D03*
X4301950Y1804800D02*
D03*
X4313950Y1805200D02*
D03*
X4309950Y1805100D02*
D03*
X4321750Y1863200D02*
D03*
X4290950Y1801700D02*
D03*
X4097800Y1762800D02*
D03*
X4180900Y1961400D02*
D03*
X4576500Y2062000D02*
D03*
X4323050Y1871000D02*
D03*
X4521100Y2285600D02*
D03*
X4517000Y2282500D02*
D03*
X4330650Y1863500D02*
D03*
X4406150Y1866000D02*
D03*
X4534900Y1788100D02*
D03*
X4128700Y1795600D02*
D03*
X4134000Y1828700D02*
D03*
X4419200Y2409200D02*
D03*
X4398350Y1848600D02*
D03*
X4534900Y1795300D02*
D03*
Y1791600D02*
D03*
X4447500Y2373900D02*
D03*
X4413600Y2467100D02*
D03*
X4296600Y1965700D02*
D03*
X4552000Y2211200D02*
D03*
X4374150Y1870200D02*
D03*
X4434500Y2429200D02*
D03*
X4261300Y2318200D02*
D03*
X4277500Y2307000D02*
D03*
X4273600D02*
D03*
X4269000D02*
D03*
X4323700Y2299000D02*
D03*
X4471000Y2361000D02*
D03*
X4393200Y2379200D02*
D03*
X4506300Y2405200D02*
D03*
X4310750Y1879100D02*
D03*
X4470400Y2423800D02*
D03*
X4424800Y2264900D02*
D03*
X4420300Y2265300D02*
D03*
X4321750Y1866700D02*
D03*
X3760712Y1842700D02*
D03*
X4502300Y2405000D02*
D03*
X4517000Y2286000D02*
D03*
X4333850Y1773800D02*
D03*
X4471000Y2357500D02*
D03*
X4464500Y2368200D02*
D03*
X4077700Y2602100D02*
D03*
Y2599100D02*
D03*
X4370350Y1752800D02*
D03*
X4508200Y2554200D02*
D03*
X4483900Y2522300D02*
D03*
X4382950Y1860800D02*
D03*
X4499300Y2520200D02*
D03*
X4495100D02*
D03*
X4351400Y2586800D02*
D03*
X4355700D02*
D03*
X4404800Y2579200D02*
D03*
X4305700Y2512800D02*
D03*
X3784000Y1931700D02*
D03*
X4314000Y1793500D02*
D03*
X4310000Y1793200D02*
D03*
X4370250Y1870200D02*
D03*
X4457200Y1855000D02*
D03*
X4501050Y1767400D02*
D03*
X4496950D02*
D03*
X4471850Y1855900D02*
D03*
X4430700Y1856100D02*
D03*
X4463400Y1850500D02*
D03*
X4472250Y1848200D02*
D03*
X4437200Y1832900D02*
D03*
X4470100Y1826000D02*
D03*
X4462300Y1817500D02*
D03*
X4376450Y1825500D02*
D03*
X4534900Y1804000D02*
D03*
X4356550Y1809000D02*
D03*
X4352750Y1808900D02*
D03*
X4364650Y1835200D02*
D03*
X4103700Y2125800D02*
D03*
X4123000D02*
D03*
X4165200Y2125600D02*
D03*
X4373850Y1773700D02*
D03*
X4373900Y1761300D02*
D03*
X4339200Y1751900D02*
D03*
X4343300D02*
D03*
X4347300Y1751800D02*
D03*
X4300500Y1964100D02*
D03*
X4404700Y2487300D02*
D03*
X4106100Y1759200D02*
D03*
X4101800Y1759300D02*
D03*
X4097800D02*
D03*
X3859500Y1850000D02*
D03*
X3740900Y2645600D02*
D03*
X4130100Y1802700D02*
D03*
X4119800Y1802500D02*
D03*
X4129600Y1828900D02*
D03*
X3957700Y1942300D02*
D03*
X4106100Y1762700D02*
D03*
X4158500Y1939700D02*
D03*
X4165500Y1903100D02*
D03*
X4351300Y1752400D02*
D03*
X4060800Y1939600D02*
D03*
X4067800Y1902600D02*
D03*
X4355500Y1752400D02*
D03*
X3784000Y1928200D02*
D03*
Y1925100D02*
D03*
X4475500Y2461200D02*
D03*
X4471600D02*
D03*
X4226700Y2120300D02*
D03*
X4322850Y1881400D02*
D03*
X4360950Y1752800D02*
D03*
X4034900Y2126000D02*
D03*
X3995300Y2126100D02*
D03*
X4556500Y1804200D02*
D03*
X3945600Y2047100D02*
D03*
X4077600Y2612100D02*
D03*
X3941300Y2056000D02*
D03*
X3945600Y2050600D02*
D03*
X3941300Y2059500D02*
D03*
X3923100Y2038000D02*
D03*
X3923900Y2057000D02*
D03*
X3927900Y2056900D02*
D03*
Y2053400D02*
D03*
X3923900Y2053500D02*
D03*
X4368750Y1761500D02*
D03*
X3858500Y1904100D02*
D03*
X3846200Y1940900D02*
D03*
X3855600Y1941000D02*
D03*
X4501200Y2152500D02*
D03*
X4322850Y1877900D02*
D03*
X4323050Y1874500D02*
D03*
X4383050Y1866600D02*
D03*
X4377950Y1867000D02*
D03*
X4374150Y1866700D02*
D03*
X4370250D02*
D03*
X4366050Y1867000D02*
D03*
X4361450Y1866800D02*
D03*
X4356650Y1866500D02*
D03*
X4352700Y1866600D02*
D03*
X4348700D02*
D03*
X4378200Y1860700D02*
D03*
X4374050Y1861000D02*
D03*
X4369850Y1860700D02*
D03*
X4365850D02*
D03*
X4361350Y1860800D02*
D03*
X4356450D02*
D03*
X4352600D02*
D03*
X4348600Y1860700D02*
D03*
X4344350D02*
D03*
X4342505Y1834305D02*
D03*
X4338650Y1834100D02*
D03*
X4313950Y1801700D02*
D03*
X4309950Y1801600D02*
D03*
X4306050Y1801700D02*
D03*
X4294950Y1801600D02*
D03*
X4432250Y1777000D02*
D03*
X4337950Y1770800D02*
D03*
X4333850Y1770300D02*
D03*
X4325650Y1770500D02*
D03*
X4329800Y1764900D02*
D03*
X4339200Y1755400D02*
D03*
X4351400Y2583300D02*
D03*
X4355700D02*
D03*
X4077700Y2595600D02*
D03*
X4460400Y2547400D02*
D03*
X4483900Y2525800D02*
D03*
X4495100Y2516700D02*
D03*
X4425400Y2490600D02*
D03*
X4416800D02*
D03*
X4408900Y2490900D02*
D03*
X4404700Y2490800D02*
D03*
X4463300Y2480700D02*
D03*
X4458100Y2480900D02*
D03*
X4500400Y2480600D02*
D03*
X4450800Y2481700D02*
D03*
X4446900Y2481600D02*
D03*
X4449900Y2477800D02*
D03*
X4483500Y2468300D02*
D03*
X4475500Y2468200D02*
D03*
X4441400Y2465100D02*
D03*
X4437400D02*
D03*
X4491700Y2468100D02*
D03*
X4487500Y2467900D02*
D03*
X4475500Y2464700D02*
D03*
X4471600D02*
D03*
X4479600Y2461800D02*
D03*
X4431000Y2456500D02*
D03*
X4444900Y2434300D02*
D03*
X4315000Y2312800D02*
D03*
X4461600Y2409900D02*
D03*
X4300900Y2307100D02*
D03*
X4274800Y1975400D02*
D03*
X3784000Y1921600D02*
D03*
X4534900Y1798800D02*
D03*
X4412800Y2490900D02*
D03*
X4221000Y2102800D02*
D03*
X4404900Y2569200D02*
D03*
X4532500Y2203600D02*
D03*
X3722000Y2645800D02*
D03*
X4286900Y2509900D02*
D03*
X4348450Y1809000D02*
D03*
X4333800Y1764900D02*
D03*
X4325750D02*
D03*
X4350450Y1835300D02*
D03*
X4346700Y1834900D02*
D03*
X4360650Y1809000D02*
D03*
X4460200Y2419100D02*
D03*
X4413000Y2411200D02*
D03*
X4501200Y2149000D02*
D03*
X4092600Y2370300D02*
D03*
X4097000Y2366600D02*
D03*
X4092700Y2363400D02*
D03*
X4184800Y2372700D02*
D03*
X4407200Y2423500D02*
D03*
X4292150Y1863300D02*
D03*
X4360650Y1831400D02*
D03*
X4324550Y1818600D02*
D03*
X4301950Y1801300D02*
D03*
X4310000Y1789700D02*
D03*
X4427850Y1777200D02*
D03*
X4345650Y1770700D02*
D03*
X4341850Y1770800D02*
D03*
X4329950Y1770300D02*
D03*
X4358800Y1765300D02*
D03*
X4343300Y1755400D02*
D03*
X3760712Y1839200D02*
D03*
X4146800Y2565700D02*
D03*
X4464700Y2547400D02*
D03*
X4499300Y2516700D02*
D03*
X4332600Y2506900D02*
D03*
X4467400Y2480600D02*
D03*
X4496100D02*
D03*
X4416500D02*
D03*
X4408600Y2480700D02*
D03*
X4445700Y2469600D02*
D03*
X4479700Y2468300D02*
D03*
X4428700Y2435800D02*
D03*
X4422800Y2397300D02*
D03*
X4451400Y2380800D02*
D03*
X4453000Y2376900D02*
D03*
X3995300Y2122600D02*
D03*
X4103700Y2122300D02*
D03*
X4123000D02*
D03*
X4165200Y2122100D02*
D03*
X4278900Y1975400D02*
D03*
X3859500Y1860600D02*
D03*
X4184800Y2376200D02*
D03*
X4576500Y2058500D02*
D03*
X4552000Y2207700D02*
D03*
X4412600Y2480600D02*
D03*
X4532500Y2207100D02*
D03*
X3923100Y2034500D02*
D03*
X4356550Y1812500D02*
D03*
X4352750Y1812400D02*
D03*
X4348450Y1812500D02*
D03*
X4130100Y1806200D02*
D03*
X4119800Y1806000D02*
D03*
X4128700Y1792100D02*
D03*
X4355450Y1786600D02*
D03*
X4368750Y1770800D02*
D03*
X4364450Y1770500D02*
D03*
X4358550Y1771000D02*
D03*
X4373850Y1770200D02*
D03*
X4501050Y1763900D02*
D03*
X4496950D02*
D03*
X4373900Y1764800D02*
D03*
X4333800Y1761400D02*
D03*
X4325750D02*
D03*
X4374550Y1752600D02*
D03*
X4365150D02*
D03*
X4406150Y1862500D02*
D03*
X4337050Y1856300D02*
D03*
X4471850Y1859400D02*
D03*
X4430700Y1852600D02*
D03*
X4398350Y1852100D02*
D03*
X4387950Y1847300D02*
D03*
X4463400Y1847000D02*
D03*
X4472250Y1844700D02*
D03*
X4364650Y1831700D02*
D03*
X4350450Y1831800D02*
D03*
X4346700Y1831400D02*
D03*
X4437200Y1829400D02*
D03*
X4134000Y1825200D02*
D03*
X4129600Y1825400D02*
D03*
X4124900Y1825100D02*
D03*
X4470100Y1829500D02*
D03*
X4376450Y1822000D02*
D03*
X4462300Y1821000D02*
D03*
X4360650Y1812500D02*
D03*
X3784000Y1915600D02*
D03*
X3670400Y2312400D02*
D03*
X4371900Y2466900D02*
D03*
X4458000Y2438700D02*
D03*
X4470400Y2427300D02*
D03*
X4407200Y2420000D02*
D03*
X4440400Y2423100D02*
D03*
X4460200Y2415600D02*
D03*
X4419200Y2412700D02*
D03*
X4413000Y2407700D02*
D03*
X4393200Y2382700D02*
D03*
X4064800Y2366600D02*
D03*
X4261300Y2321700D02*
D03*
X4277500Y2310500D02*
D03*
X4273600D02*
D03*
X4269000D02*
D03*
X4327800Y2295600D02*
D03*
X4323700Y2295500D02*
D03*
X4424800Y2261400D02*
D03*
X4420300Y2261800D02*
D03*
X3957700Y1938800D02*
D03*
X3855600Y1937500D02*
D03*
X3846200Y1937400D02*
D03*
X4060800Y1936100D02*
D03*
X4158500Y1936200D02*
D03*
X3964800Y1909400D02*
D03*
X3851400Y1908100D02*
D03*
X3858500Y1907600D02*
D03*
X4067800Y1906100D02*
D03*
X4165500Y1906600D02*
D03*
X4534900Y1814300D02*
D03*
X3749612Y1762200D02*
D03*
X4313700Y1980300D02*
D03*
X4096500Y2377100D02*
D03*
X4074400Y2369400D02*
D03*
X4364400Y1761500D02*
D03*
X4323800Y1938100D02*
D03*
X4151700Y1957700D02*
D03*
D31*
X3920300Y1815100D02*
D03*
X3916700D02*
D03*
X3908300Y1815200D02*
D03*
X3911900D02*
D03*
X3908300Y1821600D02*
D03*
X3911900D02*
D03*
X3916700Y1821500D02*
D03*
X3920300D02*
D03*
D37*
X3964800Y1905900D02*
D03*
X4327800Y2299100D02*
D03*
X3911000Y2076300D02*
D03*
X3851400Y1904600D02*
D03*
X4034900Y2122500D02*
D03*
X4410700Y2450700D02*
D03*
Y2447200D02*
D03*
X4462800Y2466700D02*
D03*
Y2463200D02*
D03*
X3938600Y2624500D02*
D03*
Y2621000D02*
D03*
X4351350Y1786500D02*
D03*
Y1790000D02*
D03*
D39*
X4271900Y1958500D02*
D03*
X4407100Y2467000D02*
D03*
X4428400Y2448300D02*
D03*
X4435800Y2438600D02*
D03*
X4439000Y2433400D02*
D03*
X4441200Y2440700D02*
D03*
X4443300Y2449400D02*
D03*
X4448100Y2400100D02*
D03*
X4449700Y2404100D02*
D03*
X4472200Y2406500D02*
D03*
X4465600Y2402800D02*
D03*
X4373450Y1803600D02*
D03*
X4335650Y1851850D02*
D03*
X4094600Y2351550D02*
D03*
X4099450Y2354800D02*
D03*
D41*
X3917574Y1803800D02*
D03*
Y1808000D02*
D03*
X3915606Y1803800D02*
D03*
X3915606Y1808000D02*
D03*
X3909700Y1803800D02*
D03*
Y1808000D02*
D03*
X3911668Y1803800D02*
D03*
X3911668Y1808000D02*
D03*
D42*
X3770600Y1986200D02*
D03*
X3777600Y1913800D02*
D03*
X3767550Y1913900D02*
D03*
X4330800Y1914600D02*
D03*
X3760100Y1986300D02*
D03*
X3794300Y1887200D02*
D03*
X3805300Y1887100D02*
D03*
X4318700Y1914600D02*
D03*
D54*
X4307800Y1821506D02*
D03*
Y1819537D02*
D03*
Y1817569D02*
D03*
Y1815600D02*
D03*
X4312000Y1815594D02*
D03*
Y1817563D02*
D03*
Y1819531D02*
D03*
Y1821500D02*
D03*
D56*
X4367600Y2380000D02*
D03*
X4359500D02*
D03*
D61*
X4508350Y1765100D02*
D03*
Y1753000D02*
D03*
D76*
X4176700Y2129100D02*
D03*
X4208700Y2129500D02*
D03*
X4091800Y2128900D02*
D03*
X4046100Y2129700D02*
D03*
X4007200Y2129500D02*
D03*
X4067300Y2129800D02*
D03*
X4046100Y2106300D02*
D03*
X4007200Y2106100D02*
D03*
X4067300Y2106400D02*
D03*
X4176700Y2105700D02*
D03*
X4208700Y2106100D02*
D03*
X4134600Y2105600D02*
D03*
X4091800Y2105500D02*
D03*
X3958700Y2563300D02*
D03*
D77*
X3980500Y1935000D02*
D03*
X4040400Y2526500D02*
D03*
X4081300Y2351300D02*
D03*
X3889700Y1813900D02*
D03*
X4074200Y2283600D02*
D03*
X3807000Y1996000D02*
D03*
X3903300Y2298000D02*
D03*
X3896900Y1813900D02*
D03*
X4057200Y2283500D02*
D03*
X4045700Y2073700D02*
D03*
X4074400Y2328900D02*
D03*
X4137300Y2059400D02*
D03*
D82*
X4318750Y1773100D02*
D03*
X4321350D02*
D03*
X4339250Y1871000D02*
D03*
X4336650D02*
D03*
X4339250Y1875200D02*
D03*
X4336650D02*
D03*
X4318750Y1768900D02*
D03*
X4321350D02*
D03*
D86*
X4147062Y2556600D02*
D03*
X4150723Y2546600D02*
D03*
X3889100Y2036800D02*
D03*
X3892761D02*
D03*
X4143400Y2546600D02*
D03*
X3889100Y2026800D02*
D03*
X4143400Y2556600D02*
D03*
X4150723D02*
D03*
X3896423Y2036800D02*
D03*
Y2026800D02*
D03*
D94*
X4377600Y2499800D02*
D03*
X4416100Y2372000D02*
D03*
X4365200Y2594100D02*
D03*
X4373400Y2593900D02*
D03*
X4365200Y2586000D02*
D03*
X4373400Y2585800D02*
D03*
X4377600Y2507900D02*
D03*
X4416100Y2363900D02*
D03*
D100*
X4084200Y1926400D02*
D03*
X4145200Y1917600D02*
D03*
X3878800Y1927300D02*
D03*
X4375750Y1841300D02*
D03*
X4379250D02*
D03*
X4047700Y1924300D02*
D03*
X4051200D02*
D03*
D103*
X4323950Y1789600D02*
D03*
Y1787000D02*
D03*
X4324050Y1782700D02*
D03*
Y1780100D02*
D03*
X4319750Y1789600D02*
D03*
Y1787000D02*
D03*
X4319850Y1782700D02*
D03*
Y1780100D02*
D03*
D118*
X4091200Y2284200D02*
D03*
D121*
X3971500Y1904200D02*
D03*
X4172700Y1901900D02*
D03*
X4074900Y1901500D02*
D03*
X3989600Y2122600D02*
D03*
D139*
X4046100Y2118500D02*
D03*
X4067300Y2118600D02*
D03*
X4176700Y2117900D02*
D03*
X4208700Y2118400D02*
D03*
X4134600Y2117800D02*
D03*
X4091800Y2117700D02*
D03*
X3958700Y2551100D02*
D03*
D142*
X3688000Y2647200D02*
D03*
X4577250Y1754900D02*
D03*
X3669513Y1753300D02*
D03*
D180*
X4577900Y2650850D02*
D03*
D238*
X4412600Y2474800D02*
D03*
D291*
X4234200Y2111600D02*
D03*
X4229400Y2082800D02*
D03*
X4225600Y2093100D02*
D03*
X4226700Y2111600D02*
D03*
X4072800Y2609200D02*
D03*
X4065300D02*
D03*
X4506700Y2545400D02*
D03*
X4510500Y2535100D02*
D03*
X4432500Y2350600D02*
D03*
X4109800Y1778100D02*
D03*
X4561600Y1800500D02*
D03*
X4296500Y2506100D02*
D03*
X4395100Y2568100D02*
D03*
X4428700Y2360900D02*
D03*
X4565400Y1790200D02*
D03*
X4230500Y2101300D02*
D03*
X4098900Y1767700D02*
D03*
X4102600Y1778000D02*
D03*
X4545600Y2215300D02*
D03*
X4069100Y2598900D02*
D03*
X4398800Y2578400D02*
D03*
X4300200Y2516400D02*
D03*
X4113600Y1767800D02*
D03*
X4117300Y1778100D02*
D03*
X4391300Y2578400D02*
D03*
X4538100Y2215300D02*
D03*
X4292700Y2516400D02*
D03*
X4233100Y2093100D02*
D03*
X4425000Y2350600D02*
D03*
X4541900Y2205000D02*
D03*
X4503000Y2535100D02*
D03*
X4569100Y1800500D02*
D03*
X4095100Y1778000D02*
D03*
D292*
X3731700Y1754800D02*
D03*
X3714200Y1755300D02*
D03*
X3717271D02*
D03*
X3720342D02*
D03*
X3734771Y1754800D02*
D03*
X3740913D02*
D03*
X3723413Y1755300D02*
D03*
X3737842Y1754800D02*
D03*
D293*
X3777000Y1976800D02*
D03*
D294*
X3777300Y1981100D02*
D03*
X3777282Y1972600D02*
D03*
X3782418Y1981100D02*
D03*
X3779859D02*
D03*
X3779841Y1972600D02*
D03*
X3782400D02*
D03*
D295*
X3842500Y1849500D02*
D03*
D296*
X3745412Y1843300D02*
D03*
X3755713Y1831700D02*
D03*
X4157400Y1956000D02*
D03*
X4430200Y2251700D02*
D03*
X4540000Y1806000D02*
D03*
X4431800Y2266500D02*
D03*
X4442100Y2262800D02*
D03*
X4440500Y2255500D02*
D03*
X4550300Y1809800D02*
D03*
X4550200Y1796700D02*
D03*
X3865400Y1872700D02*
D03*
X3875700Y1869000D02*
D03*
X3745412Y1835400D02*
D03*
Y1827900D02*
D03*
X4186300Y1961300D02*
D03*
X4196600Y1957600D02*
D03*
X4539900Y1792900D02*
D03*
X3755713Y1847100D02*
D03*
X3923000Y2618300D02*
D03*
X4442100Y2270300D02*
D03*
X4167700Y1959800D02*
D03*
X4157400Y1963500D02*
D03*
X3865400Y1865200D02*
D03*
X4440500Y2248000D02*
D03*
X4540000Y1813500D02*
D03*
X4550200Y1789200D02*
D03*
X3745412Y1850800D02*
D03*
X3933300Y2614600D02*
D03*
X4196600Y1965100D02*
D03*
D297*
X3743113Y1783954D02*
D03*
Y1781395D02*
D03*
Y1768600D02*
D03*
Y1778836D02*
D03*
Y1771159D02*
D03*
X3714912Y1773718D02*
D03*
Y1771159D02*
D03*
Y1794190D02*
D03*
Y1786513D02*
D03*
Y1791632D02*
D03*
Y1783954D02*
D03*
Y1778836D02*
D03*
Y1776277D02*
D03*
Y1789072D02*
D03*
Y1781395D02*
D03*
Y1799309D02*
D03*
Y1801868D02*
D03*
X3743113Y1794190D02*
D03*
X3714912Y1796750D02*
D03*
X3743113Y1791632D02*
D03*
Y1796750D02*
D03*
Y1801868D02*
D03*
Y1799309D02*
D03*
Y1773718D02*
D03*
Y1776277D02*
D03*
Y1789072D02*
D03*
Y1786513D02*
D03*
D298*
X3714912Y1768600D02*
D03*
D299*
X4147300Y1951400D02*
D03*
X4297800Y1976100D02*
D03*
X4527500Y1810100D02*
D03*
X4218800Y2087400D02*
D03*
X4221800Y2117500D02*
D03*
X4140400Y2563800D02*
D03*
X4062900Y2618500D02*
D03*
X4496000Y2545400D02*
D03*
X4516900Y2530800D02*
D03*
X4444100Y2344600D02*
D03*
X4422100Y2275700D02*
D03*
X4421300Y2256700D02*
D03*
X4423100Y2251400D02*
D03*
X4345800Y2303600D02*
D03*
X4113100Y1784500D02*
D03*
X4563850Y1808700D02*
D03*
X3864600Y1853900D02*
D03*
X4291800Y2307800D02*
D03*
X4340500Y2309700D02*
D03*
X4345600Y1777100D02*
D03*
X4486200Y2408800D02*
D03*
X4378700Y2413200D02*
D03*
X4364900Y2415400D02*
D03*
X4403600Y2463600D02*
D03*
X4409800Y2455400D02*
D03*
X4423600Y2463600D02*
D03*
X4428500Y2403300D02*
D03*
X4495000Y2665900D02*
D03*
X4430900Y2313100D02*
D03*
X4429600Y2375700D02*
D03*
X4423700Y2440100D02*
D03*
X4364500Y2304100D02*
D03*
X4442300Y2489000D02*
D03*
X4485400Y1934900D02*
D03*
X4441900Y2414800D02*
D03*
X4483500Y2458800D02*
D03*
X4449700Y2456300D02*
D03*
X4445800Y2463300D02*
D03*
X4471900Y2416400D02*
D03*
X4488700Y2425500D02*
D03*
X4454400Y2475200D02*
D03*
X4470900Y2391600D02*
D03*
X4478300Y2421800D02*
D03*
X4479800Y2485800D02*
D03*
X4473800Y2402900D02*
D03*
X4454300Y2465900D02*
D03*
X4455300Y2383900D02*
D03*
X4468900Y2410100D02*
D03*
X4451100Y2427000D02*
D03*
X4462100Y2437300D02*
D03*
X4488700Y2460500D02*
D03*
X4472400Y2484700D02*
D03*
X4495100Y2445300D02*
D03*
X4397100Y1932400D02*
D03*
X4470400Y2469300D02*
D03*
X4471900Y2474600D02*
D03*
X4510600Y2387200D02*
D03*
X4465700Y2390000D02*
D03*
X4480200Y2448600D02*
D03*
X4470400Y2372300D02*
D03*
X4469800Y2377900D02*
D03*
X3958600Y2098600D02*
D03*
X4429600Y1742600D02*
D03*
X4137100Y1803900D02*
D03*
X4144500Y1797000D02*
D03*
X4275400Y1810900D02*
D03*
X4117100Y1832100D02*
D03*
X4435900Y2175400D02*
D03*
X4463400Y1863000D02*
D03*
X4418600Y1790500D02*
D03*
X4431900Y1862800D02*
D03*
X4442900Y1856000D02*
D03*
X4431100Y1847200D02*
D03*
X4443400Y1839900D02*
D03*
X4424900Y1832600D02*
D03*
X4408000Y1815900D02*
D03*
X4441600Y1813600D02*
D03*
X4429800Y1808100D02*
D03*
X4398700Y1807200D02*
D03*
X4424700Y1790100D02*
D03*
X4430900Y1790000D02*
D03*
X4395900Y1872600D02*
D03*
X4448400Y1858800D02*
D03*
X4441000Y1850700D02*
D03*
X4413300Y1835300D02*
D03*
X4400400Y1823000D02*
D03*
X4431700Y1819800D02*
D03*
X4442600Y1818700D02*
D03*
X4446600Y1809400D02*
D03*
X4379500Y1803200D02*
D03*
X4412800Y1790900D02*
D03*
X4436893Y1779507D02*
D03*
X4384300Y1877300D02*
D03*
X4436800Y1824800D02*
D03*
X4442900Y1790100D02*
D03*
X4437300Y1789900D02*
D03*
X4441500Y1779600D02*
D03*
X4421000Y1743700D02*
D03*
X4379900Y1874600D02*
D03*
X4390400Y1794300D02*
D03*
X4374200Y1853200D02*
D03*
X4426100Y1747000D02*
D03*
X4373000Y1874300D02*
D03*
X4387100Y1759300D02*
D03*
X4367600Y1874600D02*
D03*
X4362000Y1874500D02*
D03*
X4374200Y1747300D02*
D03*
X4356800Y1874400D02*
D03*
X4368400Y1781800D02*
D03*
X4361900Y1785800D02*
D03*
X4353600Y1851000D02*
D03*
X4354200Y1845600D02*
D03*
X4354500Y1760100D02*
D03*
X4357700Y1746600D02*
D03*
X4349100Y1767800D02*
D03*
X4407300Y1790900D02*
D03*
X4345900Y1852800D02*
D03*
X4348500Y1798300D02*
D03*
X4346600Y1787900D02*
D03*
X4369500Y1843300D02*
D03*
X4345000Y1841200D02*
D03*
X4329300Y1754000D02*
D03*
X4328800Y1854100D02*
D03*
X4316200Y1867700D02*
D03*
X4315900Y1863000D02*
D03*
X4335400Y1863500D02*
D03*
X4314800Y1857200D02*
D03*
X4315700Y1874500D02*
D03*
X4284000Y1845300D02*
D03*
X4124100Y1779400D02*
D03*
X4304000Y1791200D02*
D03*
X4328600Y1793700D02*
D03*
X4291800Y1868900D02*
D03*
X4129500Y1779400D02*
D03*
X4337500Y1809700D02*
D03*
X4585400Y1932900D02*
D03*
X4129200Y1772900D02*
D03*
X4228600Y1850300D02*
D03*
X4321200Y1857000D02*
D03*
X4123200Y1772500D02*
D03*
X3978100Y2365200D02*
D03*
X4051600Y2257500D02*
D03*
X4138500Y2397600D02*
D03*
X4177800Y2394100D02*
D03*
X4142500Y2392100D02*
D03*
X4178200Y1967000D02*
D03*
X4332400Y2026200D02*
D03*
X4503600Y2247100D02*
D03*
X4288500Y1856400D02*
D03*
X4446900Y2150400D02*
D03*
X4470700Y1878100D02*
D03*
X4189400Y1750500D02*
D03*
X4512650Y2669150D02*
D03*
X4255600Y1811500D02*
D03*
X4402900Y1851800D02*
D03*
X4546800Y2132000D02*
D03*
X4344200Y1846300D02*
D03*
X4402600Y2171700D02*
D03*
X4397700Y1939800D02*
D03*
X4433400Y2169300D02*
D03*
X4480100Y2391700D02*
D03*
X4463800Y2382700D02*
D03*
X4420100Y2324900D02*
D03*
X4458900Y2364400D02*
D03*
X4522500Y2397900D02*
D03*
X4490900Y2415400D02*
D03*
X4545100Y2167100D02*
D03*
X4411100Y1929100D02*
D03*
X4349500Y2593000D02*
D03*
X4520100Y2293800D02*
D03*
X4232600Y2219500D02*
D03*
X4098900Y2562300D02*
D03*
X4083700Y2429500D02*
D03*
X4065300Y2572000D02*
D03*
X4494800Y2401000D02*
D03*
X4167500Y2583900D02*
D03*
X4102400Y2581600D02*
D03*
X4486700Y2664200D02*
D03*
X4593600Y1882300D02*
D03*
X4206000Y2397100D02*
D03*
X4164700Y2594300D02*
D03*
X4593100Y1891000D02*
D03*
X4479100Y2518600D02*
D03*
X4520000Y1859400D02*
D03*
X4560200Y1892800D02*
D03*
X4334100Y1790700D02*
D03*
X4503300Y2523400D02*
D03*
X4410500Y2188700D02*
D03*
X4429300Y2480700D02*
D03*
X4409800Y2574400D02*
D03*
X4307700Y2517600D02*
D03*
X4350600Y2470400D02*
D03*
X4485800Y2062900D02*
D03*
X4449300Y1790000D02*
D03*
X4282600Y1871800D02*
D03*
X4536400Y2131200D02*
D03*
X4472700Y1834000D02*
D03*
X4374000Y1778400D02*
D03*
X4436400Y2122300D02*
D03*
X4238300Y1773300D02*
D03*
X4275100Y1878000D02*
D03*
X4566300Y1897200D02*
D03*
X4290600Y1848900D02*
D03*
X4551900Y1894100D02*
D03*
X4330800Y1868300D02*
D03*
X3972000Y1980200D02*
D03*
X3809800Y1982400D02*
D03*
X3894900Y1916100D02*
D03*
X4403200Y2475500D02*
D03*
X4097900Y1953300D02*
D03*
X3943000Y2079200D02*
D03*
X3935700Y2077400D02*
D03*
X3806700Y2012000D02*
D03*
X4107000Y1989800D02*
D03*
X3825100Y1970500D02*
D03*
X4524700Y2126500D02*
D03*
X4474600Y2068700D02*
D03*
X4073800Y2495000D02*
D03*
X4164100Y2492500D02*
D03*
X4174500Y2493600D02*
D03*
X4117000Y2532700D02*
D03*
X4139200Y2525500D02*
D03*
X4129700Y2527800D02*
D03*
X4120900Y2564800D02*
D03*
X4128400Y2564900D02*
D03*
X4076400Y2569300D02*
D03*
X4111400Y2588000D02*
D03*
D300*
X4316100Y1952650D02*
D03*
D301*
X3933300Y2622100D02*
D03*
D302*
X4104750Y1835300D02*
D03*
X4097900D02*
D03*
D303*
X3958700Y2539900D02*
D03*
X4134600Y2129000D02*
D03*
D304*
X3824400Y1849500D02*
D03*
D305*
X3913637Y1803800D02*
D03*
Y1808000D02*
D03*
D306*
X3781000Y1976800D02*
D03*
D307*
X4007200Y2118300D02*
D03*
D308*
X3714200Y1749100D02*
D03*
X3717271D02*
D03*
X3720342D02*
D03*
X3723413D02*
D03*
X3731700Y1748600D02*
D03*
X3734771D02*
D03*
X3737842D02*
D03*
X3740913D02*
D03*
D309*
X3750200Y1885100D02*
D03*
X3766250Y1839200D02*
D03*
X3747950Y1816250D02*
D03*
X3753950Y1815950D02*
D03*
X3751800Y1791650D02*
D03*
X3750700Y1799250D02*
D03*
X3754450Y1774150D02*
D03*
X3755900Y1769500D02*
D03*
X3753800Y1764950D02*
D03*
X4121300Y2668150D02*
D03*
X3929400Y2599050D02*
D03*
X3915950Y2615400D02*
D03*
X3733100Y2656500D02*
D03*
D310*
X3727700Y2649900D02*
D03*
X3735200D02*
D03*
X3731500Y2639600D02*
D03*
M02*
