M48
;Layer_Color=9474304
;FILE_FORMAT=2:5
INCH,LZ
;TYPE=PLATED
T1F00S00C0.00787
T2F00S00C0.01181
T3F00S00C0.01575
T4F00S00C0.01968
T5F00S00C0.02362
T6F00S00C0.02756
T7F00S00C0.03150
T8F00S00C0.03200
T9F00S00C0.03543
T10F00S00C0.03937
T11F00S00C0.04000
T12F00S00C0.04724
T13F00S00C0.05118
T14F00S00C0.05906
T15F00S00C0.08661
T16F00S00C0.14173
%
T01
X45857Y186605
X459335Y185195
X45773Y184765
X45696Y184125
X45693Y18366
X4579Y18244
X457825Y18104
X4569Y180745
X45582Y180805
X455465Y18086
X45545Y179745
X45576Y17974
X45646Y179645
X456875Y178875
X456585Y178165
X456275Y17814
X45663Y177865
X455865Y17765
X455845Y17731
X45549Y177315
X455495Y177645
X45466Y17802
X45421Y17861
X454635Y17926
X45494Y17932
X45395Y18023
X454445Y181475
X453795Y181865
X456245Y18196
X45941Y182415
X45797Y177975
X45799Y17763
X458065Y177065
X458045Y176735
X45804Y17616
X456325Y17557
X45591Y17558
X45554Y175725
X454535Y17429
X454225Y1743
X453295Y173645
X453715Y187265
X4563Y187185
X45214Y187155
X45137Y18713
X45173Y18665
X452755Y18404
X453095Y182565
X45298Y18075
X45308Y179775
X45178Y180315
X451065Y18031
X45141Y18071
X45106Y181105
X451765Y18112
X451465Y182225
X450115Y182065
X449625Y182865
X44916Y182595
X44902Y183545
X448615Y183565
X448245Y183555
X44784Y18355
X446685Y183695
X44673Y18333
X44662Y183015
Y182695
X44658Y18207
X446595Y18174
X44662Y181425
X44668Y181055
X44635Y18082
X44586
X445485Y180755
X445375Y18115
X44533Y18143
X445045Y181435
X4449Y18181
X444615Y18182
X44488Y18211
X44531Y18212
X445305Y18239
X445325Y18277
X44499Y18266
Y18295
X444615Y182995
X44461Y18353
X44488Y1835
X445165Y183645
X44504Y183965
X445325Y183975
X44534Y18434
X44526Y18476
X44496Y18482
X44467Y18478
X444675Y18422
X444665Y183865
X443485Y18383
X443075Y18377
X44307Y18331
Y183015
X44337Y183
X4434Y18337
X443175Y18263
X44345Y1822
X443295Y181675
X443025Y18167
X44357Y180775
X443935Y180795
X44328Y17979
X44471Y17982
X44571Y17973
X446545Y179715
X446625Y179295
X44711Y179285
X44752Y1793
X447405Y1796
X44696Y17963
X448275Y179675
X448865Y179695
X44946Y1797
X44987Y179795
X44848Y181
X4479Y18062
X44822Y18194
X44751Y182235
X44532Y181815
X44538Y18328
X445365Y18518
X44501Y18511
X445085Y18566
X44518Y185945
X44544Y18629
X446015Y186115
X44652Y18598
X446715Y185525
X4467Y1852
Y18489
X44671Y184565
X44661Y184065
X446585Y18685
X44725Y187205
X444745Y186395
X444635Y18539
X44339Y185275
Y1849
X44335Y184515
X443365Y18567
X443735Y186155
X44195Y18689
X4408Y187295
X440855Y186265
X44024Y186715
X43937Y18651
Y18624
X43831Y18638
X43777Y186395
X4376191Y1850491
Y1847342
X4379341
X438249
X4382597Y1844249
X4379341Y1844192
Y1850491
X43791Y18381
X438235
X4382492Y1834797
X438564Y1834743
Y1837893
X43855Y18412
X43885Y184435
X43918Y18445
X438564Y1831594
Y1828444
Y1825294
X438249
X4382492Y1828498
X437915Y182855
X4376
X4379341Y1831594
X43822Y183185
X4379341Y1834743
X43759Y183485
X4379297Y1825449
X4379342Y1819049
Y1815899
X4382492
Y1819049
X4385641
Y1815899
Y181275
Y18096
X4382492
X4379342
Y181275
X4382492
X437545Y18071
X4376192Y1800151
X4379342
Y1797002
X4382492
X4385641
X4376192
Y1793852
X4379342
X4376192Y1790702
X437575Y178325
X437705Y177695
X437645Y17681
X437555Y175895
X43842Y175885
X43808Y17501
X438085Y174685
X43853Y17474
X4388Y174675
X438865Y174945
X439465Y175065
X43982Y175045
X439745Y175605
X4392Y175335
X43899Y176905
X44019Y177475
X441015Y17678
X442025Y176615
X441565Y176095
X44132Y17541
X441035Y1754
X441225Y174955
X44203Y175025
X441895Y175395
X44308Y175595
X443555Y17569
X44331Y17637
X44309Y176605
X44274Y177425
X44214Y177535
X44217Y178335
X442465
X442745Y17835
X44303Y17836
X44331Y17835
X44359Y178325
X44385Y17829
X44413Y17832
X44458Y178135
X444505Y177885
X444095Y177175
X44387Y17486
X444765Y17507
X44499Y174505
X443335Y17363
X442855Y173615
X4429Y17394
X442565Y173975
X442515Y173665
X442225Y173685
X4416Y174
X44119Y17401
X440765Y17425
X437735Y174995
X441255Y178405
X441785Y178485
X44126Y179555
X44023Y179495
X44028Y183055
X44057Y18305
X44084Y18308
X44173Y18362
X44211
X44242Y18361
X442065Y182365
X441675Y182375
X4376Y1819
X438585Y18729
X440345Y18571
X44951Y1851
X44964Y184815
X44951Y18426
X45047Y18351
X45257Y177475
X452575Y17717
Y17688
Y176575
Y176275
X44937Y176055
X437355Y17679
X436815Y176815
X43641Y17678
X435855Y176785
X435005Y176485
X43507Y175865
X434745Y17586
X43435Y175865
X433885
X43337Y175855
X432975Y175825
X432485Y175555
X432015Y17533
X43211Y17661
X432585Y176795
X43298Y17678
X433375
X43377
X43417Y176775
X433795Y177845
X433885Y17809
X4338451Y179385
Y1797
X4335301
Y180015
X4335253Y1803151
X433215Y1803246
Y1806395
X4329
Y1803246
Y1800096
X433215
Y1796946
X4332096Y1793798
X4330501Y1786511
X4327351Y1786461
X43166Y1786
X431315Y178605
X431515Y17817
X43077Y17834
X430395Y17975
X429835Y180095
X42984Y1806
X429705Y18135
X43Y181335
X43038Y18096
X42919Y181475
X428925Y18153
X42861Y181735
X42829Y181715
X42769Y18201
X42724Y181995
X427565Y18295
X42787Y18296
X42658Y182955
X426475Y184175
X42657Y184555
X426175Y1848
X425965Y18412
X425615Y184305
X425725Y185555
X425405Y18583
X426585Y185635
X427655Y18572
X42749Y186745
Y18702
X426605Y18689
X426515Y18741
X428335Y186665
X42887Y186855
X429345Y18716
X43013Y18711
X4304Y186835
X43043Y18644
X43038Y186055
X430395Y185605
X43038Y18481
X430395Y184405
X430385Y18401
X430415Y18351
X429435Y183085
X4295Y182695
X429005Y18351
X428705
X428595Y184325
Y18479
X429495Y18481
X42952Y18521
X42913Y185235
X42916Y185625
X42947Y18564
X429485Y186405
X43079Y18725
X431065Y18726
X43128Y186005
X43213Y18598
X432395Y185995
X43239Y18575
X4327399Y1857431
X43271Y18599
X43336Y185995
X4333698Y1857431
X4338449Y185049
Y184734
Y1844191
X43353
Y184734
X433215Y1844191
Y1841041
X43353
X43353Y1837891
Y1834742
X433215
Y1837891
X4329
Y1834742
Y1831592
Y1828443
X433215
Y1831592
X43353
X43413Y183145
X434167Y1828895
X435125Y182865
X435135Y18256
X435115Y182225
X435105Y18192
X43513Y18159
X43543Y1816
X435455Y18191
X435755Y18193
X435765Y18223
X43609Y182225
X436085Y18254
X436395Y18255
X436405Y18222
X436395Y18191
X43608Y181895
X436075Y181595
X43576Y18161
X436395Y181575
X43665Y18064
X436035Y180635
X43572Y18066
X4354Y180645
X435085Y180655
X434775Y18063
X433935Y18069
X4335247Y180645
X4335401Y1812697
X43353Y1815844
Y1818994
Y1822143
X433215
Y1818994
X4329
Y1822143
Y1815844
X433215
Y1812695
X4329
X43212Y18184
X431835
X43158Y18185
X431585Y18217
X43184Y18219
X433215Y1825293
X43353Y182535
X434415Y18197
X4344Y181165
X434475Y180015
Y1797
X43416Y1797
Y180015
X4338451
X43416Y179385
X434475
X4350996Y1793852
Y1797002
X4354145
X4357295
Y1800151
X4354145
X4350996
X4360445
Y1797002
X4360445Y1793852
X4363593Y1796948
X4366742
Y1800098
X4363594Y1800151
X4373043
Y1797002
X4369893
Y1793852
X4366796Y1793797
X4354145Y1793852
X4354Y17833
X43514
X436355Y1783
X43642Y17588
X436515Y17495
X4362
X436095Y1747
X43681Y17469
X437085Y174675
X435405Y17494
X435115Y174955
X43411Y17488
X4314Y1766
X43143Y17691
X431745Y179345
X43179Y18006
X42951Y17935
X429205Y179375
X42805Y179645
X42802Y180195
X42807Y1806
X4271Y180185
X426195Y18018
X42622Y180575
X426185Y179355
X42647Y17936
X42651Y178825
X42621Y17884
X42715Y178845
X426905Y178515
X42669Y177005
X426115Y1769
X42536Y17739
X425205Y17765
X424595Y177425
X424065Y17671
X423655Y17585
X4233Y175855
X422705Y176045
X421875Y176025
X421965Y175345
X421985Y177145
Y177515
X421995Y17782
X422535Y178025
X42264Y178425
X422355
X423075Y178525
X42312Y177425
X42296Y177185
X424395Y17851
X425775Y17937
X425115Y175835
X424535Y17583
X424225Y17538
X42435Y17445
X42491Y17444
X425865Y174395
X42531Y17538
X42713Y18374
X429505Y184015
X429145Y184385
X43138Y184415
X4329Y1844191
Y1841041
X4329Y18475
X43416Y1847394
Y1844244
X434015Y18403
X43452Y183755
X43479Y1837945
Y1841095
X4347899Y1844153
X4347898Y184734
X4350996Y1847395
X4351049Y1844244
Y1841095
X4354199Y1837945
X435685Y183685
X4360603Y1838001
X4366797Y1837945
X437035Y18406
X43728Y18408
X4373041Y1844192
Y1847342
Y1850491
X4369893Y1847395
X4366742Y1847342
Y1844192
X4363593
Y1847342
X4360443
Y1844192
X4357293
Y1847342
Y1850491
X4360443
X4366742
X43657Y186395
X43701Y1864
X4361Y18639
X43561Y186365
X43522Y186385
X43482
X43429Y18673
X43332Y18694
X43266Y18729
X43542Y18224
X436085Y182865
X436425
X437275Y182545
X4372751Y1818997
X4372801Y1812697
X437285Y18071
X423305Y184955
X423055Y18544
X423575Y185425
X421705Y18466
X420995Y18465
X420405Y186645
X41927Y183125
X419235Y182065
X41954Y182055
X41939Y181555
X418925Y1815
X418875Y181795
X418815Y182195
X41783Y18193
X417545Y180855
X41715Y18046
X41662Y180115
X416225Y180125
X41619Y17973
X416465
X41521Y18002
X41446Y180035
X414185Y180025
X413895Y18002
X413605
X413305Y180005
X41408Y18045
X414395Y180475
X41442Y18128
X414705Y18156
X41488Y18094
X41533Y181315
X41553Y182
X41555Y182505
Y18332
X414605
X414615Y183705
X41408Y18365
X41333Y183385
X41305Y183395
X412505Y183285
X41206Y18328
X4126Y183705
X412225Y18433
X413095Y184355
X41131Y184975
X410875Y184025
X41056Y18433
X41063Y182945
X41064Y182645
X410275Y182535
X41039Y18227
X41038Y18197
X410395Y18164
Y181335
X410155Y181135
X41062Y180995
X41061Y180715
X410215Y180525
X410745Y181245
X41122Y18122
X41121Y1818
X410665Y181835
X411225Y18239
X41088Y18307
X409925Y18283
X409335Y179825
X40905Y179285
X409005Y178805
X40883Y178315
X40931Y178305
X41055Y17831
X41092Y178985
X411265Y178975
X411665Y17897
X412065Y17898
X412865Y178985
X413655Y17893
X414445Y178945
X415265Y177485
X416105Y17755
X41682Y17785
X416805Y178185
X417175Y176485
X41801Y176455
Y175705
X41828Y175715
X41823Y17503
X41769Y174415
X41708
X41612Y174405
X41564Y174415
X41494Y174395
X414445Y174415
X41368Y1744
X41328Y17453
X413Y17454
X413385Y175655
X4137Y175675
X41363Y176445
X413335Y17647
X41392Y17641
X41424Y176455
X41456
X414745Y175655
X41592Y17565
X41564Y17648
X4172Y175635
X419445Y175745
X419395Y17632
X419365Y176645
X42037Y176675
X42075Y17738
X420815Y177735
X42129Y177815
X421295Y178165
X421285Y178525
X421555Y178935
X42187Y17893
X4206Y178405
X419625Y17834
X419855Y179135
X419775Y180375
X419475Y1806
X4196Y181075
X421665Y180745
X42164Y17716
X421565Y17601
X42167Y17536
X420235Y175125
X41991Y17509
X419605Y17506
X421845Y173705
X41296Y177595
X41268Y177585
X412395Y177565
X41208Y177595
X411935Y18001
X41441Y182765
X416485Y1825
X41617Y18162
X418Y18386
X406865Y184675
X406555Y18466
X40627Y18465
X40952Y17718
X409325Y175535
X409725Y175525
X41011Y175535
X41056Y17553
X408885Y174695
X40597Y184125
X4061Y18488
X40384Y18418
X40281Y18422
X402645Y18491
X402905Y185
X40239Y185035
X40135Y1852
X398815Y184115
X39536Y1842
X393525Y18336
X39305Y182755
X39334Y18161
X393455Y18065
X3933Y18042
X39222Y180785
X39136Y179995
X391185Y179655
X39092Y17945
X390745Y180235
X3909149Y1835601
X39117Y183445
X391205Y18399
X391525Y183985
X39172Y183685
X39105Y18426
X3923Y184355
X39269Y1846
X392975Y1848
X39293Y17497
X39292Y17458
X392285Y174565
X39229Y17498
X391585Y174975
X39159Y17457
X39094
X390935Y174985
X3901414Y1749783
X390145Y17457
X3895Y174585
X3894765Y1749687
X38865Y174975
X3886487Y1745933
X387975Y17457
X38796Y174975
X38433Y17487
X384335Y175265
X3836582Y1752597
X38367Y17485
X38267
Y175255
X382025Y17526
X382035Y17486
X379035Y176195
X37866Y175865
X37529Y177695
X37512Y1779
X375135Y17951
X37553Y18031
X375695Y181415
X377865Y1811
X37787Y18204
X379035Y183085
X379645Y183145
X38043Y183125
X38044Y184055
X380055Y18404
X3789Y184515
X37861Y18452
X378275Y184515
X377935Y184555
X377545Y18454
X37722
X37706Y18481
X376455Y18431
X37532Y183925
X37567Y1853
X375555Y18608
X375295Y18666
X3759Y18687
X38199Y186165
X38228Y185845
X381695Y18584
X3825Y18631
X38308Y1863
X382805Y18662
X383305Y186675
X38389
X38433Y18666
X38492
X384625Y18698
X384535Y1873
X383585Y18699
X38395Y18595
X385605Y186015
X38725Y18626
X388115Y18479
X38766Y18411
X386955Y18325
X38528Y183095
X38505Y184235
X385955Y18425
X388835Y18315
X389175Y183135
X389345Y182835
X389995Y182815
X390315
X390445Y183085
X389835Y183095
X39061Y183565
X390415Y183785
X388635Y182845
X38957Y18178
X38972Y180155
X39026Y18048
X390575
X39041Y17968
X390605Y179455
X38835Y179665
X38833Y180065
X387395Y179985
X387385Y17967
X375385Y17376
X37508
X37392Y174455
X37332Y17447
X37215Y174495
X371555Y174505
X370385Y174545
Y17493
X37046Y17543
X370685Y175835
X37118Y17586
X37181Y175845
X37203Y176495
X372735Y176325
X37312Y176445
X37309Y176715
X373365Y176705
X37347Y176195
X373215Y17583
X374085Y17587
X37447Y175765
X374605Y17633
X373835Y177715
X373495Y17772
X37381Y178095
X37383Y178805
X37355Y17884
X373305Y178455
X373015Y17846
X372975Y17906
X372825Y179315
X37299Y17956
X37257Y17947
X37228Y17859
X372285Y178315
X37201Y17817
X370255Y178305
X37027Y17869
X37025Y179085
X37027Y1795
X370275Y181105
X37064Y181905
X371345Y181785
X3717
X371745Y181335
X37143Y18134
X3729Y18144
X37368Y181335
X373965
X373955Y180965
X37408Y1827
Y18297
X374085Y18329
X374055Y183595
X37408Y18438
Y18469
X374095Y18498
X37407Y18529
X373755Y186065
X373275Y182925
X37217Y183085
X37022Y18269
X370335Y18404
X370315Y18455
X37027Y1849
X36934Y18461
X369355Y185255
X369215Y18573
X370765Y18671
X37057Y17702
X369975Y17706
X369575Y177
X369555Y17746
X368815Y176995
X370835Y17663
X36695Y177785
X36595Y17791
X367415Y17899
X374825Y17925
X374855Y17952
X374835Y18774
X373825Y187625
X37307Y18822
X374285Y189285
X373835Y191345
X374985Y19155
X37415Y19266
X3735Y193505
X374355Y194015
X374545Y195005
X374045Y195035
X374445Y19569
X37455Y19597
X3745975Y1966329
X3743Y19663
X374915
X372795Y196185
X37273Y19534
X37274Y19493
X371695Y194885
X371335Y199345
X37222Y200005
X36953Y199105
X36967Y20261
X37027Y18888
X369345Y18857
X36867Y18856
X36877Y188255
X36939Y187545
X37122Y187725
X3651Y187815
X37504Y18797
X37565Y18781
X375695Y18973
X37546Y189945
X376265Y18975
X37657
X37702
X37732
X37783
X37813Y189755
X378475Y18975
X378775
X37888Y19145
X37873Y1925
X37908Y19252
X37807Y192185
X37771Y192755
X377705Y193075
X377355Y19275
X37691Y192275
X3758Y19216
X37581Y19255
X375165Y19251
Y1929
X37516Y193305
X37551Y19375
X37591Y194545
X375255Y19515
X37546Y19599
X375205Y19664
X375765Y196675
X376475Y1972
X376415Y19799
X375925Y19987
X37684Y201255
X376965Y2017
X37696Y202105
X379615Y202185
X380055Y20225
X379955Y20146
X380085Y20104
X380545Y200095
X381835Y199505
X381845Y197695
X382565
X384545Y197205
X384985Y1972
X38531Y19716
X3855Y197865
X38516Y198495
X38484Y198505
X38587Y19922
X387165Y20141
X38776Y20116
X38781Y202145
X388865Y201785
X3895Y201905
X389705Y202175
X390555Y20185
X38931Y19932
X389755Y19842
X390065Y19843
X38973Y197505
X38945
X38927Y19773
X38808Y197655
X38761Y197165
X388135Y19623
X388175Y195505
X38778Y195535
X38735Y194465
X388525Y194685
X389065Y194665
X389155Y19427
X38915Y19387
X389965Y194705
X39027Y19472
X38935Y19552
X389515Y19254
X389525Y1922
X38983Y192
X389215Y19195
X389205Y190895
X3892Y19027
X38931Y189735
X389895Y18923
X390585Y18932
X38976Y190625
X38824Y191335
X388185Y1919
X388205Y19258
X387405Y19237
X38722Y19272
X387215Y19192
X38742Y191315
X386905Y19134
X38641Y19084
X385855Y191
X385155Y191065
X385135Y192185
X384745Y19206
X38464Y192525
X384665Y192905
X38471Y193345
X385265Y19324
X385545Y193405
X38562Y19433
X385225Y1943
X384525Y194315
X38305Y194455
X38253Y19466
X382205Y194665
X382035Y19551
X381735Y195505
X38064Y195555
Y195205
X381195Y194625
X38161Y194245
X382095Y19311
X382495Y193105
X38282Y192695
X383Y192105
X38303Y191665
X383935Y192105
Y19076
X383975Y19017
X384155Y18995
X383575Y18992
X383265Y189925
X38304Y19027
X38267Y19018
X38248Y190625
X382045Y19062
X38209Y189925
X381915Y189265
X382815Y189195
X383235Y1892
X38358Y189195
X38315Y18751
X382815Y18761
X37982Y18811
X37896Y19392
X378875Y19419
X37717Y193885
X376945Y193675
X376775Y193425
X37691Y196075
X37741Y19611
X377455Y19568
X377745Y196315
X378105Y19631
X379235Y196285
X37922Y197595
X378775Y19786
X379695Y197305
X37988Y197
X380175Y19698
X38303Y19523
X383815Y195555
X384115
X385755Y195525
X38671Y19359
Y193215
X38311Y193255
X38497Y19003
X38595Y190105
X38662Y18914
X387905Y189795
X37503Y19069
X375115Y19106
X375555Y191565
X38122Y20225
X382375Y201745
X382905Y20157
X38322Y20154
X38273Y20101
X38291Y2024
X384505Y202635
X38463Y202215
X39085Y201855
X39116
X39144Y20164
X391055Y20268
X390755Y202695
X391865Y202805
X392195Y20249
X39201Y19984
X392165Y19893
X39107Y19891
X39101Y196115
X391305Y19612
X392735Y196385
X394565Y19641
X39542Y19668
X395685Y19652
X39601Y196535
X39627Y196665
X39786Y19592
X39826Y195915
X39881Y19588
X39952Y194965
X39951Y19466
X39954Y19413
X39833Y19469
X39761Y19473
X396825Y193775
X396885Y193485
X397405Y192895
X39731Y19209
X397115Y191495
X397595Y19147
X39838Y191505
X398345Y192085
X3984Y19294
X398905Y19278
X39952Y19233
X399555Y19197
X399525Y191455
X39954Y19104
X399525Y190665
X39849Y190215
X39851Y18968
X39783Y189495
X3974Y18945
X39697Y189455
X396155Y19021
X39517Y19027
X39437Y190325
X39415Y19093
X39318Y190895
X392835Y191135
X39243Y19119
X392495Y19015
X392845
X393555Y190095
X394155Y19199
X39415Y19228
X39411Y192705
Y192985
X39404Y193445
X3941Y194035
X394915Y19371
X395295
X39576Y19354
X39563Y194495
X39507Y19308
X3951Y19263
X395095Y192085
X396275Y191185
X39663Y19133
X39328Y192535
X39333Y193435
X39285Y193645
X392555Y193635
X39247Y19393
X39254Y19464
X39225Y19465
X39303Y19432
X39335Y1951
X3916Y189325
X40243Y189725
X402955Y189805
X402735Y190075
X403235Y190115
X403515Y19017
X40349Y19057
X40324Y19092
X40285
X40444Y190655
X40449Y191815
X404435Y192105
Y19251
X404415Y19279
X404385Y193215
X4044Y19384
X40483Y194015
X40571Y193435
X40607Y19333
X40606Y19425
X40591Y195925
X404695Y19591
X404405Y19589
X404105Y196045
X403745Y196115
X403195Y19655
X402615Y19654
X402295Y195285
X402945Y19483
X403435Y19477
X40376
X40333Y194
X40289Y194005
X40306Y193735
X40269Y19373
X40275Y19332
X403605Y19303
X403555Y192315
X405385Y192405
X40538Y19282
Y19181
X405505Y190025
X403745Y18983
X404785Y19744
X405285Y19739
X40584Y197765
X405505Y19842
X40469Y199615
X40166Y199725
X40137Y199745
X401045
X40075Y19976
X40011Y20051
X39984Y200585
X399535Y200595
X39924Y200605
X39917Y201645
X39894Y201425
X398615Y20143
X39848Y20174
X399455Y202765
X401645Y20206
X3994Y19948
X399095Y19946
X398775
X39849Y19948
X399665Y1978
X40061Y197885
X40072Y196565
X40037Y19657
X399835Y19655
X400935Y19588
X395175Y20207
X40682Y19781
X408225Y197865
X408545Y19783
X408855Y19777
X40915Y19783
X409465Y19782
X40973Y19799
X41098Y1969
X41137Y19708
X411305Y195935
X41078Y19594
X411205Y195485
X411645Y195185
X412835Y19529
X41308Y19462
X41335
X413095Y19392
X4131Y19359
X412755Y193745
X4127Y19414
X41249Y194365
X412615Y1933
X41331Y193015
X41339Y19226
X414225Y19246
X414205Y192735
X4142Y193145
X41418Y19387
X414565Y194095
X414315Y19519
X414Y195275
X41393Y19619
X413715Y1964
X41343Y19642
X41309Y197135
X412705Y196865
X41242Y196845
X414085Y197105
X41529Y19715
X41581Y19712
X41614Y197145
X416465Y19716
X41603Y198215
X415355Y198235
X413025Y19863
X41224Y198615
X41097Y199535
X41031Y19497
X410075Y19482
X409775Y194745
Y194455
X4098Y193745
X408715Y193825
X408695Y19412
X40857Y195195
X40816
X40785Y194545
X407215Y19347
X407175Y19311
X40766Y192635
X407705Y19183
X40763Y19132
X407965Y1913
X40872Y191305
X40874Y192015
X40872Y19271
X409495Y192625
X40993Y192335
X40992Y19189
X409835Y191445
X409875Y19103
X409855Y190145
X410365Y18977
X409335Y18904
X408155Y189275
X40879Y19025
X406485Y19003
X40661Y191035
X406985Y191095
X406255Y195925
X41511Y195125
X41539Y19512
X415655Y19493
X41586Y194205
X415955Y193265
X415465Y19346
X415165Y19281
X415195Y1924
X415205Y191715
X41425Y19173
X41424Y19203
X414245Y19072
X413365Y190495
X413065Y190505
X41312Y190855
X412505Y1909
X412525Y190045
X41282Y19008
X413365Y190055
X415275Y19
X41625Y18993
X41655Y19098
X41684Y191175
X417255Y191265
X41765Y191285
X417425Y19182
X4175Y192625
X4185Y192655
X41922Y19257
X419655Y19291
X420145Y19302
X420045Y192515
X41971Y19223
X41972Y19187
X419575Y19137
X419585Y190985
X41954Y19068
X41863Y190445
X418425Y190225
X418505Y191315
X41846Y191825
X420305Y191985
X420215Y19138
X420115Y193685
X42018Y194195
X41964Y194065
X419675Y19441
X41953Y194895
X41957Y193745
X418455Y19434
X417635Y194585
X41801Y195435
X418385Y19547
X418675Y195335
X420775Y195325
X421775Y195515
X42116Y196575
X420175Y197305
X42016Y19763
X42053Y197775
X4199Y19717
X421115Y19954
X421135Y193515
X41698Y19351
X416925Y193215
X41871Y187595
X42083Y188185
X42104Y188385
X421415Y1878
X42161Y188925
X421865Y18923
X422565Y18992
X42322Y190585
X423385Y190875
X425035Y19091
X425605Y19167
X426005Y1921
X42495Y19229
X425195Y19258
X42448Y192695
X424205Y192585
X42488Y19315
X424925Y19421
X42497Y194705
X425015Y19502
X42425Y194665
X425715Y19441
X426725Y194435
X426705Y19525
Y195525
X42671Y196095
Y19644
X427255Y19646
X42772Y196445
X42777Y197185
X42742Y19723
X4271Y197165
X4276Y19826
X42788Y19833
X42627Y198245
X425945Y197865
X42504Y19782
X42502Y197445
X424995Y196375
X42569Y195925
X427205Y195035
X42763Y194155
X427925Y19443
X428295Y19365
X42743Y193345
X4272Y192965
X427245Y19269
X426965Y192755
X427345Y191105
X427365Y19042
X426625Y190635
X42614Y190295
X425805Y19026
X42534Y189815
X4248Y189245
X42484Y18784
X42459Y187955
X42509Y18796
X425785Y18795
X425695Y18861
X42651Y189265
X426875Y18931
X428335Y189195
X42948Y189135
X430175Y18914
X4302Y190405
X429595Y19035
X429085Y190895
X428485
X430115Y19112
X430635Y191125
X43206Y190905
X432095Y190585
X432005Y190305
X431675Y19025
X43165Y189435
X431945Y18946
X43254Y189925
X432805Y190095
X4328Y19042
X43316Y19055
X433715Y19054
X433995Y1904
X434005Y19008
X43427Y189925
X433455Y18923
X43288Y18867
X432685Y18804
X433165Y187845
X433745Y18784
X43359Y1882
X433895Y18821
X434225Y188175
X434695Y18818
X43457Y18784
X435165Y188265
X43549Y18823
X435835Y188225
X43711Y188235
X433935Y19114
X43399Y19239
X433685
X433805Y193525
X433695Y194515
X433735Y19504
X43457Y19502
X43437Y19415
X43455Y19615
X433795Y19601
X43368Y19659
X43283Y196235
X43192Y196615
X43104Y19667
X43093Y197155
X431425Y197195
X431665Y197335
X431615Y19834
X43195Y198425
X43366Y197885
X431485Y1958
X431855Y19523
X4316Y19362
X431595Y193315
X43189Y19336
X43247Y192125
X43075Y18755
X43019Y187545
X42917Y188425
X427945Y188345
X42388Y188305
X42387Y18804
X42266Y188395
X42223Y187945
X4219Y191575
X422315Y1948
X42264Y194845
X422175Y19513
X42198Y195315
X422665Y196885
X422875Y19955
X422945Y20001
X42337Y200495
X423595Y200695
X423955Y20072
X42399Y20099
X424475Y20096
X426435Y20091
X426425Y201175
Y201455
X42645Y20173
X426485Y202
X42643Y20054
Y20018
X42998Y198975
X429955Y197295
X430115Y197055
X428855Y19685
X429505Y19618
X429445Y195885
X433635Y202715
X433605Y203035
X434245Y202315
X437685Y19532
X438995Y194545
X43901Y19417
X43899Y193595
X43975Y19357
X440025Y19358
X440305Y193565
X440575Y19356
X441585Y19359
X44142Y19237
X44235Y19234
X44042Y192395
X440085Y192405
X43982Y19241
X43954
X43925Y1924
X438425Y19173
X438555Y191455
X438255
X43859Y18983
X43916Y188235
X439675Y18824
X440415Y187775
X441155Y188315
X441675Y189395
X44211Y18944
X442185Y18985
X44187Y189845
X441815Y190245
X4413Y1903
X44135Y190695
X440705Y190705
X440695Y19098
X440685Y191245
X440725Y190405
X4403Y194375
X439995Y1944
X439685Y194405
X44125Y195115
X442495Y19515
X44588Y195045
X445885Y194745
Y195375
X445935Y195725
X44686Y196245
X446925Y195025
X44708Y19416
X447015Y19366
X44609Y19268
Y192335
Y191645
X44628Y19002
X44684Y189935
X44681Y190245
X447635Y190315
X449755Y19027
X44934Y188505
X451315Y18844
X451835Y18778
X45218Y187775
X452665Y18786
X452895Y188455
X44727Y188135
X446935Y18819
X446735Y188
X44651Y187835
X44648Y18918
X445445Y189305
X445075Y18932
X448965Y191765
X449345Y19248
X449435Y19325
X449425Y19395
X44904Y194255
X44951Y195825
X449485Y196115
X449815Y19612
X4502Y195705
X45034Y19544
X45005Y195405
X44742Y19879
X440285Y19769
X437915Y188245
X43752
X45332Y18836
X453595Y188365
X453865Y18808
X454495Y188305
X45439Y18899
X45407
X45454Y189645
X45461Y19083
X456555Y19131
X456275Y19215
X45659Y192405
X45613Y19313
X455465Y19254
X454885Y193815
X454875Y19485
X454895Y19517
X45487Y195605
X454885Y19648
X454895Y198035
X45488Y20033
Y200755
X45489Y20209
X45492Y202885
X4539Y201895
X454035Y201625
X4572Y197025
X457465Y19715
Y19413
X45745Y193795
X458165Y19407
X458105Y19451
X45779Y19245
X457815Y192095
X457755Y19172
X459105Y191595
X459035Y192085
X45903Y19242
X45813Y189775
X458075Y189395
X45859Y18848
X458585Y18816
X458595Y187835
X45671Y18831
X4564Y1883
X456645Y18937
X456035Y18926
X456695Y190095
X457395Y20472
X457635Y204565
X45837Y205115
X458215Y20539
X45822Y20575
X45825Y20609
X458355Y2066
X45793Y20735
X457535Y207375
X456315Y20734
X4557Y20732
X45482Y20734
X454815Y2079
X455625Y20825
X45658Y2062
X45702Y205775
X457285Y212015
Y212315
X45731Y212745
X456165Y21242
X455425Y212485
X45506Y21201
X45518Y211735
X45375Y21162
X453415Y212095
X453305Y21313
X453195Y215555
X45365Y21551
X453975Y21552
X45454Y21443
X45581Y214575
X456115Y21468
X45632Y214315
X45652Y21397
X45589Y213565
X4555Y21356
X45548Y21394
X45645Y215355
X456445Y215695
X455455Y2165
X455425Y216915
X455415Y21721
X454515Y217285
X454285Y2171
X454445Y217745
X453535Y21795
X45317Y21773
X455205Y21815
X455025Y21866
X45623Y218455
X457895Y21493
X458675Y2152
X45202Y21566
X451785Y216765
X45131Y216385
X45128Y21745
X450505Y217855
X44999Y218585
X448915Y217785
X448505Y21716
X448035Y217215
X447655Y217175
X447605Y218705
X447275Y21873
X445225Y217945
X4422Y216485
X442325Y215895
X44272Y215555
X44091Y21503
X441055Y214295
X441385Y21431
X44061Y21366
X44014Y213395
X43971Y21395
X439465Y215375
X43945Y215675
X438265Y216285
X438335Y216555
X43989Y21852
X44104Y217525
X44137Y21258
X441375Y212285
Y211975
X44154Y211705
X44216Y210785
X442845Y2129
X442855Y21323
X444305Y21233
Y21202
X445295Y21236
Y21273
X445285Y213055
X4453Y213395
X448535Y21352
X44854Y21385
X44884Y21379
X44882Y214155
X448835Y21447
X448465Y2146
X449415Y214525
X4493Y214805
X449295Y21513
X449005Y215295
X449785Y21532
X449975Y215885
X450515Y215375
X450875Y215445
X450055Y21462
X45007Y21324
X45009Y21293
X45007Y21261
X45009Y212325
X45138Y21246
X45134Y211445
X45279Y211395
X45306Y213305
X452155Y21321
X450465Y21068
X449105
X4491Y210985
X449115Y211325
Y21035
X44735Y21026
X447235Y209975
X44725Y20966
X447285Y20934
X44864Y208425
X44853Y208125
X448535Y2078
X44866Y20748
X448595Y2157
X448135Y215865
X447555Y2155
X449605Y21708
X452785Y21732
X45288Y217915
X434415Y218145
X434285Y218495
X424275Y21419
X423865Y214195
X42347Y214345
X423425Y214915
X42354Y21338
X423575Y21304
X423745Y21237
X423515Y212205
X42313Y21208
X423345Y21163
X422925Y21054
X4222Y211065
X422595Y212755
X422545Y213165
X422425Y213985
X42427Y213255
X426055Y211945
X42576Y2114
X42535Y210125
X42536Y20982
X425345Y2095
X42536Y2092
X425395Y20861
X425385Y2083
X425375Y20799
Y20771
X426245Y207695
X42637Y207955
X426365Y208275
Y20873
X426355Y209065
X426335Y209345
X426155Y20852
X426615Y20671
X42659Y206315
X427285Y20632
X427295Y206715
X427475Y206945
X42768Y20674
X42646Y205415
X426285Y20514
X423165Y20881
X42245Y20887
X421685Y209395
X42083Y209265
X42128Y209985
X41998Y21073
X420565Y20834
X419785Y20775
X418975Y20743
X41893Y208035
X418285Y20748
Y20725
Y207
Y206755
X417925Y20671
X417915Y20694
X41792Y206425
X417405Y206455
X41737Y20673
X4173727Y2069377
X4168179Y2070617
X4168259Y2068039
X41682Y206535
X416545Y206525
X41655Y206805
X416535Y20706
X41656Y20734
X41681Y207345
X416825Y20762
X41654Y20761
X41558Y20759
X414835Y207395
X41411Y20749
X4141095Y2072394
X4141138Y2069598
X414105Y206695
X41372Y206685
X413735Y20643
X41329Y206385
X413285Y206645
X413305Y20697
X41373
X412655Y20707
X4126516Y2073397
X412635Y2076
X41236Y20761
X412345Y207325
X4123672Y2070583
X412365Y20676
X412375Y2065
X412655Y20649
X4126466Y2067789
X41263Y205755
X4126819Y2051597
X41266Y20488
X412665Y204555
X41422Y204845
Y205165
X41421Y20552
X414515Y20612
X4148Y206175
X414915Y2066
X41485Y20512
X416908Y2051197
X416885Y204775
X416925Y204475
X416735Y205865
X4183791Y2055719
X4183887Y2052384
X419105Y205415
X418955Y20627
X419305Y206325
X41906Y206715
X415915Y208705
X41477Y208215
X41165Y20849
X411205Y207525
X410465Y20741
X410325Y207985
X409775Y207465
X40977Y20721
X409775Y206945
X4097734Y2066924
X409385Y20669
Y206945
X408965Y206935
X40897Y20666
X40894Y20639
X40938Y206385
X41045Y20636
X41073Y206495
X410765Y20619
X41063Y205495
X4099281Y2053114
X40995Y20503
X40987Y20575
X40842Y205365
X40843Y205035
X408425Y20468
X4083239Y2064874
X408305Y206745
X4080492Y2067783
X408025Y20704
X4083098Y207039
X40831Y2073
X408315Y20757
X40804
X408045Y207315
X408025Y20649
X406575Y206575
X406605Y206185
X406285Y20622
X40643Y20568
X406315Y207375
X40697Y207425
X406275Y208075
X40758Y20823
X406575Y21115
X42166Y21276
X42162Y213155
X421855Y20316
X4057Y205065
X405696Y2053574
X405715Y20565
X40565Y206685
X405635Y20693
X4056475Y2072161
X4056418Y2074481
X405255Y20693
X40525Y20667
Y206385
X40482Y20639
X4048111Y2066751
X40479Y20689
X4041748Y2067654
X40417Y20701
X404157Y2072985
X4041564Y2075758
X40389Y20758
Y207275
X40387Y20703
X403885Y206745
X4038948Y2064705
X404175Y206465
X40424Y20517
X40387Y205165
X40424Y20437
X40155
X401575Y205295
X40219Y205805
X40232Y206235
X402575Y20603
X40273Y20643
X40294Y20755
X402125Y20737
X401445Y207435
X401455Y20717
Y206925
Y20664
X401065Y206665
X4010607Y2069175
X40063Y20691
X400655Y206645
X4006308Y2063497
X4010606Y2063516
X39997Y20647
X39998Y20672
X399705Y206715
X3997102Y2064721
X399705Y207015
X3997039Y2072766
X3999636Y2072911
X39996Y207565
X39969Y20755
X39908Y207525
X398965Y20715
X39911Y207995
X39866Y20815
X398645Y21021
X39832Y210235
X398275Y211115
X39865Y211125
X397435Y211045
X39758Y210685
X397135Y21045
X396315Y21041
X396505Y21143
X39696Y211545
X39644Y21198
X39693Y212475
X39675Y2136
X397135Y21402
X395695Y212255
X39529Y21109
X3948Y209555
X39483Y20923
X394095Y20915
X394275Y20868
X393745Y208335
X39326Y208605
X39293Y20861
X391745Y20879
X39149Y208495
X39095Y208465
X39073Y20911
X391415Y207245
X3914123Y2067435
X39197Y20672
X39198Y207235
X39254
X392525Y206725
X3925196Y2060696
X39197Y206105
X391435Y2061
X39154Y20514
X39125Y205155
X391385Y204645
X39151Y20422
X39186Y20389
X392065Y204645
X39241Y20466
X392755Y20468
X392815Y204975
X393895Y20494
X39448Y20533
X39454Y205695
X394555Y2061
X39455Y206485
X39557Y206915
X395215Y208435
X395165Y20356
X394655Y20354
X39391Y203375
X39817Y203405
X397445Y20507
X39706Y2051
X39786Y20575
X398275Y20572
X39906Y20625
X399975Y20702
X40006Y205045
X400055Y20453
X40203Y208085
X403355Y20844
X399445Y2118
X39089Y20552
X39082Y204935
X3905Y20492
X38966Y20448
X38935Y204475
X38822Y20442
X38773Y20402
X387905Y20342
X387395Y20333
X38646Y20347
X38614Y20451
X38762Y206135
X389045Y205625
X38909Y206635
X389115Y207035
X389095Y207425
X38892Y208075
X38898Y20902
X389685Y20933
X39017Y2086
X38977Y207775
X390065Y20674
X390165Y203895
X383005Y203505
X383075Y206695
X382935Y20771
X378505Y20778
X37851Y20736
X37947Y206285
X37937Y20537
X375565Y20545
X37541Y20639
X375445Y207365
X37545Y207775
X375365Y208955
X37506
X37537Y20963
X375175Y20987
X375295Y21127
X37531Y21198
X375315Y21286
X37537Y21355
X37539Y214925
X375255Y21539
X375365Y21564
X37537Y21632
X37509Y216295
X37538Y216985
X375195Y21721
X375295Y218645
X3745Y218115
X37448Y217815
X374485Y21754
X37449Y21727
X37448Y216605
X37473Y216745
X374425Y21595
X37452Y2157
X374425Y21528
X374525Y21467
Y214355
X374695Y21415
X37447Y213965
X374485Y213325
X374525Y212325
X374535Y211635
X374495Y210745
X37451Y21045
X374545Y21019
X37449Y20992
X37447Y20925
X37472Y209385
X371705Y207935
X370255Y2075
X37027Y2084
X370255Y208805
Y20921
X36964Y209645
X37013Y21018
Y21056
X3701267Y2109454
X370125Y211345
X3709703Y2117865
X370965Y212075
X37097Y212535
Y21288
X369935Y213495
X370135Y21395
X37012Y214345
X370125Y214745
X370985Y21529
Y216365
X370245Y217235
X37Y21758
X369935Y21805
X369305Y218415
X368925Y2184
X36818Y21871
X36721Y218655
X367215Y21825
X36796Y217895
X374765Y214765
X373395Y20505
X37309Y205
X373185Y204665
X372795Y20452
X3725Y2045
X37313Y20365
X37324Y20335
X371625Y20346
X371215Y203825
X369985Y203835
X37001Y204125
X37003Y204405
X369945Y203355
X371495Y2052
X370375Y21885
X37009Y218805
X36928Y218765
X368955Y218755
X368975Y220295
X368035Y22032
X36802Y21971
X36722Y219295
X36686Y2196
X36685Y219965
X368245Y22293
X368585Y222935
X368935Y22296
X36611Y2252
X366095Y22551
X36609Y225945
X366115Y22627
X36611Y22669
X366105Y22697
X366795Y22923
X367155Y22922
X367445Y229225
X367805Y22923
X368155
X3682Y22963
X3678Y229625
X367485Y22962
X36714Y22963
X366845Y22965
X366805Y230015
X367205Y230055
X367505Y230045
X367855Y23004
X368165Y230025
X36855Y23075
X36738Y23124
X367405Y232555
X36907Y232705
X369065Y23301
Y2335
X36906Y233815
X369045Y23416
X36907Y232255
X36908Y23194
X374395Y23216
X37438Y23285
X37484Y231835
X374885Y230225
X374525Y230245
X374745Y228545
X37443Y2277
X37456Y227025
Y226355
X3745Y225495
X374475Y22522
X374495Y22495
X37448Y22465
X37447Y22398
X374705Y22411
X37442Y22331
X374505Y223065
X37442Y22266
X374515Y222035
X374525Y22173
X37471Y221525
X374475Y221365
X37449Y2207
X37452Y2197
X37453Y219005
X37477Y22214
X371455Y22794
X370905Y22803
X37538Y227735
X37533Y22669
X375345Y226005
X375205Y224565
X37538Y224365
X375375Y22369
X3751Y22367
X375125Y222885
X37537Y22301
X375395Y222305
X375375Y22092
X375305Y220215
X3753Y219355
X375115Y22865
X37545Y2329
X375475Y233625
X37936Y23435
X37946Y23265
X379475Y23193
X378885Y23145
X379485Y23068
X37931Y229155
X37896Y227505
X37865
X37924Y22651
X382425Y2276
X383325Y22775
X38346Y23198
X382435Y233055
X39153Y23181
X392285
X393015Y2318
X393725Y231805
X39373Y23033
X393015Y23034
X39229Y230335
X391915Y230315
X398125Y22991
X39841
X398795Y229915
X398805Y230285
Y230675
X39876Y230945
X399165Y230675
X3995Y230655
X399875Y230675
Y230315
X399535Y23029
X39954Y229935
X399885Y229945
X399905Y22957
X400255
X40026Y229235
X400605Y229225
X400615Y229575
X40058Y229935
Y230295
X400235Y230305
X40022Y230655
X400225Y23105
X400625Y231015
X400945Y23105
X401315Y231035
X401305Y23069
X40098Y230655
X400625Y23065
X400955Y230305
X401315
X401675
X40167Y230655
X402025Y23069
X402045Y231035
X401695
X40166Y231375
X402035Y231395
Y231755
Y232115
X401675Y232105
Y232465
X401315
Y232825
X40168
X402035Y232835
Y23319
Y233555
X40205Y233895
X4024Y233915
X402395Y234265
X402035
X401675
X40132Y234275
X401315Y233915
X40097Y23389
X400955Y234265
X4006Y234275
X400595Y233915
X40026Y233895
X400245Y23355
Y23319
X400605
X400965Y233185
X401315Y233195
X401675Y233185
Y233545
X40168Y233905
X402395Y233545
Y233185
Y232825
Y232465
X402755Y23247
Y23211
X40241Y23209
X402395Y231395
X402755
X40242Y231045
X402395Y230315
X402035
X402045Y229925
X402025Y22961
X401675Y229585
Y229225
X401315
Y229585
X401295Y229945
X401685Y229955
X402395
X40276
X402745Y23033
X403125Y23029
X40311Y2296
X403105Y22925
X402745
Y22889
X402755Y228505
X402395
X40238Y228855
X40202
X401685Y228875
X401355Y228835
X401695Y228505
X4017Y228165
X40202Y228135
X402045Y227795
X402395Y227785
X402755
Y227425
X402395
Y226715
X402755
X402775Y22707
X403105Y22709
Y22745
Y22781
X40314Y228145
X40277Y22814
X403105Y22853
X403125Y22887
X402395Y229225
Y229585
X402035Y229235
X40098Y2285
X401325Y228155
Y227795
X400965
X40062Y227805
X40026
X40059Y22816
X400965Y227435
X401325
X401315Y227075
X401675
X401695Y22741
Y22777
X401675Y226715
X4017Y226365
X401695Y22599
X40206Y226
X402045Y225635
Y225275
X4018736Y2247702
X401875Y22443
X4025935Y2248102
X40296Y22465
X4033085Y2248352
X403115Y225275
X402755
Y225635
X402765Y225995
X403115Y225985
X40314Y225645
Y226365
X403125Y2267
X40346Y227055
X403475Y227425
X403835
X4042
X404555
X40455Y2278
X40495Y227845
X404935Y22741
X404915Y227075
Y226715
X404555
X404195
Y227075
X403835Y226715
X40386Y226365
X4035
X40386Y225995
X40458Y226005
Y226365
X404925Y226355
X405285
X4053Y226005
X405685Y226
X405735Y22544
Y22493
X405285Y224915
X4053Y225285
X404925Y225275
X404905Y224895
X4040236Y2248502
X404575Y22563
X4053Y226715
X40527Y22706
X405645Y2274
X40583Y227875
X406005Y22707
X405675Y226705
X406005Y22635
X4050188Y2282986
X40503Y228585
X405115Y228975
X4051405Y2293322
X40514Y22973
X405145Y23001
X4055Y230095
X405505Y229845
X405515Y229305
X405485Y229045
X405495Y230545
X4055Y230855
X4051323Y230788
X405145Y2305
X40516Y231495
X405435Y231505
X405425Y231825
X4051368Y231815
Y232255
X40512Y2325338
X40543Y23256
X40544Y232245
X40541Y23294
X4051368Y2329563
Y233245
X40545Y233255
X40543Y23375
X40544Y234055
X4051168Y2340538
X405115Y234305
X4051168Y23373
X40276Y233905
Y233545
X402755Y23283
X40203Y23248
X4006Y232475
X400235Y23247
X40024Y231755
X400615Y23173
X400965Y231745
Y232105
X401335Y23173
X3994952Y2319265
X399535Y233175
X399165
X399185Y23353
X39882
X39883Y233885
X399165Y233905
X399525
X399895Y233895
X39986Y233535
X4006Y233555
X40024Y234265
X402745Y23429
X403605Y23173
X4036Y23142
X40346Y227775
X40383Y227785
X40274Y226335
X40242Y226365
X401305Y22637
X40095Y226355
X400965Y226715
X40062Y22671
X400245Y226715
X399885
X399875Y22705
X39954Y227085
X399175Y227055
X399085Y226485
X399165Y225995
X399525
X399885
Y225635
X39952Y22561
X400255Y22561
Y22597
Y22633
X399885Y226355
X399525
X40026Y227085
X40095Y22708
X40098Y22599
X401695Y22561
X4011535Y2248152
X4004335
X39908Y22792
X39914Y228855
X398815Y22885
X398815Y2292
X39919Y22921
X399545Y229205
X39955Y229555
X399185Y229565
Y230275
X39847Y229525
X3995Y228855
X399915Y22921
X398785Y23308
X406815Y233005
X4068115Y2327524
X40714Y232685
X4071231Y232955
X4071884Y2336201
X407187Y2338477
X40683Y233735
X406825Y233505
X406815Y234235
X40721Y234315
X408775Y234005
X40877Y23369
X40878Y23325
X408765Y232935
X4087772Y2325096
X408785Y232185
X408775Y23176
X40878Y231475
X409245Y23153
X409605Y23155
X409965Y23189
Y23117
X410325Y23152
X410685Y23117
X41034Y23081
X410685Y23045
X4103287Y2301013
X409965Y23045
X409605Y23011
X409245Y23009
Y23081
X4096Y230825
X409965Y22973
X41035Y22938
X4107Y229725
X411405Y22973
X4110527Y2300951
X411405Y23045
X411765Y230805
X412125Y23045
X41178Y230095
X412125Y22973
X41178Y22937
X4110567Y2293585
X411405Y228525
X412125Y22851
X4117699Y2281484
X411415Y227795
X411045Y228125
X4107Y22778
X4110597Y2274382
X411755Y22742
X411405Y22707
X411395Y226365
X411745Y226375
X41176Y226695
X411745Y226005
Y22566
X41211Y225655
X41245Y22565
X41246Y22601
X412115Y226005
X412475Y226385
X4124804Y2267092
X4128287Y2267352
X4128227Y2263728
X41282Y22743
X4124831Y2274203
X412125Y22707
Y22779
X412485Y228145
X4128264Y2281867
X412505Y22938
X412845Y22973
X412495Y23008
X412845Y23045
X41249Y230825
X412135Y23116
X412475Y23153
X412835Y231545
X413195Y23153
X413555
X4135678Y2308514
X4132226Y2308456
X41286Y231165
X412951Y2324565
X412986Y2331565
X41283Y23406
X412475Y234055
X412115Y23405
X411755Y234055
Y233695
X411395
Y23405
X411035Y234055
Y233695
Y233335
Y232975
X411395
Y23333
X411755Y233335
Y232975
Y232615
X411395
X41139Y23227
X411765Y23225
X412115Y23261
X41211Y23335
X41067Y2337
X409965Y23369
X40962Y233335
X40961Y232985
X409245Y23297
Y23225
X409625Y232275
X409965Y23261
X410305Y23296
X41067Y23298
X4107Y23226
X410345Y232255
X410685Y23189
X41105Y231525
X411059Y2308316
X411405Y23117
X4117349Y2315626
X41322Y230085
X413545Y2301
X413565Y229405
X41323Y229395
X410675Y228535
X4103296Y2281788
X409965Y22815
X4096056Y2281482
X409605Y22779
X40924
X40922Y22743
X408885Y22707
X409245Y22671
X40995Y226695
X409975Y22637
X410325Y22635
X4103197Y2266983
X410325Y22707
X409605
Y22635
X409275Y22599
X409605Y22563
X4092505Y2252896
X409245Y22492
X409965Y224925
Y22528
X40997Y22598
X4103Y226005
X410325Y22563
X41139Y22564
X411205Y224855
X41124Y22453
X412275Y22441
X412555Y224555
X41214Y22486
X412815Y225155
X408885Y22563
X40853Y225985
X40852Y226685
X408165Y22635
X407815Y2267
X40782Y225985
X408165Y22563
X40851Y22526
Y224905
X40781Y224915
X4078Y22526
X407445Y22563
X4071045Y225972
X40744Y22634
X407085Y226695
X40638Y2267
X40673Y22634
X40638Y22598
X406725Y22563
X4070824Y2252711
X407076Y2249077
X406365Y2249
X4063742Y2252417
X406725Y22707
X4070711Y2274094
X4072635Y227861
X40712Y228275
X4069745Y2284442
X4068272Y2282969
X40682Y228585
X4071357Y2285816
X4071002Y2290224
X40685Y22904
X406845Y229305
X40711Y22932
X4071287Y22972
X407115Y230025
X40682Y230005
X4068Y229725
X406835Y23048
Y230725
X407145Y230775
X40713Y23048
X4071431Y231335
Y23155
X406815Y231525
Y23132
X406825Y232005
X40681Y23224
X407136Y2322261
X4071431Y23199
X409245Y23369
X409615Y23405
X413626Y2342415
X421785Y234255
X40996Y22851
X409965Y22743
X4085115Y227432
X4087035Y227861
X4079935Y227866
X407795Y227415
X407445Y22707
X408175Y22706
X408885Y22635
X40634Y227415
X406545Y22788
X42611Y228785
X426095Y229125
X4261Y229445
Y22982
X426105Y23014
X426375Y22995
X425805Y229615
X427215Y230305
X428025Y230325
X42815Y229575
X427995Y228285
X427655Y22819
X42766Y22852
X427625Y227865
Y22756
X4279Y227705
X42874Y226405
X428745Y226105
X42872Y225785
X42878Y225495
X428715Y22522
X428935Y224995
X430815Y226735
X4311Y22674
X43114Y22706
X430855
X431345Y22726
X431675Y227235
X431465Y226935
X431175Y22788
X43102Y22818
X43135
X432145Y228055
X432135Y228395
X43214Y228715
X431995Y228995
X43258Y22919
X433035Y22951
X433025Y230315
X43263Y230325
X43343Y230305
X43195Y231285
Y23159
X4319Y231935
X4306Y2316
X430135Y231605
X4301Y23212
X429425Y23163
X428415Y231595
X427995Y23159
X42711Y2316
X4264574Y2317742
X425755Y23224
X42566Y232855
X42581Y23311
X42643Y233115
X427145Y23308
X42846Y23316
X429745Y233125
X43093Y233115
X431555Y233935
X43263Y233165
X42976Y230295
X435485Y227835
X43548Y227385
X43402Y22498
X433825Y224705
X433505
X433305Y224415
X43247Y224085
X43217Y22399
X431865Y22398
X43162Y223815
X43283Y223075
X43315
X43333Y222765
X433465Y22248
X43379Y2225
X434Y222235
X433985Y221825
X434065Y219905
X433635Y21955
X43392Y21905
X434475Y21929
X43295Y2198
X433165Y220345
X432665Y22278
X43711Y224405
X42371Y22062
X423705Y220315
X4234Y220625
X423225Y220875
X422955Y221015
X424325Y21957
X42293Y233295
X422475Y233315
X422455Y233035
X422185Y233205
X42209Y23425
X422365Y2342844
X42267Y233915
X43973Y23415
X44071Y234175
X440715Y233315
X44101Y233225
X441005Y233545
X443505Y233895
X44426Y23289
X444455Y232655
X444525Y232365
X444765Y23228
X44419Y23183
X44359Y2319
X44352Y231445
X44351Y231155
X44355Y230895
X443585Y23026
X44428Y23013
X444305Y230685
X44466Y23067
X445805Y229585
X445985Y22933
X445975Y229005
X44578Y228785
X445725Y2285
X446015Y2284
X44634
X446505Y2281
X447235Y228485
X44803Y228395
X44874Y228285
X450135Y228365
Y22775
X45063Y22763
X450985Y226985
X450725Y226
X45074Y225285
X451015Y22531
X451385Y225085
X451475Y224215
X451075Y22423
X45086Y224625
X45197Y224495
X45203Y22412
X45235Y22403
X45167Y22399
X451095Y22326
X45123Y222445
X45266Y222405
X452655Y2221
X452955Y22199
X45249Y222855
X452295Y223185
X449835Y222685
X448815Y22283
X447865Y223495
X447845Y22388
X448705Y225345
X448685Y226655
X448395Y226785
X44982Y226895
X44981Y225895
X45012Y22545
X44986Y225155
X451875Y225955
X452815Y225935
X45281Y225645
X45263Y227255
X452665Y227555
X4527Y22787
X45299Y227935
X45301Y227245
X451925Y22791
X451595Y2279
X451375Y22811
X450095Y228995
X4523Y229665
X45272Y229465
X452835Y230925
X45176Y23151
X44673Y23336
X44385Y2324
X44254Y23044
X44266Y22928
X442665Y229
X44266Y22867
Y22839
Y228085
X44267Y227765
X442685Y227495
X44269Y225885
X44375Y22617
X443885Y226575
X44535Y226465
X445335Y22678
X44522Y22588
X44489Y22498
X44519Y22445
X444945Y224195
X444625Y22419
X44439Y223945
X44401Y22379
X44361Y22475
X44562Y224645
X446495Y22541
X44651Y226195
X439485Y22634
Y22666
X43952Y22698
X43922Y227115
X43924Y227445
X43894Y22759
X439225Y226525
X43934Y225435
X43926Y225075
X4392Y22479
X43918Y224525
X43926Y22412
X438515Y223865
X43822Y224055
X43789Y224065
X438495Y22478
X43827Y22554
X438595Y22181
X442765Y220505
X443585Y21957
X449105Y22124
X44971Y22136
X45021Y220385
X451025Y220005
X45107Y22108
X451295Y219115
X452295Y21911
X4526
X440225Y228345
X44031Y22864
X439985Y228635
X439115Y23054
X438965Y2308
X43929
X45371Y230825
X45353Y231235
X45352Y229905
X45442Y229855
X454375Y23013
X45417Y22914
X453305Y22904
X453365Y228235
X45332Y22726
X453635Y227355
X454335Y225855
X454585Y225215
X455055Y22558
X455705Y225675
X45568Y22538
Y224955
X45556Y22599
X455585Y2263
X455665Y227185
X456695Y22719
X453725Y225225
X45369Y224855
X45387Y222495
X45386Y22209
X45377Y219415
X453615Y219105
X453165Y21943
X454845Y219075
X457885Y21893
X45777Y21966
X45815Y22013
X45849Y220245
X45855Y220555
X458375Y235645
X45782Y236355
X457825Y236685
X457565Y236815
X457605Y236165
X45796Y237455
X457945Y23926
X45793Y23961
X456895Y239295
X456265Y24011
X455175Y240275
X45516Y240575
X4552Y24106
X454895Y241025
X45513Y241465
X455225Y241745
X454915Y241835
X45478Y242345
X45398Y24189
X4539Y24293
X45321Y242865
X45387Y240735
X454265Y24072
X45456Y24061
X45471Y240035
X45501Y235545
X455285
X456125Y245735
X45635Y24647
X456275Y24677
X45592Y24951
X45567Y24936
X45347Y247985
X458345Y244965
X452905Y24308
X45259Y243065
X45233
X451895Y24309
X451855Y242825
X45189Y24253
X450735Y242625
X450755Y24231
X45081Y24203
X44988Y24193
Y241365
X449745Y24049
X448905Y240295
Y239785
X44936Y239735
X450305Y239875
X45034Y239405
X45033Y239125
X450315Y238675
X45Y238665
X44997Y23835
X45009Y23793
X4501Y23723
X449805Y237455
X44952Y23743
X44955Y237715
X449395Y23696
X449095Y236905
X44897Y23624
X448695Y23625
X447655Y23621
X447675Y235885
X446625Y23582
X44616Y235905
X44631Y235545
X445825Y235535
X44497Y235695
X444905Y235945
X445055Y23681
X444745Y236805
X445035Y237125
X44577Y237065
X445925Y23683
X44597Y237275
X445695Y237455
X44627Y237515
X446155Y2381
X445665
X4455Y23877
X4452Y238735
X44516Y239055
X44483Y23913
X4443241Y2392349
X44395Y239235
X4439177Y2395921
X4439Y239875
X443905Y240185
X44348Y24013
X44347Y23984
X443465Y23954
X44349Y23925
X44301Y2392
Y23895
X44302Y2395
X443005Y23979
X443015Y240095
X44257Y2401
X442575Y2404
X44258Y240695
Y240985
X443025Y24104
X442995Y24073
X44347
X443465Y24042
X44397Y2408
X444275Y240785
X444545Y24077
Y24037
X44447Y240105
X444315Y2405
X44412Y241195
X44372Y241165
X443655Y24166
X443935Y24164
X44441Y241675
X444655Y241685
X44491Y241705
X445165Y24173
X44548Y241725
X445735Y2417
X44556Y24124
X44531Y241175
X44505Y241195
X444805Y24116
X444565Y24124
X444575Y24211
X444875Y24212
X44517
X44548Y242115
X445625Y242645
X44547Y24305
X44538Y24352
X44495Y24354
X444885Y24305
X44458
X44472Y24258
X44397Y243045
X444125Y243525
X443665Y243535
X44317Y243645
Y243335
X44316Y24303
X44318Y24273
X44317Y24242
X443175Y242125
X443165Y24181
X443695Y242105
X44353Y242525
X442565Y24243
X442265Y242425
X44227Y242725
X442265Y24303
X44196Y24304
X441955Y242725
X44196Y24242
X44195Y24213
X441345Y242105
Y24181
X44104
Y2421
X441025Y24241
X44134Y24242
X44135Y243025
X441025Y24302
X44104Y24364
X441345
X441655
X441635Y24412
X44164Y24478
Y245345
X441645Y245645
X44165Y24594
X44209Y245955
X4421Y2462
X442105Y24569
X44253Y24562
X442535Y24591
X44304Y245875
X443035Y24614
X44348Y24603
Y245645
X443565Y245355
X44391Y24534
X444375Y24532
X44468Y245415
Y245705
X444685Y246015
X444295Y245985
X443885Y2462
X443895Y24713
X44401Y24757
X443865Y24781
X443625Y247515
X443365Y247275
X443215Y247045
X44279Y247055
X442805Y247605
X444465Y24755
X44468Y24782
X44545Y247875
X4458Y247825
X44633Y24784
X44632Y247555
X44644Y246915
X4466Y24638
X446595Y245845
X446565Y245335
X44596Y24568
X445635Y245705
X445395Y24581
X44533Y246085
X44522Y246425
X445715Y24627
X44595Y24642
X445725Y246685
X445755Y2471145
X4449Y24717
X44505Y24591
X445045Y245175
X445385Y2452
X44567Y24524
X44555Y244825
X44519Y24477
X44483Y244755
X444605Y245
X444535Y244365
X4442
X444175Y24467
X44393Y24483
X44388Y244425
X44357Y244435
X44347Y244165
X44381Y244065
X44453Y244015
X444835Y24401
X445135Y243995
X445405Y243985
X44542Y24437
X445715Y244405
X44664Y24439
X44752Y244445
X44771Y24466
X44773Y24504
X447515Y244875
X447325Y243475
X447925Y24351
X447825Y243255
X4476Y24307
X44739Y242825
X446555Y242925
X44661Y242605
X446545Y243495
Y241635
X44658Y240805
X44565Y24076
X44539
X445035Y240765
X44557Y24039
X445515Y239995
X445465Y239555
X4451688Y2395704
X44533Y239295
X44561Y239345
X44592Y23938
X44591Y239135
X44592Y238735
X44617Y23895
X4466Y239775
X44771Y24017
X448115Y24015
X44769Y240745
X44745Y239045
X44825Y23893
X4487Y237775
X44873Y237405
X44746Y23744
X44745Y237735
X447485Y238055
X44751Y23715
X44957Y23657
X45034Y236725
X45147Y23646
X451515Y236035
X45152Y23793
X45148Y23831
X451555Y239395
X45181Y239635
X45178Y240935
X45192Y241185
X450695Y243305
X450355Y243555
X45036Y243865
X44987Y243715
X449865Y243425
X44932Y24325
X449055Y24462
X44902Y24559
X44823Y24645
X447935Y24646
X44889Y247235
X44902Y248255
X448415Y248245
X44862Y248505
X44807Y249365
X447555Y249355
X44706Y24937
X44648Y24944
X444835Y249395
X44423Y249645
X443975Y249525
X4437Y24947
X443625Y248885
X442565Y24931
X44172
X44145Y24948
X441225Y2493
X44066Y249605
X44027Y24846
X44028Y24791
X4403Y247025
X44077Y24701
X440665Y247315
X44124Y24721
X441205Y24605
X441175Y245795
X44121Y245325
X44069Y24558
X440675Y24591
X440345Y245905
X440335Y24559
X44034Y24527
X440355Y244985
X44009Y24463
X439985Y244355
X439655Y24434
X43935Y244355
X43906
Y24476
X43937Y244775
X4396987Y2450463
X439965Y245255
X439975Y245545
X439605Y24555
X43932Y245445
X439035Y245585
X43873Y24554
X43866Y2458
X43892Y245875
X43905Y24614
X43871Y24642
X438305Y246435
X438325Y245995
X438295Y245665
X438745Y24516
X439095Y245155
X438725Y24477
X438705Y24394
X439005Y24393
X439045Y243445
X438745Y24344
X438725Y24301
X43903Y243015
X439325Y24301
X43963Y243015
X43964Y243445
X439345Y24344
X439945Y24345
X439915Y24394
X439615
X440525Y24395
X440645Y244345
X440715Y244645
X44125Y244435
X44205Y24495
X44257Y244755
X44256Y24446
X44297Y24445
X44299Y244175
X442565Y243655
X44226Y243645
X442565Y2421
Y24151
X44225Y2415
X441945
X44136
X441055
X440565Y241075
X440295Y24116
X439965Y241135
X439685
X439365
X439075Y24112
X438785Y241125
X43876Y24166
X43906Y24165
X439365Y241665
X439665Y24166
X439965Y241645
X440255Y241655
X440235Y242115
X43992Y242095
X43963Y2421
X43933Y242095
X43905Y24209
X43874Y242085
X43853Y240805
X43908Y24079
X439385Y240795
X4396895Y2407945
X43946Y240375
X43916
X438845Y240385
X43881Y240015
X439125
X4392191Y2397302
X43951Y23974
X43953Y23944
X439525Y23913
X43995Y239245
X439945Y23956
X43994Y23988
X44033Y23981
X44034Y23951
X44069Y23948
Y23919
X44072Y2398
X440715Y240105
X440745Y24043
X4407Y240715
X440325
X44123Y240385
X441235Y24008
X44167Y240125
X441655Y240405
X44164Y24072
X441625Y24102
X4416623Y2395361
X441685Y239205
X44257Y239195
X44258Y239495
X44256Y2398
X442955Y23801
X44208Y238095
X440745Y23807
X44074Y237755
X440745Y23741
X439685Y237895
X43898Y23872
X43867Y23876
X438505Y23849
X43845Y239135
X43857Y23947
X43827Y239475
X43883Y239325
X43887Y239005
X43909Y239495
X438555Y239905
X439615Y240165
X437635Y23913
X43761Y241585
X43762Y244265
X43763Y245295
X437625Y24638
X437585Y2467
X4376Y247085
X43767Y24744
X43809Y247325
X43784Y246865
X437925Y249075
X437625Y24941
X442095Y24992
X442565Y24536
X443095Y24502
X44352Y24476
X439865Y245895
X439425Y245885
X4395Y235575
X439195
X438955Y23537
X439765Y235375
X4397Y23512
X439635Y23479
X43963Y23447
X440695Y234485
X44069Y23481
X440695Y235095
X440545Y23538
X440855Y23539
X443505Y23547
Y235735
X445355Y23454
X44698Y234565
X448895Y23469
X450165Y234675
X449575Y235455
X44945Y235685
X444845Y238065
X4446433Y2396098
X449595Y24777
X451385Y24998
X452645Y249975
X452935Y24997
X43488Y249655
X43453
X434675Y249095
X43438Y24909
X434845Y24866
X43441Y247825
X434275Y247555
X43459Y24756
X43394Y24757
X433635Y247565
X433315Y24758
X433
X432675Y24756
X432355
X432515Y247835
X43315Y24785
X433805Y247875
X43314Y248645
X433195Y24904
X432125Y249065
X431685Y24911
X4317Y24862
X431135Y247885
X431365Y24724
X43147Y24665
X42976Y247275
X427975Y24769
X42766
X4278Y24793
X42679Y24809
X426465
X426635Y248355
X42665Y24901
X426485Y249285
X426165Y249275
X425975Y24901
X425465Y24915
X42548Y2477
X425485Y24738
X42573Y247185
X425745Y247825
X422595Y247815
X422075Y249015
X422135Y24951
X423285Y24947
X42794Y24998
X428885Y24962
X4294Y249645
X429365Y24442
X429655Y24429
Y243965
X429405Y24381
X42982Y24367
X429825Y24336
X429795Y24306
X4293Y243125
X428975Y24312
X42862
X42831
X42847Y243385
X4288Y242835
X42901Y2417
X42928Y24157
X42927Y241905
X428245Y24197
X428235Y2417
X42823Y24138
X428305Y241095
X42717Y242135
X427165Y242455
X42689Y242295
X42659Y24327
X42627Y243265
X42644Y243535
X427035Y24378
X427355Y243785
X4271895Y2440528
X427075Y24474
X42675
X42643Y24472
X42578Y24468
X425785Y24439
X425775Y24406
X42575Y24375
X42738Y24476
X43134Y24389
X431615Y24373
X43161Y244055
X4315332Y239879
X433135Y24
X433415Y24006
Y23974
X43346Y23896
X433425Y238655
X433755Y238535
X434065Y23865
X43387Y23746
X43378Y2367
X433865Y23642
X433545
X433365Y23679
X431525Y23638
X43156Y238075
X430155Y23819
X43017Y23724
X429205Y238835
X42876Y23885
X42624Y2365044
X425195Y234725
X422405Y23544
X42206Y23546
X422085Y23629
X422375Y236275
X42268Y23625
X422495Y23707
X422165Y2371
X42222Y238
X421925Y23803
X421945Y23846
X42488Y240575
X43267Y24047
X432955Y24055
X43295Y240225
X436085Y238705
X436395Y23871
X436255Y23845
X437435Y238925
X4374335Y2379446
X437425Y237635
X437415Y237315
X43734Y24164
X437075Y241625
X43747Y243045
X421365Y24094
X42138Y240665
X421385Y24038
X42098Y240465
X42069Y24059
X42088Y24105
X42015Y241165
X419965Y241395
X41972Y241545
X418005Y239045
X41828Y237785
X42112Y237475
X4214
X42176Y23733
X421785Y23762
X42178Y23702
X421655Y236375
X42137Y23637
X42149Y235475
X421775Y23546
X421765Y23467
X421485Y23465
X421055Y235295
X42138Y238485
X42168Y238455
X41435Y23771
X41407Y237845
X414085Y237545
Y23722
X41381Y237085
X41344Y2369
X413295Y23715
X41284Y236925
Y23622
X412475Y236565
X41212
X411755
X4114
X411395Y236205
X411755
X41176Y235845
X411405
Y235485
X411765
Y23513
X411405Y235125
X411045Y23513
X410685Y235125
Y234415
X411045
X411405
X411765
X412125
X41248
X41284Y235485
X412115Y23549
X411035Y235845
X41033Y23587
X409965Y235855
X409605
X409255Y235875
X40899Y235795
X408764Y2355511
X40878Y235235
X40879Y234745
X4087764Y2344321
X409245Y23441
X40918Y23484
X40962Y234765
X409945
X409965Y23441
Y23513
X410335Y23476
X40956Y23549
X409225Y235495
X40874Y236535
X408635Y23684
X408585Y237195
X40821Y237225
X407875Y237195
X40753Y237205
X4072565Y237219
X40669Y237265
X40671Y23766
X406725Y23838
X407095Y238385
X40709Y23803
X407075Y23874
Y2391
X40708Y239445
X407075Y23982
Y24018
X4073035Y240281
X4079836Y240241
X4087035
X4094135Y240251
X4101286Y240246
X4108585Y240256
X4115836Y240241
X4114Y239445
X411405Y23909
X411395Y238745
X411385Y238385
X411025Y23839
X41068Y238385
X410675Y23873
X410685Y23909
X41068Y239445
X40996
X409965Y23909
X409955Y238745
X40995Y23839
X410305
X410315Y238015
X409955Y23801
X409595Y238015
Y23838
X409235Y23839
X40889Y238375
X40853
Y238735
X408525Y23909
X40852Y239445
X4078
X407805Y23909
X40781Y238735
X4078Y23838
X40817Y238375
X408155Y238015
X40816Y23766
X4078Y237665
X407795Y23801
X408515
X408525Y237665
X408885Y23768
X408875Y238015
X409235Y23801
X40924Y237665
X40925Y238735
X409245Y23909
X40924Y239445
X40996Y237285
X410315Y236935
X410675
Y23657
X41032Y236575
X41175Y23692
X411755Y237645
X412115
Y238005
X41248
X412835
Y238365
X412485Y23837
X41212Y238365
X41211Y23873
X412105Y239085
X41212Y239445
X41248Y239085
X412475Y23874
X41284Y238725
X4132Y238365
X41364Y238765
X413555Y23955
X41291Y2398
X41251Y240155
X411745Y238395
X411755Y238015
X411405Y23801
X411395Y237645
X411045Y237655
X411035Y238015
X410685Y23801
X412475Y237645
X41284
X413625Y236335
X413606Y2356815
X413601Y2349765
X40719Y235025
X40721Y23531
X4072179Y2357021
X40722Y236005
X40724Y236355
X40698Y2365
X4071931Y2345459
X406805Y23446
X408765Y242655
X40875Y242935
X40915Y24292
X408905Y247505
X40892Y247775
X4089Y24807
X409605Y247825
X4099
X41017Y24821
X410655Y24758
X410665Y247305
X411755Y248055
X412435Y24842
X412245Y24901
X413325Y24912
X4137Y249125
X416775Y249235
X41707
X41708Y24874
X417665Y248735
X419015Y248805
X419045Y249125
X41936Y249095
X420025Y249155
X42002Y248835
Y248545
X419045Y24847
X421295Y249975
X4098Y249425
X40796Y24934
X4084Y24756
X40775Y246935
X40716Y247905
X406305Y249945
X405145Y24889
X404625Y24745
Y247175
X403815Y24725
X40376Y24691
X40097Y24817
Y249425
X40133Y24058
X40134Y24015
X401345Y23979
X401705
X40169Y23944
X40133
X40098Y23943
Y23907
X401335
X40134Y23871
X40098
X40094Y23835
X40131Y23836
X40167
Y238
X4017Y23767
Y23731
X401355Y237275
X401335Y23763
X40097Y23764
Y238
X40027Y237985
X40025Y23764
X39989
X39953
X39917
X39918Y23799
X39953Y238
Y23836
X39989
Y238
X400255Y238345
X40026Y23871
X3999
X400255Y23909
X40043Y24023
X40183
X40222Y24024
X40259Y24027
X4024Y239805
X40205Y23908
X4017Y23907
Y23871
X40238
X40239Y23836
X40275
Y238
X40239
Y23764
X40275
Y23728
X402775Y23695
X402425Y236905
X40205Y23692
Y23728
X4017Y23691
X401335Y236905
X40094Y23695
X400965Y237265
X40062Y23727
Y23691
X400975Y236545
X40096Y235705
Y235335
X401315Y235345
X401675
X402035
Y234985
X401675
X401315
X400625Y23497
X400595Y23535
X39989Y235335
X399875Y234985
X39988Y234635
X400235Y234625
X399175Y23461
X39918Y235335
X399165Y235705
X39964Y23575
X399905Y235715
X399815Y236485
X39986Y23691
X3995Y23695
X399175Y2369
X3999Y23727
X399145Y23872
X399165Y239425
X40187Y24067
X40331Y24023
X40405Y24056
X4044Y24023
X4042Y239805
X403845Y23945
X40422Y23907
X40418Y23871
X40419Y23836
Y238
X40418Y23763
X40455Y23766
X40491
X40494Y23799
X40491Y23836
X404905Y23871
X40526
Y23835
X40455
X40454Y23731
X40494
X40564Y23725
X406Y237295
X406185Y237055
X40616Y23659
X4054224Y2362824
X40542Y235985
X405415Y235555
X4054342Y2352611
X4051268Y235255
Y2355
X4051161Y2346185
X40544Y234505
X4054312Y2348205
X40276Y234985
X402395
X4024Y234625
X40204
X402045Y23571
X401685
X40133Y2357
X402395Y235725
X402755Y235345
X40314Y23731
X4035
X40347Y23766
X40349Y23802
X40347Y23836
X40314Y23839
X4031Y23871
X40274Y23875
X40314Y23907
X4035Y23871
X4031Y23799
X40202Y23803
X404165Y237245
X40564Y237665
X406005Y23801
X40598Y23871
X4062085Y239541
X40528Y239085
X4049Y23907
X40492Y239445
X4051035Y240241
X3987702Y2351815
X386525Y238385
X383415Y23723
X382405Y23727
X38271Y235465
X383205Y23544
X382965Y239315
X38266Y2393
X382645Y24073
X383015Y240725
X37938Y239755
X379345Y239405
X37893Y239945
X37889Y241505
X3787Y24197
X3791Y241975
X375385Y241755
X375035Y24182
X375395Y242435
X375215Y242625
X375325Y244065
X37534Y24479
X375355Y24565
X375405Y246335
X375435Y247735
X3754Y24844
X375405Y249125
X375105Y249135
X37541Y2498
X375235Y249995
X37845Y24774
X37841Y24707
X37937Y24714
Y247465
X379315Y236915
X379055Y236455
X37865Y236465
X378425Y23578
X375235Y2358
X375435Y235205
X37542Y23822
X37525Y238915
X375465Y23995
X37494Y240315
X374785Y238915
X37447Y23834
X374775Y23579
X37449Y23527
X371325Y235475
X37132Y235745
X371333Y2362131
X37132Y23648
X37133Y236965
X3713366Y2372278
X37133Y237765
X371325Y238015
X3713073Y2384844
X3713126Y238716
X3713305Y2391572
X371315Y239465
Y239905
Y24017
X37133Y240705
X3713166Y2409827
X37133Y241425
X3713282Y2416731
X37132Y242145
Y242415
X3713325Y2428887
X37134Y243125
X371343Y2436112
X371345Y243865
X3698032Y2438816
X369805Y243625
X3698333Y2431434
X369825Y24287
X369815Y242395
X369805Y24211
X3698Y241645
X36981Y24138
X3698198Y2408942
X36981Y24062
X36983Y240125
X369815Y23988
Y239385
X369825Y239125
X369065Y234445
X3745Y241445
X37451Y24205
X374735Y24218
X3745Y242715
X374535Y24298
Y243245
X374545Y243545
X374555Y24443
X374535Y245135
X37443Y24538
X374525Y246125
X374505Y246785
X374545Y24716
Y247465
X374815Y247575
X37474Y24698
X374465Y24809
X374455Y248735
X37451Y2494
X37474Y24955
X369985Y249245
X370065Y24869
X3700769Y248375
X37009Y247945
X370095Y24765
X367085Y24939
X36708Y24975
X36808Y25005
X36845Y250175
X369085Y25023
X3690749Y2510294
X369055Y2513046
X36874Y25116
X3683925Y2512956
X368395Y250995
X36804Y25166
X367355Y251565
X367625Y252935
X36699Y253645
X36905Y253025
X369355Y252975
X369675Y25308
X36885Y25208
X369825Y251375
X369805Y25107
X374535Y250925
X37454Y250615
X374555Y25034
X37451Y250075
X374565Y25181
X374545Y25249
X37451Y253515
X3745Y25418
X374545Y25454
Y254845
X3748Y254935
X374455Y25545
X374535Y255855
X374445Y256135
X374995Y258595
X37275Y25907
X37246Y259095
X372275Y25932
X37193Y2593
X371755Y26027
X37173Y260585
X37171Y26091
X37355Y260855
X373765Y263175
X374285Y263065
X374565Y26398
X37441Y264815
Y265225
X374415Y26559
X373015Y264455
X372615Y264515
X371715Y264555
X3717Y26425
X37171Y26395
X371705Y2636
X371035Y263105
X370585Y26375
X37055Y264555
X370545Y26483
X37024Y265035
X369385Y26279
X36933Y26204
X37038Y261685
X37014Y26133
X369885Y261
X3689
X37036Y259845
X37007Y25938
X37123Y256295
X36548Y26282
X375225Y26299
X37557Y263665
X37567Y26531
X378825Y2654
X37868Y26082
X378955Y25868
X378905Y25576
X37539Y25586
X375285Y25557
X37543Y255095
X3754Y253725
X375345Y253015
X37534Y252145
X37532Y251445
X376995Y261915
X38009Y26192
X383025Y25868
X382615Y256675
X38635Y258465
X387135Y25911
X388765Y26019
X389135Y26138
X39012Y26117
X39019Y26076
X39034Y260205
X390465Y26144
X390085Y26237
X39013Y26317
X390365Y263395
X390135Y263665
X38968Y265195
X38887Y2651
X38827Y265385
X386655Y262175
X38634Y26139
X38987Y25909
X39015Y25781
X390105Y257065
X389195Y25709
X38879Y256515
X3896Y255945
X39067Y256555
X391145Y2568172
X39142Y256395
X39174Y25639
X3916Y25579
X39256Y256355
Y25676
X39288Y256755
X392905Y25717
X39286Y25756
X392495Y25816
X392715Y258435
X393155Y2585
X39375Y25794
X393885Y257125
X394555Y25706
X39493Y257065
X394615Y25668
X394285Y25613
X39386Y25611
X394075Y258805
X394955Y25923
X395285Y259225
X39566Y26015
X39515Y26049
X39467Y26065
X394275Y26058
X394245Y260165
X393935Y26014
X393365Y260305
X39324Y26105
X392295Y26127
X39193Y26118
X39196Y260805
X39088Y26112
X39083Y26142
X39097Y26242
X39063Y263145
X390625Y263665
X39204Y264515
X391955Y26499
X392765Y2655
X393015Y264515
X39332Y264595
X39362Y264875
X3929735Y2625428
X39267Y262545
X39232Y26255
X392015Y26254
X392075Y262165
X394945Y26206
X395355Y262055
X395555Y262315
X39776Y261895
Y261515
X397795Y26111
X397775Y26077
X39876Y26059
X398725Y26022
X398695Y25991
X39854Y2595
X398655Y259115
X398945Y258715
X398975Y25831
X399325Y25762
X40006Y258185
X400455Y25818
X400845Y25891
X399905Y25924
X400145Y26064
X40063Y261205
X40093Y261035
X40088Y262525
X400485Y262475
X400055Y262295
X399685Y26134
X398795Y26117
X398805Y26152
X398755Y26192
X404825Y26232
X405915Y261795
X40545Y261065
X40537Y259525
X40597Y25912
X40605Y26004
X40536Y258335
X40618Y25374
X39781Y253775
X39791Y25266
X39792Y251735
X39189Y2571172
X39185Y257565
X391475Y258195
X391145Y259095
X39081Y258895
X391325Y259495
X39241Y259445
X39264Y259695
X392225Y25888
X406035Y26374
X40531Y265095
X40637Y265185
X406655Y26465
X40717Y264045
X40791Y263805
X40838Y262925
X40846Y26199
X40796Y26154
X408305Y261045
X408455Y26074
X408355Y259855
X40835Y25944
X40822Y25892
X407855Y25891
Y25799
X40848Y258035
X40915Y257995
X409Y25829
X409845Y258085
X409705Y258775
X41062Y258705
X411495Y258825
X41186Y25879
X41231Y258785
X41274Y25882
X41302Y25871
X413315Y25873
X413835Y258715
X413965Y25901
X414275Y2588
X414585Y25884
X41528Y25908
X415595Y25909
X415895Y25908
X41567Y25848
X41538Y25842
X41596Y25771
X415615Y256365
X415175Y25654
X41628Y256125
X416175Y25559
X416725Y2552
X416385Y254335
X416675Y253905
X415935Y253735
X415735Y25277
X41573Y252475
X41542Y252705
X41432Y25281
X414385Y252445
X414055Y252985
X413935Y25176
X41354Y25183
X413145Y251835
X412725Y251845
X41235Y25182
X41194Y251835
X411545Y25187
X411145Y251865
X41119Y251545
X41014Y25165
X410155Y25126
X409875Y250485
X41037Y250275
X410755Y250795
X411945Y251035
X412945Y250995
X413375Y251095
X41377Y25063
X413295Y25031
X41574Y25107
X41678Y251235
X41719Y25123
X41758Y25121
X419945Y25021
X420245Y250225
X42098Y25217
X42097Y25255
X421015Y2533672
X421005Y25376
X420635Y256485
X42026Y256475
X418615Y25596
X419075Y258645
X41871Y260265
X41819Y26059
X41821Y260935
X417655Y26021
X417035Y26009
X417075Y259745
X41703Y260565
X416905Y26083
X41688Y26118
X41696Y261615
X416035Y26194
X41561Y26219
X41485Y262085
X414455Y26164
X41456Y26085
X415685Y26082
X415705Y260505
X415675Y26019
X41572Y26116
X41796Y26197
X418885Y261755
X419305Y26197
X41944Y26138
X419875Y261345
X419765Y26298
X416535Y26469
X41621Y264685
X41591Y265355
X415595Y26535
X414695Y265305
X41434Y265325
X413685Y265595
X413885Y26447
X413895Y26397
X413065Y264575
X41544Y26414
X412725Y260825
X41197Y261095
X411315Y25963
X41164Y258315
X41145Y25806
X411845Y25804
X411045Y258035
X41105Y256945
X41024
X40915Y256925
X40886Y256835
X407885Y25675
X40802Y25646
X40801Y25555
X40805Y25524
X40863Y25503
X409155Y25525
X409045Y25445
X41001Y254485
X410645Y25443
X410465Y255265
X41015Y25527
X411205Y255265
X411565Y25511
X411905Y255125
X41223Y25528
X412745Y255255
X413105Y25526
X413405Y25525
X413445Y254585
X414005Y254575
X412805Y254545
X412385Y254885
X41189Y25448
X41187Y25294
X412165Y25293
X410735Y25275
X41048Y252895
X410155Y252905
X409875Y25295
X40941Y252925
X407845Y25277
X40788Y25182
X40835Y251805
X40911Y250925
X409035Y250305
X406415Y250965
X40667Y25149
X40701Y253055
X407825Y253875
X40636Y258015
X406335Y25835
Y258635
X406885Y25882
X40691Y26104
X407265Y262095
X40682Y26298
X406295Y26358
X4078Y26546
X409205Y262345
X409755Y261095
X409935Y26085
X409705Y260145
X40945Y25952
X408965Y259855
X41184Y25691
X412205Y256985
X412565Y256945
X41299Y256975
X413385Y256925
X421425Y25862
X423035Y25817
X423315Y25899
X423415Y259575
X423485Y261495
X4226Y26197
X422735Y26368
X42341Y265605
X426255Y264235
X426025Y26249
X425655Y26043
X4265Y25961
X42601Y25856
X426295Y256405
X425395Y256485
X423805Y25652
X424435Y254885
X424985Y25479
X425535Y253845
X42586
X426125Y253705
X425995Y25343
Y253085
X42593Y25281
X4257Y253585
X42459Y25362
X424225Y253605
X424525Y253285
X422655Y254035
X42262Y254355
X427315Y252725
Y252405
X427735Y25226
X427765Y25291
X42771Y25039
X427375Y25035
X42852Y250245
X42877Y251335
X429285Y25108
X430285Y251975
X43071Y25249
X430735Y25339
X430695Y253795
X43018Y25401
X42997Y25425
X429965Y254555
X429725Y25473
X430315Y256195
X43058Y258325
X43076Y259385
X430875Y262915
X43117Y2629
X43394Y26316
X434255Y26315
X43455Y263145
X43513Y263085
X435155Y263985
X43384Y263425
X43406Y262265
X43414Y26038
X4347Y25995
X43469Y258685
X43641Y25999
X436715Y260025
X437455Y26019
X43632Y260945
X43647Y26124
X436145Y26125
X437165Y264065
X43723Y26435
X43722Y26467
X437405Y264865
X434345Y265115
X42859Y262285
X4313Y25307
X431635Y25319
X43199Y253205
X43236Y25319
X43269Y253485
X432385Y252
X43201Y25201
X43105Y250935
X43147Y25035
X43188Y25006
X435235Y25076
X435575Y251275
X43587Y25168
X435825Y25197
X436165Y25196
X436205Y252245
X436355Y25249
X4368Y252545
X437025Y252735
X437225Y252945
X437425Y25319
X437015Y25327
X436905Y253565
X43663Y25354
X43717Y25361
X437445Y2537
X436525Y25505
X436395Y256165
X436815Y256155
X436795Y25647
X436445Y25708
X43656Y257365
X43746Y257345
X43588Y252955
X435345Y252175
X434835Y251935
X43397Y25294
X437735Y25379
X43853Y254225
X4383Y254525
X438305Y254925
X438685Y255375
X439015Y255565
X439215Y25577
X439645Y255855
X43965Y25625
X439895Y256485
X43968Y257285
X439165Y25722
X438085Y25658
X43825Y255965
X438935Y254695
X43943Y255165
X4409Y257105
X439835Y259275
X4377Y26
X437725Y26031
X43789Y26058
X437565Y260585
X43814Y26088
X438155Y261205
Y26148
X439Y261305
X439105Y2616
X43812Y26283
X43813Y263825
X442195Y26232
X442205Y261935
X44221Y26137
X442225Y26099
X444555Y264985
X445055Y26554
X445605Y26466
X44626Y264615
X44699Y264745
X4486Y263455
X44959Y2652
X45023Y255845
X45079Y255865
X451085Y255855
X45026Y254055
X449995Y25234
X449255Y25238
X449115Y25204
X44883Y25205
X448345Y25199
X44796Y252415
X44757Y25276
X447105Y253385
X446835Y254755
X44565Y254705
X44462Y254105
X44433Y25353
X44498Y253475
X44481Y252975
X444825Y252675
X444905Y252005
X444725Y251705
X445495Y25157
X44578Y251565
X444085Y252025
X4437Y25299
X44332Y2514
X442565Y25134
X442315Y25114
X442205Y25224
X441975Y25206
X43861Y25174
X438365Y251505
X4492Y251555
X45017Y251505
X450845Y25035
X45113Y25028
X451405
X452275Y250395
X44881Y25261
X44871Y25329
X453685Y25009
X4568Y252825
X4571Y26607
X45735Y26698
X45762Y266985
X458315Y267045
X458335Y26579
X459645Y26715
X45344Y265915
X453155Y265935
X45288Y265925
X45258
X45208Y2661
X45228Y26662
X45165Y26667
X451205Y267945
X450935Y267815
X45065Y267855
X450625Y267555
X45032Y267565
X45022Y267875
X449935Y26792
X44963Y26791
X448Y267905
X447705Y267915
X447635Y266035
X44819Y266015
X44846Y266005
X44878Y266025
X4503Y265905
X4442Y266325
X44074Y26612
X4404Y266175
X43535Y265865
X434315Y265885
X417185Y266235
X41718Y267225
X414335Y26763
X414855Y26575
X412505Y26686
X407555Y26656
X4075Y26712
X40718Y26615
X40595Y2662
X395115Y26574
X394575Y26673
X39423Y26672
X39363Y2659
X391415Y265695
X39048Y265685
X39012Y265675
X3823Y265885
X382305Y267015
X38264Y267035
X381045Y26786
X38073Y26787
X37578Y266285
X375815Y26572
T02
X458095Y178475
X453055Y18122
X453075Y18158
X45247Y181815
X45216Y181845
X449735Y181115
X44938Y18115
X449075Y18117
X4497137Y1752431
X45009Y175265
X45047Y17478
X45091
X4135258Y18122
X413535Y181725
X413115Y181735
X412525
X41232Y182245
X412895Y18226
X413535Y18225
X412875Y18122
X412265Y181255
X41422Y185
X413475Y185975
X415205Y186
X41693Y18605
X41611Y18499
X38207Y1865
X38072Y186675
X3802Y187115
X380335Y187405
X379635Y185575
X378715Y178335
Y17799
X37138Y19496
X370715Y1958
X370645Y19653
X370665Y1969
X370645Y19727
X37065Y19759
X369505Y1958
X369155Y19562
X37627Y195375
X376335Y195045
X37626Y19465
X3773628Y1930625
X37657Y19086
X37667Y18805
X37639
X377075Y18808
X377345Y188065
X377745Y188055
X378073Y18807
X378505Y188285
X37891Y188265
X38069Y19012
Y19182
X380735Y19364
X383025Y19065
X385555Y19176
X386055Y192195
X38656Y19174
X386555Y19276
X38556Y192755
X39122Y19232
X39128Y190625
X391115Y194155
X395795Y192855
X39626Y192385
X396755Y19284
Y191875
X39574Y19188
X401385Y192155
X401495Y19034
X40147Y19402
X40606Y192645
X40607Y19162
X406595Y19211
X407095Y191605
X40708Y19263
X41125Y19204
X41126Y19037
X41129Y193865
X415835Y192615
X415855Y191645
X41636Y19211
X416845Y19261
Y191605
X419775Y19831
X420075Y198535
X403605Y22907
X40362Y229365
X40361Y22976
X403605Y23006
X4036087Y2305089
X40362Y230795
X403565Y23223
Y232555
X40355Y23297
X4035545Y2332941
X403545Y233705
Y234025
X408772Y2308073
X4087732Y2304513
X40878Y230045
Y229745
X408775Y2294
X4087779Y229089
X40955Y22903
X45756Y22094
X44164Y247775
X441255Y24778
X440865Y247725
X433315Y249925
X43743Y2386117
Y238255
X403585Y23565
X403595Y235365
X403555Y23477
X403545Y23446
X40315Y23579
X40327Y24908
Y24937
Y24966
X3794424Y2355707
X36535Y235575
X36534Y235025
X371565Y257775
X371745Y25983
X373655Y258835
X37408
X3857307Y2608478
X394625Y2584
X39463Y25792
X394975Y258165
X395325Y257915
X395345Y258405
X395895Y25723
X40064Y259775
X40063Y26022
X40103Y25999
X401415Y25977
X40141Y260215
X401945Y26078
X402165Y259525
X402437Y2595281
X402425Y25923
X402765Y25925
X4027596Y259528
X40305Y25953
X4030707Y2592338
X4033728Y2592361
X40338Y25953
X40393Y25954
X403905Y25923
X4024653Y2587812
X4032633Y26105
X40401Y26107
X40524Y256405
X40532Y255505
X40531Y25509
X405315Y25478
Y254
X40531Y25355
Y253255
X405315Y252845
X40532Y252545
X403025Y250865
Y250525
X40302Y250185
X395415Y26446
X394975Y26445
X41749Y253495
X4179Y2534972
X417915Y2532672
X417665Y25324
X417275Y253245
X417485Y252975
X417875Y25298
X41889Y252935
X419155Y252975
X41917Y25323
X418875Y253225
X41887Y25351
X41918Y253525
X42006Y254965
X42025Y25533
X420555Y25532
X42085Y255315
X424415Y252975
X424435Y25273
X42444Y25241
X424435Y251465
X4244177Y2511483
X4321837Y251136
X43217Y25086
X4325014Y250988
X432915Y250865
X4329112Y2511565
X43308Y251975
X433435Y251935
X4344722Y2513598
T03
X450965Y17774
X450985Y17732
X450515Y177335
X4505239Y1777263
X450065Y177335
X37533Y175055
X37649Y182545
Y182915
Y183285
X37685Y18329
X37688Y18292
X376865Y182525
X3776981Y186064
X3780669Y1860346
X37848Y18605
X3786585Y1872532
X37828Y18726
X37788Y187305
X379375Y184595
X374895Y17508
X3672734Y1895874
X367265Y190455
X3681Y19042
X368085Y192105
X3672925Y1921704
X36724Y192915
X367315Y193875
X3673Y194555
X368075Y19382
X3672172Y191289
X37273Y199925
X37315Y19991
X37354Y1999
X373345Y20031
X37442Y199915
X37485Y19986
Y200305
X3746773Y199154
X374255Y199145
X37426Y198695
X374655Y19868
X37505Y198695
X37548Y19872
X37546Y19913
X37507Y199165
X377685Y199755
X3776941Y200182
X377705Y20058
X37811Y200555
X3781075Y2001429
X3781397Y1997645
X3795733Y1998017
X379545Y200135
Y20058
X3796951Y195607
X37999Y1956
X38001Y19487
X379685Y194855
X42214Y203985
X4225Y20396
X4229378Y2044701
X422935Y204895
X4229388Y2053762
X422885Y20572
X422275Y205705
X4218961Y2056911
X42211Y205345
X4224719Y2053619
X43437Y20625
X434375Y206665
X4344Y208145
X42168Y210335
X421675Y21073
X42168Y21114
X419475Y211115
X418545Y21108
X41855Y21067
X418545Y210265
X41694Y210275
X41695Y210675
X416945Y21107
X415945Y211115
X415255Y2111
X41431Y211055
X41432Y21066
X41431Y21026
X41271Y2103
Y210695
X412715Y2111
X41176Y21109
X411015Y211085
X41002Y21104
Y210635
Y21024
X40838Y21029
X408385Y21068
X408375Y21108
X40759
X40757Y210685
X40758Y21028
X4066172Y2136053
X408425Y213795
X409695Y213775
X4101
X410525Y21378
X41061Y213265
X41122Y213775
X411855Y21372
X41252Y213715
X413Y21374
X41384Y213705
X41428Y21371
X41477Y213735
X4166Y21371
X417165Y21372
X4181441Y2137265
X418605Y21374
X419055Y213765
X419645Y213715
X420095Y213735
X42054Y21374
X41763Y21657
X416785Y21659
X415615Y21658
X41427Y21656
X41278Y216585
X411525Y216555
X419975Y205515
X42Y20509
X420395Y20508
X420415Y20555
X420835
X4216853Y2053672
X42176Y203975
X42181Y20363
X421075Y20376
Y204145
X42062Y20414
Y20374
X420625Y20333
X421075Y203325
X40583Y210285
X40584Y21067
X405835Y21107
X40388
X403885Y210655
Y210265
X40324Y21107
X402595Y21105
X40159Y211055
X401585Y210665
X40159Y210265
X399945Y21031
X39994Y210705
X4000445Y2135946
X39955Y21356
X39901Y213605
X401525Y21357
X40201Y213615
X4028Y21364
X40337
X403965Y21357
X40439Y213575
X4051414Y2136053
X40553Y213575
X40618Y213555
X406125Y214475
X40518Y21447
X40414Y21443
X4031218Y2144091
X402125Y214395
X401045
X4026329Y2155041
X403535Y21551
X4045035Y2155645
X40546Y21557
X4049455Y2167427
X404005Y21674
X404535Y217535
X396545Y213145
X39655Y212755
X396535Y212345
X391165Y20385
X38286Y205265
Y20572
X382415
X38239Y205245
X36728Y216675
X367275Y217035
X366877Y2170235
X366888Y216673
X3665Y21667
X3664872Y2170331
X3666812Y2207266
X36628Y22074
Y221135
Y221565
X366692Y2215371
X366705Y22115
X37125Y229985
X3712528Y2304102
X371245Y230805
X37124Y231185
X371235Y231595
X3712382Y2320087
X37124Y2324
X37122Y232835
X411545Y219555
X412805Y21957
X41344Y219565
X414835Y219475
X4175051Y2195698
X41813Y219595
X41952Y21965
X420685Y219585
X43553Y22831
X435925Y22826
X435775Y228715
X43575Y23059
X43532Y23092
X437865Y222815
X43789Y22234
X438305Y22273
X452845Y22138
X452825Y22104
X45283Y22068
X41842Y248465
Y248865
X418175Y24918
X3789634Y2379731
X371565Y265545
X36603Y261
X36602Y26053
X366025Y26009
X387655Y25832
X388065Y25833
X38844Y25831
X388825Y25833
X389195Y258325
X389565
X38993Y25831
X390315Y258315
X38787Y25794
X392945Y25535
X392955Y25485
X39295Y254325
X3929536Y2539081
X39296Y25344
X395465Y25326
X39547Y252775
X39597Y25277
X39644
X396425Y253255
X395975Y25325
X397065Y25508
Y25553
X39693Y25617
X396935Y256625
X3968652Y2574804
X39731Y257475
X397715Y25749
X3981
X39847Y257475
X39621Y25791
X395905Y25895
X39686Y25909
X397275Y259115
X397425Y259475
X396315Y2633
Y263745
X39626Y264525
X39666Y26454
X397065Y264525
X39502Y26368
X39501Y263275
X39487Y25646
X394865Y25597
X394825Y25547
X39482Y255025
X417275Y25644
X41753Y256215
X417845Y256415
X427425Y256325
X4278245Y2563437
X4282339Y2563221
X431755Y2563772
X43214Y25638
X4297409Y2529848
X42929Y25299
X42703Y25191
Y251525
X42704Y251075
X44734Y256425
X447765Y25638
X447785Y256775
X39742Y267035
X397025Y26704
X396625Y267015
X3962008Y2670088
X39581Y267025
X39539Y267015
X39042Y26706
X39011Y26705
X3898Y2670457
X38953Y26705
X3892Y26703
X372095Y26626
X37181Y265965
T04
X457235Y17434
X456625
X456005
X44764Y17578
X448Y1767
X44763Y17758
X44673Y17796
X44583Y17758
X44547Y17668
X44584Y17578
X44672Y17541
X42964Y17579
X43Y17671
X42963Y17759
X42873Y17797
X42783Y17759
X42747Y17669
X42784Y17579
X42872Y17542
X36772Y18475
X36808Y18567
X36771Y18655
X36681Y18693
X36591Y18655
X36555Y18565
X36592Y18475
X3668Y18438
X44779Y23397
X44853
X45385Y23681
X45473Y23644
X45565Y23681
X45601Y23773
X45564Y23861
X45474Y23899
X45384Y23861
X45348Y23771
X3681Y23763
X36773Y23851
X36683Y23889
X36593Y23851
X36557Y23761
X36594Y23671
X36682Y23634
X36774Y23671
X36772Y26525
X3668Y26488
X36592Y26525
X398965Y25263
X3994Y25262
X39988
X3998243Y2521804
X39943Y25217
X398985Y25219
X4020169Y2521417
X402425Y252145
X402805Y25216
X402835Y25265
X40243Y252645
X402025Y252635
X42186Y252005
X4217957Y251581
X4217966Y251171
X421779Y2508006
X42221Y25078
X42219Y25118
X4222161Y2515771
X42222Y2520313
X42263
X42264Y251615
X422635Y2512
Y25078
X43217Y25387
X432195Y254305
X432095Y25485
X43467Y25495
X435105Y254905
X43483Y25462
X42969Y26529
X42877Y26492
X42789Y26529
X4381Y25847
X438435Y25877
X43879Y258745
X44102Y25845
X4409229Y2580097
X441355Y257995
X43005Y26621
X42968Y26709
X42878Y26747
X42788Y26709
X42752Y26619
X37065Y26735
X3700004
X3693508
X36771Y26705
X36808Y26617
X36681Y26743
X36591Y26705
X36555Y26615
T05
X437375Y2029136
Y2021262
Y2013388
Y2005514
Y199764
Y1989766
Y1981892
Y1974018
Y1966144
Y195827
X436615Y1962318
Y1970192
Y1978066
Y198594
Y1993814
Y2001688
Y2009562
Y2017436
Y202531
X435595
Y2017436
Y2009562
Y2001688
Y1993814
Y198594
Y1978066
Y1970192
Y1962318
X434845Y1966144
Y195827
Y1942522
Y1934648
Y1926774
Y19189
Y1911026
X435595Y19072
Y1915074
Y1922948
Y1930822
Y1938696
Y194657
X436615
Y1938696
Y1930822
Y1922948
Y1915074
Y19072
X437375Y1911026
Y19189
Y1926774
Y1934648
Y1942522
X434845Y1974018
Y1981892
Y1989766
Y199764
Y2005514
Y2013388
Y2021262
Y2029136
X442805Y202951
Y2021636
Y2013762
Y2005888
Y1998014
Y199014
Y1982266
Y1974392
Y1966518
Y1958644
X443565Y1962618
Y1970492
Y1978366
Y198624
Y1994114
Y2001988
Y2009862
Y2017736
Y202561
X444545Y2025636
Y2017762
Y2009888
Y2002014
Y199414
Y1986266
Y1978392
Y1970518
Y1962644
X445315Y1966518
Y1958644
Y1942896
Y1935022
Y1927148
Y1919274
Y19114
X444545Y1907526
Y19154
Y1923274
Y1931148
Y1939022
Y1946896
X443565Y194687
Y1938996
Y1931122
Y1923248
Y1915374
Y19075
X442805Y19114
Y1919274
Y1927148
Y1935022
Y1942896
X445315Y1974392
Y1982266
Y199014
Y1998014
Y2005888
Y2013762
Y2021636
Y202951
X450785Y202991
Y2022036
Y2014162
Y2006288
Y1998414
Y199054
Y1982666
Y1974792
Y1966918
Y1959044
X451545Y1963018
Y1970892
Y1978766
Y198664
Y1994514
Y2002388
Y2010262
Y2018136
Y202601
X452525Y2026036
Y2018162
Y2010288
Y2002414
Y199454
Y1986666
Y1978792
Y1970918
Y1963044
Y1947296
Y1939422
Y1931548
Y1923674
Y19158
Y1907926
X451545Y19079
Y1915774
Y1923648
Y1931522
Y1939396
Y194727
X450785Y1943296
Y1935422
Y1927548
Y1919674
Y19118
X453295
Y1919674
Y1927548
Y1935422
Y1943296
Y1959044
Y1966918
Y1974792
Y1982666
Y199054
Y1998414
Y2006288
Y2014162
Y2022036
Y202991
Y2037784
Y2045658
Y2053532
Y2061406
Y206928
Y2077154
Y2085028
Y2092902
Y2100776
X452525Y2096902
Y2089028
Y2081154
Y207328
Y2065406
Y2057532
Y2049658
Y2041784
Y203391
X451545Y2033884
Y2041758
Y2049632
Y2057506
Y206538
Y2073254
Y2081128
Y2089002
Y2096876
Y210475
X452525Y2104776
X450785Y2100776
Y2092902
Y2085028
Y2077154
Y206928
Y2061406
Y2053532
Y2045658
Y2037784
X445315Y2037384
Y2045258
Y2053132
Y2061006
Y206888
Y2076754
Y2084628
Y2092502
Y2100376
X444545Y2096502
Y2088628
Y2080754
Y207288
Y2065006
Y2057132
Y2049258
Y2041384
Y203351
X443565Y2033484
Y2041358
Y2049232
Y2057106
Y206498
Y2072854
Y2080728
Y2088602
Y2096476
Y210435
X444545Y2104376
X442805Y2100376
Y2092502
Y2084628
Y2076754
Y206888
Y2061006
Y2053132
Y2045258
Y2037384
X437375Y203701
Y2044884
Y2052758
Y2060632
Y2068506
Y207638
Y2084254
Y2092128
Y2100002
Y2107876
Y211575
Y2123624
Y2131498
Y2139372
Y2147246
Y215512
Y2162995
Y2170868
Y2178742
Y2186617
X436615Y2182791
Y2174916
Y2167043
Y2159168
Y2151295
Y214342
Y2135546
Y2127672
Y2119798
Y2111924
Y210405
Y2096176
Y2088302
Y2080428
Y2072554
Y206468
Y2056806
Y2048932
Y2041058
Y2033184
X435595
Y2041058
Y2048932
Y2056806
Y206468
Y2072554
Y2080428
Y2088302
Y2096176
Y210405
Y2111924
Y2119798
Y2127672
Y2135546
Y214342
Y2151295
Y2159168
Y2167043
Y2174916
Y2182791
X434845Y2186617
Y2178742
Y2170868
Y2162995
Y215512
Y2147246
Y2139372
Y2131498
Y2123624
Y211575
Y2107876
Y2100002
Y2092128
Y2084254
Y207638
Y2068506
Y2060632
Y2052758
Y2044884
Y203701
X38602Y20826
Y2089293
Y2095986
Y2102679
Y2109372
Y2116065
Y2122758
Y212945
Y2136143
Y2142836
Y2149529
Y2156222
Y2162915
Y2169608
Y2176301
Y2182994
X38541Y2186324
Y2179631
Y2172939
Y2166246
Y2159553
Y215286
Y2146167
Y2139474
Y2132781
Y2126088
Y2119395
Y2112702
Y2106009
Y2099316
Y2092624
Y2085931
X38452Y20826
Y2089293
Y2095986
Y2102679
Y2109372
Y2116065
Y2122758
Y212945
Y2136143
Y2142836
Y2149529
Y2156222
Y2162915
Y2169608
Y2176301
Y2182994
X38391Y2186324
Y2179631
Y2172939
Y2166246
Y2159553
Y215286
Y2146167
Y2139474
Y2132781
Y2126088
Y2119395
Y2112702
Y2106009
Y2099316
Y2092624
Y2085931
X382Y20826
Y2089293
Y2095986
Y2102679
Y2109372
Y2116065
Y2122758
Y212945
Y2136143
Y2142836
Y2149529
Y2156222
Y2162915
Y2169608
Y2176301
Y2182994
X38139Y2186324
Y2179631
Y2172939
Y2166246
Y2159553
Y215286
Y2146167
Y2139474
Y2132781
Y2126088
Y2119395
Y2112702
Y2106009
Y2099316
Y2092624
Y2085931
X3805Y20826
Y2089293
Y2095986
Y2102679
Y2109372
Y2116065
Y2122758
Y212945
Y2136143
Y2142836
Y2149529
Y2156222
Y2162915
Y2169608
Y2176301
Y2182994
X37989Y2186324
Y2179631
Y2172939
Y2166246
Y2159553
Y215286
Y2146167
Y2139474
Y2132781
Y2126088
Y2119395
Y2112702
Y2106009
Y2099316
Y2092624
Y2085931
X37798Y2089193
Y20825
X37737Y2085831
Y2092524
Y2099216
Y2105909
Y2112602
Y2119295
Y2125988
Y2132681
Y2139374
Y2146067
Y215276
Y2159453
Y2166146
Y2172839
Y2179531
Y2186224
X37798Y2182894
Y2176201
Y2169508
Y2162815
Y2156122
Y2149429
Y2142736
Y2136043
Y212935
Y2122658
Y2115965
Y2109272
Y2102579
Y2095886
X37648
Y2102579
Y2109272
Y2115965
Y2122658
Y212935
Y2136043
Y2142736
Y2149429
Y2156122
Y2162815
Y2169508
Y2176201
Y2182894
X37587Y2186224
Y2179531
Y2172839
Y2166146
Y2159453
Y215276
Y2146067
Y2139374
Y2132681
Y2125988
Y2119295
Y2112602
Y2105909
Y2099216
Y2092524
Y2085831
X37648Y20825
Y2089193
X37398
Y20825
X37337Y2085831
Y2092524
Y2099216
Y2105909
Y2112602
Y2119295
Y2125988
Y2132681
Y2139374
Y2146067
Y215276
Y2159453
Y2166146
Y2172839
Y2179531
Y2186224
X37398Y2182894
Y2176201
Y2169508
Y2162815
Y2156122
Y2149429
Y2142736
Y2136043
Y212935
Y2122658
Y2115965
Y2109272
Y2102579
Y2095886
X37248
Y2102579
Y2109272
Y2115965
Y2122658
Y212935
Y2136043
Y2142736
Y2149429
Y2156122
Y2162815
Y2169508
Y2176201
Y2182894
X37187Y2186224
Y2179531
Y2172839
Y2166146
Y2159453
Y215276
Y2146067
Y2139374
Y2132681
Y2125988
Y2119295
Y2112602
Y2105909
Y2099216
Y2092524
Y2085831
X37248Y20825
Y2089193
Y2189587
Y219628
Y2202972
Y2209665
Y2216358
Y2223051
Y2229744
Y2236437
Y224313
Y2249823
Y2256516
Y2263209
Y2269902
Y2276595
Y2283287
Y228998
Y2296673
Y2303366
Y2310059
Y2316752
Y2323445
Y2330138
Y2336831
X37187Y2333468
Y2326776
Y2320083
Y231339
Y2306697
Y2300004
Y2293311
Y2286618
Y2279925
Y2273232
Y2266539
Y2259846
Y2253153
Y2246461
Y2239768
Y2233075
Y2226382
Y2219689
Y2212996
Y2206303
Y219961
Y2192917
X37337
Y219961
Y2206303
Y2212996
Y2219689
Y2226382
Y2233075
Y2239768
Y2246461
Y2253153
Y2259846
Y2266539
Y2273232
Y2279925
Y2286618
Y2293311
Y2300004
Y2306697
Y231339
Y2320083
Y2326776
Y2333468
X37398Y2330138
Y2336831
Y2323445
Y2316752
Y2310059
Y2303366
Y2296673
Y228998
Y2283287
Y2276595
Y2269902
Y2263209
Y2256516
Y2249823
Y224313
Y2236437
Y2229744
Y2223051
Y2216358
Y2209665
Y2202972
Y219628
Y2189587
X37587Y2192917
Y219961
Y2206303
Y2212996
Y2219689
Y2226382
Y2233075
Y2239768
Y2246461
Y2253153
Y2259846
Y2266539
Y2273232
Y2279925
Y2286618
Y2293311
Y2300004
Y2306697
Y231339
Y2320083
Y2326776
Y2333468
X37648Y2330138
Y2336831
X37737Y2333468
Y2326776
Y2320083
Y231339
Y2306697
Y2300004
Y2293311
Y2286618
Y2279925
Y2273232
Y2266539
Y2259846
Y2253153
Y2246461
Y2239768
Y2233075
Y2226382
Y2219689
Y2212996
Y2206303
Y219961
Y2192917
X37798Y2189587
Y219628
Y2202972
Y2209665
Y2216358
Y2223051
Y2229744
Y2236437
Y224313
Y2249823
Y2256516
Y2263209
Y2269902
Y2276595
Y2283287
Y228998
Y2296673
Y2303366
Y2310059
Y2316752
Y2323445
Y2330138
Y2336831
X37989Y2333569
Y2326876
Y2320183
Y231349
Y2306797
Y2300104
Y2293411
Y2286718
Y2280025
Y2273332
Y2266639
Y2259946
Y2253254
Y2246561
Y2239868
Y2233175
Y2226482
Y2219789
Y2213096
Y2206403
Y219971
Y2193017
X3805Y2189687
Y2196379
Y2203072
Y2209765
Y2216458
Y2223151
Y2229844
Y2236537
Y224323
Y2249923
Y2256616
Y2263309
Y2270002
Y2276694
Y2283387
Y229008
Y2296773
Y2303466
Y2310159
Y2316852
Y2323545
Y2330238
Y2336931
X38139Y2333569
Y2326876
Y2320183
Y231349
Y2306797
Y2300104
Y2293411
Y2286718
Y2280025
Y2273332
Y2266639
Y2259946
Y2253254
Y2246561
Y2239868
Y2233175
Y2226482
Y2219789
Y2213096
Y2206403
Y219971
Y2193017
X382Y2189687
Y2196379
Y2203072
Y2209765
Y2216458
Y2223151
Y2229844
Y2236537
Y224323
Y2249923
Y2256616
Y2263309
Y2270002
Y2276694
Y2283387
Y229008
Y2296773
Y2303466
Y2310159
Y2316852
Y2323545
Y2330238
Y2336931
X38391Y2333569
Y2326876
Y2320183
Y231349
Y2306797
Y2300104
Y2293411
Y2286718
Y2280025
Y2273332
Y2266639
Y2259946
Y2253254
Y2246561
Y2239868
Y2233175
Y2226482
Y2219789
Y2213096
Y2206403
Y219971
Y2193017
X38452Y2189687
Y2196379
Y2203072
Y2209765
Y2216458
Y2223151
Y2229844
Y2236537
Y224323
Y2249923
Y2256616
Y2263309
Y2270002
Y2276694
Y2283387
Y229008
Y2296773
Y2303466
Y2310159
Y2316852
Y2323545
Y2330238
Y2336931
X38541Y2333569
Y2326876
Y2320183
Y231349
Y2306797
Y2300104
Y2293411
Y2286718
Y2280025
Y2273332
Y2266639
Y2259946
Y2253254
Y2246561
Y2239868
Y2233175
Y2226482
Y2219789
Y2213096
Y2206403
Y219971
Y2193017
X38602Y2189687
Y2196379
Y2203072
Y2209765
Y2216458
Y2223151
Y2229844
Y2236537
Y224323
Y2249923
Y2256616
Y2263309
Y2270002
Y2276694
Y2283387
Y229008
Y2296773
Y2303466
Y2310159
Y2316852
Y2323545
Y2330238
Y2336931
X37648Y2323445
Y2316752
Y2310059
Y2303366
Y2296673
Y228998
Y2283287
Y2276595
Y2269902
Y2263209
Y2256516
Y2249823
Y224313
Y2236437
Y2229744
Y2223051
Y2216358
Y2209665
Y2202972
Y219628
Y2189587
X434845Y219449
Y2202365
Y2210239
Y2218113
Y2225987
Y2233861
X435595Y2230035
Y2222161
Y2214287
Y2206413
Y2198539
Y2190665
X436615
Y2198539
Y2206413
Y2214287
Y2222161
Y2230035
X437375Y2233861
Y2225987
Y2218113
Y2210239
Y2202365
Y219449
X38602Y2363702
Y2370395
Y2377088
Y2383781
Y2390474
Y2397167
Y240386
Y2410553
Y2417246
Y2423939
Y2430631
Y2437324
Y2444017
Y245071
Y2457403
Y2464096
Y2470789
Y2477482
Y2484175
Y2490868
Y2497561
X38541Y2494198
Y2487506
Y2480813
Y247412
Y2467427
Y2460734
Y2454041
Y2447348
Y2440655
Y2433962
Y2427269
Y2420576
Y2413884
Y2407191
Y2400498
Y2393805
Y2387112
Y2380419
Y2373726
Y2367033
Y236034
X38452Y2363702
Y2370395
Y2377088
Y2383781
Y2390474
Y2397167
Y240386
Y2410553
Y2417246
Y2423939
Y2430631
Y2437324
Y2444017
Y245071
Y2457403
Y2464096
Y2470789
Y2477482
Y2484175
Y2490868
Y2497561
X38391Y2494198
Y2487506
Y2480813
Y247412
Y2467427
Y2460734
Y2454041
Y2447348
Y2440655
Y2433962
Y2427269
Y2420576
Y2413884
Y2407191
Y2400498
Y2393805
Y2387112
Y2380419
Y2373726
Y2367033
Y236034
X382Y2363702
Y2370395
Y2377088
Y2383781
Y2390474
Y2397167
Y240386
Y2410553
Y2417246
Y2423939
Y2430631
Y2437324
Y2444017
Y245071
Y2457403
Y2464096
Y2470789
Y2477482
Y2484175
Y2490868
Y2497561
X38139Y2494198
Y2487506
Y2480813
Y247412
Y2467427
Y2460734
Y2454041
Y2447348
Y2440655
Y2433962
Y2427269
Y2420576
Y2413884
Y2407191
Y2400498
Y2393805
Y2387112
Y2380419
Y2373726
Y2367033
Y236034
X3805Y2363702
Y2370395
Y2377088
Y2383781
Y2390474
Y2397167
Y240386
Y2410553
Y2417246
Y2423939
Y2430631
Y2437324
Y2444017
Y245071
Y2457403
Y2464096
Y2470789
Y2477482
Y2484175
Y2490868
Y2497561
X37989Y2494198
Y2487506
Y2480813
Y247412
Y2467427
Y2460734
Y2454041
Y2447348
Y2440655
Y2433962
Y2427269
Y2420576
Y2413884
Y2407191
Y2400498
Y2393805
Y2387112
Y2380419
Y2373726
Y2367033
Y236034
X37798Y2363602
Y2370295
Y2376988
Y2383681
Y2390374
Y2397067
Y240376
Y2410453
Y2417146
Y2423839
Y2430532
Y2437224
Y2443917
Y245061
Y2457303
Y2463996
Y2470689
Y2477382
Y2484075
Y2490768
Y2497461
X37737Y2494098
Y2487406
Y2480713
Y247402
Y2467327
Y2460634
Y2453941
Y2447248
Y2440555
Y2433862
Y2427169
Y2420476
Y2413783
Y2407091
Y2400398
Y2393705
Y2387012
Y2380319
Y2373626
Y2366933
Y236024
X37648Y2363602
Y2370295
Y2376988
Y2383681
Y2390374
Y2397067
Y240376
Y2410453
Y2417146
Y2423839
Y2430532
Y2437224
Y2443917
Y245061
Y2457303
Y2463996
Y2470689
Y2477382
Y2484075
Y2490768
Y2497461
X37587Y2494098
Y2487406
Y2480713
Y247402
Y2467327
Y2460634
Y2453941
Y2447248
Y2440555
Y2433862
Y2427169
Y2420476
Y2413783
Y2407091
Y2400398
Y2393705
Y2387012
Y2380319
Y2373626
Y2366933
Y236024
X37398Y2363602
Y2370295
Y2376988
Y2383681
Y2390374
Y2397067
Y240376
Y2410453
Y2417146
Y2423839
Y2430532
Y2437224
Y2443917
Y245061
Y2457303
Y2463996
Y2470689
Y2477382
Y2484075
Y2490768
Y2497461
X37337Y2494098
Y2487406
Y2480713
Y247402
Y2467327
Y2460634
Y2453941
Y2447248
Y2440555
Y2433862
Y2427169
Y2420476
Y2413783
Y2407091
Y2400398
Y2393705
Y2387012
Y2380319
Y2373626
Y2366933
Y236024
X37248Y2363602
Y2370295
Y2376988
Y2383681
Y2390374
Y2397067
Y240376
Y2410453
Y2417146
Y2423839
Y2430532
Y2437224
Y2443917
Y245061
Y2457303
Y2463996
Y2470689
Y2477382
Y2484075
Y2490768
Y2497461
X37187Y2494098
Y2487406
Y2480713
Y247402
Y2467327
Y2460634
Y2453941
Y2447248
Y2440555
Y2433862
Y2427169
Y2420476
Y2413783
Y2407091
Y2400398
Y2393705
Y2387012
Y2380319
Y2373626
Y2366933
Y236024
Y2500791
Y2507484
Y2514177
Y252087
Y2527563
Y2534256
Y2540949
Y2547642
Y2554335
Y2561028
Y256772
Y2574413
Y2581106
X37248Y2577776
Y2571083
Y256439
Y2557697
Y2551004
Y2544311
Y2537618
Y2530925
Y2524232
Y2517539
Y2510847
Y2504153
X37337Y2507484
Y2500791
X37398Y2504153
Y2510847
Y2517539
Y2524232
Y2530925
Y2537618
Y2544311
Y2551004
Y2557697
Y256439
Y2571083
Y2577776
X37337Y2581106
Y2574413
Y256772
Y2561028
Y2554335
Y2547642
Y2540949
Y2534256
Y2527563
Y252087
Y2514177
X37587
Y252087
Y2527563
Y2534256
Y2540949
Y2547642
Y2554335
Y2561028
Y256772
Y2574413
Y2581106
X37648Y2577776
Y2571083
Y256439
Y2557697
Y2551004
Y2544311
Y2537618
Y2530925
Y2524232
Y2517539
Y2510847
Y2504153
X37587Y2507484
Y2500791
X37737
Y2507484
Y2514177
Y252087
Y2527563
Y2534256
Y2540949
Y2547642
Y2554335
Y2561028
Y256772
Y2574413
Y2581106
X37798Y2577776
Y2571083
Y256439
Y2557697
Y2551004
Y2544311
Y2537618
Y2530925
Y2524232
Y2517539
Y2510847
Y2504153
X37989Y2500891
Y2507584
Y2514277
Y252097
Y2527663
Y2534356
Y2541049
Y2547742
Y2554435
Y2561128
Y2567821
Y2574513
Y2581206
X3805Y2577876
Y2571183
Y256449
Y2557797
Y2551104
Y2544411
Y2537718
Y2531025
Y2524332
Y2517639
Y2510946
Y2504254
X38139Y2507584
Y2500891
X382Y2504254
Y2510946
Y2517639
Y2524332
Y2531025
Y2537718
Y2544411
Y2551104
Y2557797
Y256449
Y2571183
Y2577876
X38139Y2581206
Y2574513
Y2567821
Y2561128
Y2554435
Y2547742
Y2541049
Y2534356
Y2527663
Y252097
Y2514277
X38391
Y252097
Y2527663
Y2534356
Y2541049
Y2547742
Y2554435
Y2561128
Y2567821
Y2574513
Y2581206
X38452Y2577876
Y2571183
Y256449
Y2557797
Y2551104
Y2544411
Y2537718
Y2531025
Y2524332
Y2517639
Y2510946
Y2504254
X38391Y2507584
Y2500891
X38541
Y2507584
Y2514277
Y252097
Y2527663
Y2534356
Y2541049
Y2547742
Y2554435
Y2561128
Y2567821
Y2574513
Y2581206
X38602Y2577876
Y2571183
Y256449
Y2557797
Y2551104
Y2544411
Y2537718
Y2531025
Y2524332
Y2517639
Y2510946
Y2504254
X42795Y2578804
Y2586678
Y2594552
Y2602426
Y26103
X42892Y26088
Y25988
Y25909
Y25809
X44176Y25896
Y25946
Y25996
X44381Y26037
X44439Y26078
Y26145
Y26227
Y26294
X44381Y26331
Y26185
X44796
X44854Y26145
Y26078
X44796Y26037
X44854Y26227
Y26294
X44796Y26331
X44823Y25705
Y25655
Y25605
X45399Y25477
X4544Y25419
X45507
X45589
X45656
X45693Y25477
X45547
X45507Y25719
X4544
X45399Y25777
X45547
X45589Y25719
X45656
X45693Y25777
X45658Y26019
X45591
X45509
X45442
X45401Y26077
X45549
X45695
X45659Y26321
X45592
X4551
X45443
X45402Y26379
X4555
X45696
X45692Y25172
X45655Y25114
X45588
X45506
X45439
X45398Y25172
X45546
X45508Y26619
X45441
X454Y26677
X45548
X4559Y26619
X45657
X45694Y26677
T06
X4179005Y17376
X41731
X4167194
X4161289
X4155383
X4149478
X4143572
X4137667
X4140572Y17317
X4146478
X4152383
X4158289
X4164194
X41701
X4176006
X39156Y17683
X39174Y17744
X39096
X39156Y17811
X39175Y17871
X39097
X39019
X38939
X38861
X38879Y17811
X38859Y17744
X38939
X39018
X38978Y17683
X39058
Y17811
X38978
X38879Y17683
X3748294Y17323
X3742783
X3737271
X3731759
X3726247
X3720736
X3715224
X3709712
X37042
X44738Y23168
X44895
T07
X4160986Y1858375
X4140985
X3807075Y1909015
Y1929015
X3911075Y1933615
Y1913615
X4015175Y1910515
Y1930515
X4112475Y1931215
Y1911215
X45688Y24013
X45788
Y24113
Y24213
Y24313
X45688
Y24413
Y24513
X45788
Y24613
X45688
Y24713
Y24813
Y24913
X45788
Y24713
Y24413
X45688Y24213
Y24113
X4206Y25882
Y2596074
Y2603948
X43231Y2600274
Y2608148
Y2616022
Y2623896
Y263177
Y2639644
Y2647518
Y2655392
X43311
Y2647518
Y2639644
Y263177
Y2623896
Y2616022
Y2608148
Y2600274
X43231Y25924
Y2663266
X43311
T08
X457815Y21395
Y21295
Y21195
Y21095
Y20995
Y20895
Y20795
T09
X457485Y18709
Y18609
X41816Y17915
Y17815
X40762Y17867
Y17968
X40763Y17537
X40661
X40617Y17837
Y17937
Y18037
Y18137
X40567Y18187
Y18087
Y17987
Y17887
X40409
Y17987
Y18087
Y18187
Y18287
X40358Y18237
Y18137
Y18037
Y17937
Y17837
X40213Y17866
X40013
Y17967
X39868Y17936
Y18036
Y18136
X39818Y18186
Y18086
Y17986
Y17886
X39868Y17836
X3966Y17886
Y17986
Y18086
Y18186
Y18286
X39609Y18236
Y18136
Y18036
Y17936
Y17836
X39464Y17865
X39466Y18115
X39868Y18236
X39818Y18286
X40215Y18116
X40617Y18237
X40567Y18287
X40314Y17537
X40213
X40014Y17536
X39912
X39565
X39464
X38436Y17746
X38337
X38258
X3816
Y17848
X38258Y17849
X38337
X38436
X38423Y1804
X38322
X38223Y18041
X38122Y1804
X38072Y18139
X38173
X38272
X38374
X38473Y1814
X38483Y1825
X38584
X38524Y1804
X38825Y18332
Y18431
X38114Y1825
X38015
X37807Y17821
X37708
X37697Y18668
X37796
X36876Y18271
Y18171
Y18071
Y17971
Y17871
Y17771
X36823Y17636
Y17536
X36956Y17537
Y17637
X36662Y17947
Y18047
Y18147
Y18247
X3727Y18987
Y19086
Y19273
Y19372
X37264Y19778
Y19877
X3741Y2005
Y20149
X37885Y2008
Y19981
X38348Y20002
X38448
X38548
X39211Y19689
X39311
X39411
X40659Y19962
X40759
X40859
X41692Y19865
X41792
X41892
X440115Y19688
Y19589
X440125Y19117
Y19018
X448905Y19023
Y19122
X448895Y19595
Y19694
X456475Y19649
Y19549
X457795Y1955
Y1965
Y1975
X456475Y19749
X456465Y19877
Y19977
Y20077
X457765Y20082
Y19982
Y19882
X457785Y2021
Y2031
X456495
Y2021
X457485Y18809
X457785Y2041
X456495
Y20892
Y20992
Y21092
X455205Y21093
Y20993
Y20893
X457125Y21711
X458105Y21614
Y2181
X41603Y20419
X41504
X40756Y20415
X40657
X40336Y20418
X40237
X38713Y20466
Y20566
Y20666
X36905Y22594
Y22693
X36996Y22917
Y23016
X3875Y22972
X38849
X38882Y2329
X38783
X41921Y23296
Y23395
X41922Y2308
Y22981
Y22764
Y22665
X42181Y22822
Y22921
X42183Y23127
Y23226
X4572Y22926
Y22826
Y22726
Y22626
X4582
Y22726
Y22826
Y22526
X4572
X45813Y2233
Y22231
X457125Y21907
X45405Y24238
X45413Y24378
X45513
X45514Y24478
X45414
X45314
X45313Y24378
X45316Y24606
X45416
X45516
X45517Y24706
X45417
X45317
X45316Y24837
X45416
X45516
X45517Y24937
X45417
X45317
X45217
X45216Y24837
X45217Y24706
X45216Y24606
X45214Y24478
X45213Y24378
X45305Y24238
X36834Y24189
Y2409
X36995Y23786
Y23687
X36731Y25797
Y25897
Y25997
Y26097
Y26197
X37738Y26336
Y26436
Y26536
X38049Y26537
Y26437
Y26337
X38398Y26364
Y26463
X40128Y26437
Y26338
X40417Y26339
Y26438
X40238Y25437
Y25338
X3994Y25334
Y25433
X42154Y25532
Y25631
X42139Y26345
Y26445
Y26545
X41842Y26542
Y26442
Y26342
X42418Y26392
Y26492
X42518
Y26392
Y26292
X42418
Y26192
Y26092
Y25992
X42518
Y26092
Y26192
Y25892
Y25792
X42418
Y25892
X4221Y25848
Y25948
Y26048
X42869Y25361
X42968
X43395Y25643
X43494
X43934Y25963
Y26062
X43969Y26226
X44069
Y26326
Y26426
X43969
Y26326
Y26526
X44069
X43969Y26626
X42518Y26692
X42418
X42139Y26645
X41842Y26642
X38049Y26637
X37738Y26636
T10
X37265Y18672
Y18572
X37165
Y18472
X37265
Y18372
Y18272
X37165
Y18372
X446315Y21669
Y21925
T11
X4315225Y2390385
Y2370385
T12
X45304Y26379
X45303Y26077
X45301Y25777
Y25477
X453Y25172
X44796Y25939
X44381
X44419Y26444
X44834
X45809Y26341
X45808Y26039
X45806Y25739
Y25439
X45805Y25134
X45807Y26639
X45302Y26677
T13
X36777Y2021706
Y2005171
Y1988635
Y19721
X3656
Y1988635
Y2005171
Y2021706
X36594Y1946006
Y1929471
Y1912935
Y18964
X36811
Y1912935
Y1929471
Y1946006
X36777Y2038242
Y2054777
Y2071313
Y2087848
Y2104383
Y2120919
Y2137454
Y215399
X3656
Y2137454
Y2120919
Y2104383
Y2087848
Y2071313
Y2054777
Y2038242
T14
X40822Y18101
X40821Y1747
X40154Y17469
X40072
X40073Y181
X40154Y18261
X39405Y1826
Y17468
X4436008Y2213952
Y2292693
T15
X39276Y17831
Y17606
X38759Y17605
X38669Y17534
X38557Y17638
Y17862
X38759Y17831
X38668Y18034
X37931
X38037Y17861
X38038Y17637
X37928Y17533
T16
X42927Y20118
M30
