%FSLAX25Y25*%
%MOIN*%
G70*
G01*
G75*
G04 Layer_Color=16711935*
%ADD10C,0.01000*%
%ADD11C,0.00800*%
%ADD12C,0.06000*%
%ADD13C,0.00600*%
%ADD14C,0.07000*%
%ADD15C,0.00500*%
%ADD16C,0.04000*%
%ADD17C,0.02500*%
%ADD18C,0.06500*%
%ADD19C,0.01772*%
%ADD20C,0.01772*%
%ADD21O,0.01260X0.03543*%
%ADD22R,0.03465X0.03465*%
%ADD23R,0.03937X0.05276*%
%ADD24R,0.05276X0.03937*%
%ADD25R,0.03465X0.03465*%
%ADD26R,0.02284X0.02362*%
%ADD27O,0.01181X0.03937*%
%ADD28O,0.03937X0.01181*%
%ADD29O,0.03937X0.01181*%
%ADD30R,0.02362X0.02284*%
%ADD31R,0.02756X0.03543*%
%ADD32O,0.01181X0.06299*%
%ADD33O,0.05906X0.01260*%
%ADD34O,0.01260X0.05906*%
%ADD35C,0.01024*%
%ADD36O,0.01181X0.06299*%
%ADD37R,0.02362X0.02284*%
%ADD38R,0.04600X0.03200*%
%ADD39C,0.03150*%
%ADD40R,0.02677X0.06299*%
%ADD41O,0.00984X0.02992*%
%ADD42R,0.06299X0.07284*%
%ADD43O,0.00906X0.03937*%
%ADD44O,0.01299X0.03347*%
%ADD45O,0.03622X0.01024*%
%ADD46O,0.01299X0.08661*%
%ADD47R,0.09843X0.12992*%
%ADD48O,0.05315X0.01654*%
%ADD49R,0.03937X0.01772*%
%ADD50O,0.01181X0.02992*%
%ADD51R,0.02165X0.05315*%
%ADD52O,0.01378X0.06500*%
%ADD53R,0.01299X0.02756*%
%ADD54R,0.02756X0.01299*%
%ADD55O,0.03937X0.00906*%
%ADD56R,0.05118X0.05906*%
%ADD57R,0.05394X0.06496*%
%ADD58O,0.07087X0.01575*%
%ADD59O,0.03937X0.01260*%
%ADD60O,0.01260X0.03937*%
%ADD61R,0.07284X0.06299*%
%ADD62R,0.05197X0.02362*%
%ADD63O,0.05000X0.01575*%
%ADD64R,0.07874X0.02835*%
%ADD65O,0.01575X0.05906*%
%ADD66R,0.07008X0.12992*%
%ADD67R,0.02165X0.05315*%
%ADD68R,0.03543X0.02756*%
%ADD69O,0.02992X0.00984*%
%ADD70R,0.05315X0.02165*%
%ADD71C,0.01654*%
%ADD72C,0.01181*%
%ADD73O,0.01575X0.05000*%
%ADD74R,0.05000X0.05079*%
%ADD75R,0.14173X0.10236*%
%ADD76R,0.11811X0.08268*%
%ADD77R,0.03937X0.05276*%
%ADD78O,0.00984X0.03386*%
%ADD79O,0.01181X0.03600*%
%ADD80R,0.07874X0.08268*%
%ADD81R,0.10236X0.14173*%
%ADD82R,0.01575X0.03150*%
%ADD83R,0.03200X0.04600*%
%ADD84R,0.05079X0.05000*%
%ADD85O,0.01575X0.05433*%
%ADD86R,0.02362X0.05197*%
%ADD87O,0.01654X0.06102*%
%ADD88R,0.10236X0.05118*%
%ADD89R,0.08465X0.07874*%
%ADD90R,0.06378X0.02835*%
%ADD91R,0.08465X0.08071*%
%ADD92R,0.07874X0.04724*%
%ADD93O,0.03386X0.00984*%
%ADD94R,0.05906X0.05118*%
%ADD95O,0.01260X0.03937*%
%ADD96O,0.03937X0.01260*%
%ADD97R,0.06181X0.07165*%
%ADD98R,0.01890X0.03937*%
%ADD99R,0.02953X0.03937*%
%ADD100R,0.02284X0.02362*%
%ADD101R,0.03465X0.03465*%
%ADD102O,0.07500X0.02400*%
%ADD103R,0.03150X0.01575*%
%ADD104R,0.05748X0.04409*%
%ADD105O,0.01378X0.06772*%
%ADD106O,0.03937X0.01496*%
%ADD107O,0.08000X0.02400*%
%ADD108R,0.06693X0.02835*%
%ADD109O,0.03600X0.01181*%
%ADD110R,0.14173X0.10236*%
%ADD111R,0.07874X0.07677*%
%ADD112R,0.07284X0.06299*%
%ADD113O,0.07087X0.01575*%
%ADD114O,0.03937X0.01496*%
%ADD115O,0.03347X0.01299*%
%ADD116R,0.07874X0.07677*%
%ADD117R,0.08661X0.09843*%
%ADD118R,0.03465X0.03465*%
%ADD119R,0.17500X0.17500*%
%ADD120R,0.13780X0.09843*%
%ADD121R,0.05276X0.03937*%
%ADD122O,0.01181X0.03740*%
%ADD123O,0.03800X0.01181*%
%ADD124O,0.02677X0.08071*%
%ADD125O,0.01260X0.05700*%
%ADD126O,0.01181X0.10827*%
%ADD127R,0.06496X0.06496*%
%ADD128R,0.07874X0.07874*%
%ADD129R,0.07087X0.07087*%
%ADD130R,0.12205X0.08268*%
%ADD131R,0.12205X0.01693*%
%ADD132R,0.09843X0.06772*%
%ADD133R,0.20472X0.13780*%
%ADD134C,0.01024*%
%ADD135C,0.01200*%
%ADD136R,0.06496X0.06496*%
%ADD137R,0.13780X0.13780*%
%ADD138R,0.13780X0.09843*%
%ADD139R,0.16929X0.08661*%
%ADD140R,0.03937X0.01772*%
G04:AMPARAMS|DCode=141|XSize=39.37mil|YSize=52.76mil|CornerRadius=0mil|HoleSize=0mil|Usage=FLASHONLY|Rotation=90.000|XOffset=0mil|YOffset=0mil|HoleType=Round|Shape=Octagon|*
%AMOCTAGOND141*
4,1,8,-0.02638,-0.00984,-0.02638,0.00984,-0.01654,0.01969,0.01654,0.01969,0.02638,0.00984,0.02638,-0.00984,0.01654,-0.01969,-0.01654,-0.01969,-0.02638,-0.00984,0.0*
%
%ADD141OCTAGOND141*%

%ADD142C,0.04000*%
%ADD143R,0.05512X0.03937*%
%ADD144R,0.11221X0.13976*%
%ADD145C,0.01260*%
%ADD146R,0.04724X0.11024*%
%ADD147C,0.01772*%
%ADD148O,0.02362X0.14567*%
%ADD149C,0.01800*%
%ADD150C,0.01500*%
%ADD151C,0.02000*%
%ADD152C,0.00700*%
%ADD153C,0.01200*%
%ADD154C,0.01969*%
%ADD155C,0.03000*%
%ADD156C,0.01600*%
%ADD157C,0.01300*%
%ADD158C,0.00350*%
%ADD159C,0.00400*%
%ADD160C,0.00300*%
%ADD161C,0.00900*%
%ADD162R,0.05900X0.04550*%
%ADD163R,0.18350X0.18100*%
%ADD164R,0.06850X0.04700*%
%ADD165R,0.16050X0.28800*%
%ADD166R,0.10850X0.06672*%
%ADD167R,0.10700X0.03150*%
%ADD168R,0.11100X0.08100*%
%ADD169R,0.22300X0.22300*%
%ADD170R,0.02500X0.02950*%
%ADD171R,0.03800X0.02950*%
%ADD172R,0.06900X0.06650*%
%ADD173R,0.03100X0.03600*%
%ADD174R,0.19050X0.02650*%
%ADD175R,0.02450X0.09200*%
%ADD176R,0.03550X0.06550*%
%ADD177R,0.02550X0.02600*%
%ADD178R,0.18600X0.02300*%
%ADD179R,0.01971X0.08558*%
%ADD180C,0.03937*%
%ADD181O,0.04528X0.04921*%
%ADD182C,0.04331*%
%ADD183C,0.04134*%
%ADD184C,0.05709*%
%ADD185C,0.07874*%
%ADD186C,0.05315*%
%ADD187O,0.04528X0.04921*%
%ADD188C,0.05906*%
%ADD189R,0.05709X0.05709*%
%ADD190R,0.04134X0.04134*%
%ADD191R,0.05906X0.05906*%
%ADD192C,0.05906*%
%ADD193R,0.05906X0.05906*%
%ADD194R,0.04528X0.04921*%
%ADD195C,0.06102*%
%ADD196R,0.06102X0.06102*%
%ADD197R,0.05315X0.05315*%
%ADD198C,0.05118*%
%ADD199C,0.06102*%
%ADD200O,0.05118X0.05118*%
%ADD201C,0.05512*%
%ADD202C,0.05000*%
%ADD203C,0.06200*%
%ADD204R,0.05906X0.05906*%
%ADD205R,0.04331X0.04528*%
%ADD206C,0.06500*%
%ADD207R,0.06500X0.06500*%
%ADD208R,0.05709X0.05709*%
%ADD209R,0.06200X0.06200*%
%ADD210C,0.06299*%
%ADD211R,0.06299X0.06299*%
%ADD212R,0.05709X0.05709*%
%ADD213C,0.04331*%
%ADD214R,0.05315X0.05315*%
%ADD215R,0.05000X0.05000*%
%ADD216R,0.05315X0.05315*%
%ADD217C,0.05315*%
%ADD218R,0.05315X0.05315*%
%ADD219C,0.07874*%
%ADD220C,0.04134*%
%ADD221O,0.04331X0.03937*%
%ADD222O,0.04331X0.03937*%
%ADD223R,0.05118X0.05118*%
%ADD224C,0.06299*%
%ADD225C,0.05709*%
%ADD226R,0.04134X0.04134*%
%ADD227O,0.14567X0.05000*%
%ADD228C,0.12205*%
%ADD229C,0.12205*%
%ADD230C,0.05118*%
%ADD231C,0.08268*%
%ADD232C,0.08268*%
%ADD233C,0.05512*%
%ADD234O,0.15354X0.05906*%
%ADD235O,0.11811X0.06221*%
%ADD236R,0.04134X0.04134*%
%ADD237C,0.22441*%
%ADD238C,0.02165*%
%ADD239C,0.01969*%
%ADD240C,0.02165*%
%ADD241C,0.02559*%
%ADD242C,0.02047*%
%ADD243C,0.02362*%
%ADD244C,0.02756*%
%ADD245C,0.01890*%
%ADD246C,0.01890*%
%ADD247C,0.03543*%
%ADD248C,0.02559*%
%ADD249C,0.02047*%
%ADD250C,0.03543*%
%ADD251C,0.03150*%
%ADD252C,0.02756*%
%ADD253R,0.24200X0.05950*%
%ADD254R,0.23900X0.06050*%
%ADD255R,0.05911X0.06527*%
%ADD256R,0.06150X0.03200*%
%ADD257R,0.09050X0.02750*%
%ADD258R,0.05216X0.03337*%
%ADD259R,0.06800X0.01900*%
%ADD260R,0.04950X0.07100*%
%ADD261R,0.07750X0.02200*%
%ADD262R,0.03719X0.04789*%
%ADD263R,0.06700X0.02700*%
%ADD264R,0.14425X0.06794*%
%ADD265R,0.11550X0.03200*%
%ADD266R,0.32600X0.02950*%
%ADD267R,0.33585X0.02339*%
%ADD268R,0.05859X0.04781*%
%ADD269R,0.02737X0.07120*%
%ADD270R,0.04000X0.04100*%
%ADD271C,0.02800*%
%ADD272R,0.07309X0.09456*%
%ADD273R,0.24200X0.06150*%
%ADD274R,0.11000X0.05750*%
%ADD275R,0.13400X0.11100*%
%ADD276R,0.03300X0.01150*%
%ADD277R,0.23000X0.05750*%
%ADD278R,0.24600X0.06350*%
%ADD279R,0.24350X0.06500*%
%ADD280R,0.02900X0.09800*%
%ADD281R,0.21100X0.02900*%
%ADD282R,0.03178X0.10400*%
%ADD283R,0.19100X0.03150*%
%ADD284R,0.07500X0.04250*%
%ADD285R,0.11750X0.02150*%
%ADD286R,0.19182X0.02374*%
%ADD287R,0.02300X0.10000*%
%ADD288R,0.03150X0.11085*%
%ADD289R,0.34850X0.02950*%
%ADD290R,0.33337X0.02093*%
%ADD291R,0.03150X0.04921*%
%ADD292R,0.01772X0.03937*%
%ADD293R,0.01260X0.03347*%
%ADD294R,0.01693X0.02598*%
%ADD295R,0.07087X0.12992*%
%ADD296R,0.04921X0.03150*%
%ADD297O,0.06500X0.01378*%
%ADD298O,0.06772X0.01378*%
%ADD299C,0.02598*%
%ADD300O,0.03150X0.02800*%
%ADD301R,0.04921X0.03150*%
%ADD302R,0.03937X0.05118*%
%ADD303R,0.11811X0.08268*%
%ADD304R,0.07087X0.12992*%
%ADD305O,0.01260X0.02992*%
%ADD306R,0.03543X0.03937*%
%ADD307R,0.16929X0.08661*%
%ADD308R,0.01772X0.03937*%
%ADD309C,0.02598*%
%ADD310R,0.03150X0.04921*%
%ADD311R,0.22050X0.22150*%
%ADD312R,0.08800X0.13800*%
%ADD313R,0.06850X0.09350*%
%ADD314R,0.06700X0.06650*%
%ADD315R,0.04883X0.10114*%
%ADD316R,0.04200X0.08450*%
%ADD317R,0.05300X0.06350*%
%ADD318R,0.01850X0.01750*%
%ADD319R,0.08350X0.05850*%
%ADD320R,0.08862X0.08774*%
%ADD321R,1.37250X0.04150*%
%ADD322R,0.05150X0.04000*%
%ADD323R,0.02150X0.01200*%
%ADD324R,0.03900X0.03450*%
%ADD325R,0.06050X0.17150*%
%ADD326R,0.06219X0.12738*%
%ADD327R,0.01550X0.05150*%
%ADD328R,0.05500X0.03350*%
%ADD329R,0.00850X0.01038*%
%ADD330R,0.01550X0.01750*%
%ADD331C,0.00550*%
%ADD332C,0.00450*%
%ADD333C,0.01972*%
%ADD334C,0.01972*%
%ADD335O,0.01460X0.03743*%
%ADD336R,0.03665X0.03665*%
%ADD337R,0.04137X0.05476*%
%ADD338R,0.05476X0.04137*%
%ADD339R,0.03665X0.03665*%
%ADD340R,0.02484X0.02562*%
%ADD341O,0.01381X0.04137*%
%ADD342O,0.04137X0.01381*%
%ADD343O,0.04137X0.01381*%
%ADD344R,0.02562X0.02484*%
%ADD345R,0.02956X0.03743*%
%ADD346O,0.01381X0.06499*%
%ADD347O,0.06106X0.01460*%
%ADD348O,0.01460X0.06106*%
%ADD349C,0.01224*%
%ADD350O,0.01381X0.06499*%
%ADD351R,0.02562X0.02484*%
%ADD352R,0.04800X0.03400*%
%ADD353C,0.03350*%
%ADD354R,0.02877X0.06499*%
%ADD355O,0.01184X0.03192*%
%ADD356R,0.06499X0.07484*%
%ADD357O,0.01106X0.04137*%
%ADD358O,0.01499X0.03547*%
%ADD359O,0.03822X0.01224*%
%ADD360O,0.01499X0.08861*%
%ADD361R,0.10043X0.13192*%
%ADD362O,0.05515X0.01854*%
%ADD363R,0.04137X0.01972*%
%ADD364O,0.01381X0.03192*%
%ADD365R,0.02365X0.05515*%
%ADD366O,0.01578X0.06700*%
%ADD367R,0.01499X0.02956*%
%ADD368R,0.02956X0.01499*%
%ADD369O,0.04137X0.01106*%
%ADD370R,0.05318X0.06106*%
%ADD371R,0.05594X0.06696*%
%ADD372O,0.07287X0.01775*%
%ADD373O,0.04137X0.01460*%
%ADD374O,0.01460X0.04137*%
%ADD375R,0.07484X0.06499*%
%ADD376R,0.05397X0.02562*%
%ADD377O,0.05200X0.01775*%
%ADD378R,0.08074X0.03035*%
%ADD379O,0.01775X0.06106*%
%ADD380R,0.07208X0.13192*%
%ADD381R,0.02365X0.05515*%
%ADD382R,0.03743X0.02956*%
%ADD383O,0.03192X0.01184*%
%ADD384R,0.05515X0.02365*%
%ADD385C,0.01854*%
%ADD386C,0.01381*%
%ADD387O,0.01775X0.05200*%
%ADD388R,0.05200X0.05279*%
%ADD389R,0.14373X0.10436*%
%ADD390R,0.12011X0.08468*%
%ADD391R,0.04137X0.05476*%
%ADD392O,0.01184X0.03586*%
%ADD393O,0.01381X0.03800*%
%ADD394R,0.08074X0.08468*%
%ADD395R,0.10436X0.14373*%
%ADD396R,0.01775X0.03350*%
%ADD397R,0.03400X0.04800*%
%ADD398R,0.05279X0.05200*%
%ADD399O,0.01775X0.05633*%
%ADD400R,0.02562X0.05397*%
%ADD401O,0.01854X0.06302*%
%ADD402R,0.10436X0.05318*%
%ADD403R,0.08665X0.08074*%
%ADD404R,0.06578X0.03035*%
%ADD405R,0.08665X0.08271*%
%ADD406R,0.08074X0.04924*%
%ADD407O,0.03586X0.01184*%
%ADD408R,0.06106X0.05318*%
%ADD409O,0.01460X0.04137*%
%ADD410O,0.04137X0.01460*%
%ADD411R,0.06381X0.07365*%
%ADD412R,0.02090X0.04137*%
%ADD413R,0.03153X0.04137*%
%ADD414R,0.02484X0.02562*%
%ADD415R,0.03665X0.03665*%
%ADD416O,0.08300X0.03200*%
%ADD417R,0.03350X0.01775*%
%ADD418R,0.05948X0.04609*%
%ADD419C,0.01624*%
%ADD420O,0.01578X0.06972*%
%ADD421O,0.04137X0.01696*%
%ADD422O,0.08800X0.03200*%
%ADD423R,0.06893X0.03035*%
%ADD424O,0.03800X0.01381*%
%ADD425R,0.14373X0.10436*%
%ADD426R,0.08074X0.07877*%
%ADD427R,0.07484X0.06499*%
%ADD428O,0.07287X0.01775*%
%ADD429O,0.04137X0.01696*%
%ADD430O,0.03547X0.01499*%
%ADD431R,0.08074X0.07877*%
%ADD432R,0.08861X0.10043*%
%ADD433R,0.03665X0.03665*%
%ADD434R,0.17700X0.17700*%
%ADD435R,0.13979X0.10043*%
%ADD436R,0.05476X0.04137*%
%ADD437O,0.01381X0.03940*%
%ADD438O,0.04000X0.01381*%
%ADD439O,0.02877X0.08271*%
%ADD440O,0.01460X0.05900*%
%ADD441O,0.01381X0.11027*%
%ADD442R,0.06696X0.06696*%
%ADD443R,0.08074X0.08074*%
%ADD444R,0.07287X0.07287*%
%ADD445R,0.12405X0.08468*%
%ADD446R,0.12405X0.01893*%
%ADD447R,0.10043X0.06972*%
%ADD448R,0.20672X0.13979*%
%ADD449C,0.01224*%
%ADD450C,0.01400*%
%ADD451R,0.06696X0.06696*%
%ADD452R,0.13979X0.13979*%
%ADD453R,0.13979X0.10043*%
%ADD454R,0.17129X0.08861*%
%ADD455R,0.04137X0.01972*%
G04:AMPARAMS|DCode=456|XSize=41.37mil|YSize=54.76mil|CornerRadius=0mil|HoleSize=0mil|Usage=FLASHONLY|Rotation=90.000|XOffset=0mil|YOffset=0mil|HoleType=Round|Shape=Octagon|*
%AMOCTAGOND456*
4,1,8,-0.02738,-0.01034,-0.02738,0.01034,-0.01704,0.02069,0.01704,0.02069,0.02738,0.01034,0.02738,-0.01034,0.01704,-0.02069,-0.01704,-0.02069,-0.02738,-0.01034,0.0*
%
%ADD456OCTAGOND456*%

%ADD457C,0.04200*%
%ADD458R,0.05712X0.04137*%
%ADD459R,0.11421X0.14176*%
%ADD460C,0.01460*%
%ADD461R,0.04924X0.11224*%
%ADD462C,0.01972*%
%ADD463O,0.02562X0.14767*%
%ADD464C,0.04137*%
%ADD465O,0.04728X0.05121*%
%ADD466C,0.04531*%
%ADD467C,0.04334*%
%ADD468C,0.05909*%
%ADD469C,0.08674*%
%ADD470C,0.05515*%
%ADD471O,0.04728X0.05121*%
%ADD472C,0.06106*%
%ADD473R,0.05909X0.05909*%
%ADD474R,0.04334X0.04334*%
%ADD475R,0.06106X0.06106*%
%ADD476C,0.06106*%
%ADD477R,0.06106X0.06106*%
%ADD478R,0.04728X0.05121*%
%ADD479C,0.06302*%
%ADD480R,0.06302X0.06302*%
%ADD481R,0.05515X0.05515*%
%ADD482C,0.05318*%
%ADD483C,0.06302*%
%ADD484O,0.05318X0.05318*%
%ADD485C,0.05712*%
%ADD486C,0.05800*%
%ADD487C,0.07000*%
%ADD488R,0.06106X0.06106*%
%ADD489R,0.04531X0.04728*%
%ADD490C,0.07300*%
%ADD491R,0.07300X0.07300*%
%ADD492C,0.06509*%
%ADD493R,0.06509X0.06509*%
%ADD494R,0.07000X0.07000*%
%ADD495C,0.06499*%
%ADD496R,0.06499X0.06499*%
%ADD497R,0.05909X0.05909*%
%ADD498C,0.04531*%
%ADD499R,0.05515X0.05515*%
%ADD500R,0.05800X0.05800*%
%ADD501R,0.05515X0.05515*%
%ADD502C,0.05515*%
%ADD503R,0.05515X0.05515*%
%ADD504R,0.06509X0.06509*%
%ADD505C,0.08074*%
%ADD506C,0.08074*%
%ADD507C,0.04334*%
%ADD508O,0.04531X0.04137*%
%ADD509O,0.04531X0.04137*%
%ADD510R,0.05318X0.05318*%
%ADD511C,0.06499*%
%ADD512C,0.05909*%
%ADD513R,0.04334X0.04334*%
%ADD514O,0.14767X0.05200*%
%ADD515C,0.12405*%
%ADD516C,0.12405*%
%ADD517C,0.05318*%
%ADD518C,0.08468*%
%ADD519C,0.08468*%
%ADD520C,0.05712*%
%ADD521O,0.15554X0.06106*%
%ADD522O,0.12011X0.06421*%
%ADD523R,0.04334X0.04334*%
%ADD524C,0.22641*%
%ADD525R,0.03350X0.05121*%
%ADD526R,0.01972X0.04137*%
%ADD527R,0.01460X0.03547*%
%ADD528R,0.01893X0.02798*%
%ADD529R,0.07287X0.13192*%
%ADD530R,0.05121X0.03350*%
%ADD531O,0.06700X0.01578*%
%ADD532O,0.06972X0.01578*%
%ADD533C,0.02798*%
%ADD534O,0.03350X0.03000*%
%ADD535C,0.02365*%
%ADD536R,0.05121X0.03350*%
%ADD537R,0.04137X0.05318*%
%ADD538R,0.12011X0.08468*%
%ADD539R,0.07287X0.13192*%
%ADD540O,0.01460X0.03192*%
%ADD541R,0.03743X0.04137*%
%ADD542R,0.17129X0.08861*%
%ADD543R,0.01972X0.04137*%
%ADD544C,0.02798*%
%ADD545R,0.03350X0.05121*%
%ADD546C,0.02756*%
%ADD547C,0.05118*%
D11*
X4074580Y2537800D02*
G03*
X4074580Y2537800I-2559J0D01*
G01*
X4153479D02*
G03*
X4153479Y2537800I-2559J0D01*
G01*
X4445771Y2111500D02*
G03*
X4445771Y2111500I-4921J0D01*
G01*
X4445750Y1953200D02*
G03*
X4445750Y1953200I-4921J0D01*
G01*
X4231500Y1730300D02*
G03*
X4231500Y1730300I-1772J0D01*
G01*
Y1737500D02*
G03*
X4231500Y1737500I-1772J0D01*
G01*
X3660700Y1814700D02*
G03*
X3660700Y1814700I-2953J0D01*
G01*
X3799400Y2653700D02*
G03*
X3799400Y2653700I-2953J0D01*
G01*
X3768300Y2653600D02*
G03*
X3768300Y2653600I-2953J0D01*
G01*
X4208400Y2654500D02*
G03*
X4208400Y2654500I-2953J0D01*
G01*
X4178700Y2654200D02*
G03*
X4178700Y2654200I-2953J0D01*
G01*
X4366071Y1953000D02*
G03*
X4366071Y1953000I-4921J0D01*
G01*
Y2240900D02*
G03*
X4366071Y2240900I-4921J0D01*
G01*
X4525571Y2111900D02*
G03*
X4525571Y2111900I-4921J0D01*
G01*
X4525550Y1953600D02*
G03*
X4525550Y1953600I-4921J0D01*
G01*
X4032993Y1765400D02*
G03*
X4032993Y1765400I-6693J0D01*
G01*
X4078093D02*
G03*
X4078093Y1765400I-6693J0D01*
G01*
X4003193Y1765300D02*
G03*
X4003193Y1765300I-6693J0D01*
G01*
X3958093D02*
G03*
X3958093Y1765300I-6693J0D01*
G01*
X3761047Y1731500D02*
G03*
X3761047Y1731500I-3347J0D01*
G01*
X3698047Y1731600D02*
G03*
X3698047Y1731600I-3347J0D01*
G01*
X3774600Y2060231D02*
G03*
X3774600Y2060231I-5118J0D01*
G01*
X3774718Y2603431D02*
G03*
X3774718Y2603431I-5118J0D01*
G01*
X4387700Y2325500D02*
G03*
X4387700Y2325500I-6102J0D01*
G01*
X3976800Y2070500D02*
G03*
X3976800Y2070500I-5906J0D01*
G01*
X4223500Y2070900D02*
G03*
X4223500Y2070900I-5906J0D01*
G01*
X4069777Y2463800D02*
G03*
X4069777Y2463800I-7677J0D01*
G01*
X4140277Y2223800D02*
G03*
X4140277Y2223800I-7677J0D01*
G01*
X3998977Y2223500D02*
G03*
X3998977Y2223500I-7677J0D01*
G01*
X3923166Y2179600D02*
G03*
X3923166Y2179600I-8268J0D01*
G01*
X4217265Y2180400D02*
G03*
X4217265Y2180400I-8268J0D01*
G01*
X4217465Y2475700D02*
G03*
X4217465Y2475700I-8268J0D01*
G01*
X3922965Y2474800D02*
G03*
X3922965Y2474800I-8268J0D01*
G01*
X4466400Y2526300D02*
G03*
X4466400Y2526300I-6102J0D01*
G01*
X4555797Y2376800D02*
G03*
X4555797Y2376800I-8268J0D01*
G01*
X4295697Y1766900D02*
G03*
X4295697Y1766900I-8268J0D01*
G01*
X4475697D02*
G03*
X4475697Y1766900I-8268J0D01*
G01*
X3676397Y1857000D02*
G03*
X3676397Y1857000I-8268J0D01*
G01*
Y2376600D02*
G03*
X3676397Y2376600I-8268J0D01*
G01*
X4295797Y2661500D02*
G03*
X4295797Y2661500I-8268J0D01*
G01*
X3676397D02*
G03*
X3676397Y2661500I-8268J0D01*
G01*
X3643200Y1738200D02*
G03*
X3654600Y1726800I11400J0D01*
G01*
X4585900D02*
G03*
X4602700Y1743600I0J16800D01*
G01*
Y2676800D02*
G03*
X4592600Y2686900I-10100J0D01*
G01*
X3657600D02*
G03*
X3643200Y2672500I0J-14400D01*
G01*
X3734600Y2060231D02*
G03*
X3734600Y2060231I-5118J0D01*
G01*
X3734718Y2603431D02*
G03*
X3734718Y2603431I-5118J0D01*
G01*
X4129406Y1739500D02*
G03*
X4129406Y1739500I-3150J0D01*
G01*
X4192006D02*
G03*
X4192006Y1739500I-3150J0D01*
G01*
X4256697Y2317900D02*
G03*
X4256697Y2317900I-2559J0D01*
G01*
X4335646Y2318300D02*
G03*
X4335646Y2318300I-3347J0D01*
G01*
X3814918Y2603531D02*
G03*
X3814918Y2603531I-5118J0D01*
G01*
X3814800Y2060331D02*
G03*
X3814800Y2060331I-5118J0D01*
G01*
X3855000D02*
G03*
X3855000Y2060331I-5118J0D01*
G01*
X3855118Y2603531D02*
G03*
X3855118Y2603531I-5118J0D01*
G01*
X3643200Y1738200D02*
Y2673700D01*
X3654600Y1726800D02*
X4585900D01*
X4602700Y1743600D02*
Y2676800D01*
X3657600Y2686900D02*
X4592600D01*
X3643200Y2612000D02*
Y2672500D01*
D546*
X3770347Y1734800D02*
X3780047D01*
X3672047D02*
X3681747D01*
X4290000Y2569400D02*
X4296400D01*
X4274400D02*
X4280800D01*
X4274400Y2619900D02*
X4280800D01*
X4290100D02*
X4296500D01*
X4103806Y1736400D02*
X4113506D01*
X4202105D02*
X4211805D01*
D547*
X3766500Y2353831D02*
X3772400D01*
X3726500D02*
X3732400D01*
X3806700Y2353931D02*
X3812600D01*
X3846900D02*
X3852800D01*
M02*
